<svg width="141" height="103" viewBox="0 0 141 103" fill="none" xmlns="http://www.w3.org/2000/svg">
<g filter="url(#filter0_d_105_1169)">
<path d="M59.1735 78.5839C52.4105 78.5839 45.8787 75.6937 41.37 70.607L41.1966 70.4336L40.9654 70.607C37.4972 73.1504 33.451 74.5377 29.1157 74.5377C18.1908 74.5377 9.28906 65.6359 9.28906 54.7111C9.28906 46.0983 14.7804 38.5261 22.8729 35.8093L23.1041 35.7515V35.5203C23.1041 35.1735 23.1041 34.8266 23.1041 34.5376C23.1041 20.0867 34.8382 8.3526 49.2891 8.3526C57.555 8.3526 65.1851 12.1098 70.1562 18.7572L70.3296 18.9885L70.5608 18.815C74.1447 15.8671 78.7111 14.2486 83.3932 14.2486C93.5667 14.2486 102.237 21.8208 103.567 31.9365V32.1099L103.74 32.1677C111.601 35.2313 116.688 42.6879 116.688 51.1272C116.688 62.3411 107.555 71.4741 96.3412 71.4741C90.6187 71.4741 85.1273 69.0463 81.3123 64.8267L81.0233 64.4799L80.8499 64.8845C76.9192 73.1504 68.3643 78.5839 59.1735 78.5839Z" fill="url(#paint0_linear_105_1169)"/>
<path d="M49.2313 8.64163C57.3816 8.64163 64.9538 12.3989 69.8671 18.9307L70.214 19.3931L70.6764 18.9885C74.2602 16.0983 78.7111 14.4798 83.3354 14.4798C93.3932 14.4798 101.89 21.9943 103.22 31.8787L103.278 32.2255L103.624 32.3411C111.37 35.3469 116.399 42.6879 116.399 51.0116C116.399 62.0521 107.439 71.0695 96.3412 71.0695C90.7342 71.0695 85.3007 68.6995 81.5435 64.5377L80.9654 63.9018L80.6186 64.7111C76.7458 72.977 68.3643 78.2949 59.2313 78.2949C52.5261 78.2949 46.1099 75.4047 41.6012 70.4336L41.2544 70.029L40.8498 70.318C37.4393 72.8614 33.4509 74.1909 29.1734 74.1909C18.3642 74.1909 9.57804 65.4047 9.57804 54.6533C9.57804 46.2139 14.9538 38.7573 22.9885 36.0983L23.3931 35.9827V35.5203C23.3931 35.1735 23.3931 34.8266 23.3931 34.5376C23.3353 20.2601 34.9538 8.64163 49.2313 8.64163ZM49.2313 8.0636C34.607 8.0636 22.7572 19.9133 22.7572 34.5376C22.7572 34.8844 22.7572 35.2313 22.7572 35.5781C14.7804 38.2371 9 45.7515 9 54.6533C9 65.7515 18.0174 74.7689 29.1156 74.7689C33.6243 74.7689 37.7862 73.266 41.1388 70.7805C45.5896 75.7516 52.0058 78.8151 59.1735 78.8151C68.8845 78.8151 77.2082 73.0926 81.081 64.8845C84.8383 69.0463 90.2718 71.6475 96.3412 71.6475C107.728 71.6475 116.977 62.3989 116.977 51.0116C116.977 42.2833 111.544 34.8266 103.856 31.8209C102.526 21.7052 93.9134 13.9018 83.451 13.9018C78.5377 13.9018 73.9712 15.6359 70.4452 18.526C65.5319 12.1677 57.844 8.0636 49.2313 8.0636Z" fill="white"/>
</g>
<defs>
<filter id="filter0_d_105_1169" x="0.991977" y="0.0555754" width="140.009" height="102.784" filterUnits="userSpaceOnUse" color-interpolation-filters="sRGB">
<feFlood flood-opacity="0" result="BackgroundImageFix"/>
<feColorMatrix in="SourceAlpha" type="matrix" values="0 0 0 0 0 0 0 0 0 0 0 0 0 0 0 0 0 0 127 0" result="hardAlpha"/>
<feOffset dx="8.00802" dy="8.00802"/>
<feGaussianBlur stdDeviation="8.00802"/>
<feColorMatrix type="matrix" values="0 0 0 0 0.555208 0 0 0 0 0.752283 0 0 0 0 0.8125 0 0 0 0.5 0"/>
<feBlend mode="normal" in2="BackgroundImageFix" result="effect1_dropShadow_105_1169"/>
<feBlend mode="normal" in="SourceGraphic" in2="effect1_dropShadow_105_1169" result="shape"/>
</filter>
<linearGradient id="paint0_linear_105_1169" x1="29.6536" y1="43.4636" x2="137.058" y2="43.4636" gradientUnits="userSpaceOnUse">
<stop stop-color="white"/>
<stop offset="1" stop-color="#E1F4FD"/>
</linearGradient>
</defs>
</svg>
