<svg width="30" height="30" viewBox="0 0 30 30" fill="none" xmlns="http://www.w3.org/2000/svg">
<path fill-rule="evenodd" clip-rule="evenodd" d="M15 29C22.732 29 29 22.732 29 15C29 7.26801 22.732 1 15 1C7.26801 1 1 7.26801 1 15C1 22.732 7.26801 29 15 29Z" stroke="white"/>
<path fill-rule="evenodd" clip-rule="evenodd" d="M12.5388 17.3659C12.5388 17.3659 17.3602 21.827 20.0774 20.4207C20.0774 20.4207 20.8284 19.7971 20.9011 19.1844C20.9739 18.5717 20.3499 18.1608 20.1088 18.0212C19.5316 17.6854 18.9379 17.3724 18.3489 17.0538C18.1628 16.9528 17.961 16.839 17.7411 16.8948C17.6138 16.9278 17.4827 16.9636 17.3665 17.0194C16.9518 17.2171 16.6118 17.4032 16.1625 17.5887C16.1625 17.5887 15.704 17.4528 13.9936 15.8739C12.1763 14.1962 12.4219 13.5724 12.4219 13.5724C12.6583 13.2666 12.8735 12.9465 13.0525 12.6093C13.1295 12.4639 13.2355 12.3236 13.2803 12.1653C13.3258 12.0064 13.2324 11.8925 13.1538 11.7529C12.9795 11.4407 12.7934 11.1342 12.6002 10.8313C12.2672 10.3079 11.9271 9.76225 11.5023 9.29467C11.4575 9.24598 11.3531 9.0999 11.2675 9.10563C10.3227 9.16363 9.39208 10.025 9.39208 10.025C7.92978 12.4625 12.5388 17.3659 12.5388 17.3659Z" fill="white"/>
</svg>
