<svg width="32" height="32" viewBox="0 0 32 32" fill="none" xmlns="http://www.w3.org/2000/svg">
<path d="M16 0C7.164 0 0 7.164 0 16C0 24.836 7.164 32 16 32C24.836 32 32 24.836 32 16C32 7.164 24.836 0 16 0Z" fill="#007AFF"/>
<path d="M22.3806 21.1812C22.1983 21.5804 21.7881 21.9278 21.1503 22.2231C20.5122 22.5184 19.9457 22.666 19.4507 22.666C19.3118 22.666 19.1642 22.6553 19.008 22.6336C18.8517 22.6117 18.7196 22.5902 18.6111 22.5685C18.5026 22.5468 18.3592 22.5078 18.1814 22.4513C18.0033 22.395 17.8752 22.3514 17.7973 22.3211C17.719 22.2908 17.5759 22.2365 17.3677 22.1585C17.1593 22.0801 17.0289 22.0324 16.9772 22.0153C15.5536 21.4942 14.1623 20.5547 12.8039 19.1962C11.4455 17.8375 10.5057 16.4465 9.98488 15.0232C9.96764 14.9711 9.91989 14.8408 9.84167 14.6326C9.7636 14.4244 9.70919 14.281 9.67881 14.203C9.64862 14.1249 9.60516 13.9968 9.5487 13.819C9.49228 13.641 9.45334 13.4979 9.43158 13.3892C9.40978 13.2809 9.38826 13.1486 9.3665 12.9923C9.34479 12.836 9.33398 12.6882 9.33398 12.5495C9.33398 12.0546 9.48161 11.4882 9.77682 10.8502C10.072 10.2123 10.4191 9.80213 10.8185 9.6198C11.2786 9.42875 11.717 9.33325 12.1337 9.33325C12.229 9.33325 12.2986 9.34201 12.3419 9.35934C12.3853 9.3769 12.457 9.45484 12.5568 9.59376C12.6567 9.73267 12.7652 9.90839 12.8823 10.1211C12.9995 10.3339 13.1146 10.54 13.2274 10.7396C13.3402 10.9392 13.4488 11.1366 13.553 11.3321C13.6571 11.5272 13.7222 11.6511 13.7482 11.703C13.7743 11.7466 13.8307 11.829 13.9175 11.9506C14.0042 12.072 14.0695 12.1804 14.1128 12.276C14.1561 12.3715 14.1779 12.4627 14.1779 12.5495C14.1779 12.6798 14.0888 12.8382 13.9109 13.0247C13.7329 13.2113 13.5376 13.3829 13.3249 13.5392C13.1121 13.6954 12.9169 13.8626 12.7389 14.0405C12.5611 14.2184 12.4721 14.3638 12.4721 14.4766C12.4721 14.5374 12.4872 14.609 12.5177 14.6914C12.548 14.7741 12.5763 14.8413 12.6023 14.8933C12.6284 14.9454 12.6697 15.0192 12.726 15.1148C12.7824 15.2104 12.8194 15.2711 12.8366 15.2972C13.314 16.1565 13.8631 16.8966 14.4837 17.5173C15.1045 18.1382 15.8444 18.687 16.7039 19.1645C16.7297 19.182 16.7906 19.2188 16.8865 19.2753C16.9818 19.3315 17.0558 19.3727 17.1078 19.3988C17.1599 19.4248 17.227 19.4531 17.3096 19.4832C17.3922 19.5135 17.4638 19.5288 17.5248 19.5288C17.6633 19.5288 17.8543 19.3857 18.0976 19.0993C18.3406 18.8126 18.5882 18.5284 18.8399 18.2462C19.0915 17.9643 19.2953 17.8233 19.4519 17.8233C19.5386 17.8233 19.6296 17.8448 19.7255 17.8882C19.821 17.9316 19.9293 17.9968 20.0507 18.0836C20.1725 18.1707 20.2549 18.2269 20.2983 18.2533L20.9881 18.6305C21.4482 18.8737 21.8323 19.0884 22.1405 19.2751C22.4488 19.4618 22.6159 19.5897 22.642 19.6591C22.6593 19.7024 22.6678 19.7721 22.6678 19.8676C22.6674 20.2839 22.5719 20.7223 22.3806 21.1812Z" fill="white"/>
</svg>
