<svg width="28" height="28" viewBox="0 0 28 28" fill="none" xmlns="http://www.w3.org/2000/svg">
<path fill-rule="evenodd" clip-rule="evenodd" d="M14 28C21.732 28 28 21.732 28 14C28 6.26801 21.732 0 14 0C6.26801 0 0 6.26801 0 14C0 21.732 6.26801 28 14 28Z" fill="#3A5898"/>
<path d="M16.7539 14.625L17.1367 12.1094H14.7031V10.4688C14.7031 9.75781 15.0312 9.10156 16.125 9.10156H17.2461V6.94141C17.2461 6.94141 16.2344 6.75 15.2773 6.75C13.2812 6.75 11.9688 7.98047 11.9688 10.168V12.1094H9.72656V14.625H11.9688V20.75H14.7031V14.625H16.7539Z" fill="white"/>
</svg>
