<svg width="2235" height="5155" viewBox="0 0 2235 5155" fill="none" xmlns="http://www.w3.org/2000/svg">
<path d="M1186.66 4825.25C1057.66 4925.25 1142.81 5100.02 1287.13 5065.22C1385.66 5041.47 1336.66 4929.16 1254.2 4971.14C1197.44 5000.03 1166.45 5074.25 1188 5145.25" stroke="url(#paint0_linear_3250_9387)" stroke-width="2" stroke-miterlimit="10" stroke-dasharray="8.16 8.16"/>
<circle r="5" transform="matrix(-1 7.2676e-08 8.01819e-08 1 1186.66 4825.25)" fill="#CAEAF4"/>
<path d="M1194.95 4459.78C1318.43 4641.46 1168.14 4805.09 1066.41 4738.61C974.077 4682.42 1071.42 4560.72 1152.27 4646.88C1193.96 4691.31 1219.01 4748.26 1188.87 4821.67" stroke="url(#paint1_linear_3250_9387)" stroke-width="2" stroke-miterlimit="10" stroke-dasharray="8.16 8.16"/>
<circle r="5" transform="matrix(-1 9.51775e-08 8.29224e-08 1 1188.86 4822.78)" fill="#CAEAF4"/>
<circle r="5" transform="matrix(-1 9.51775e-08 8.29224e-08 1 1194.86 4459.78)" fill="#CAEAF4"/>
<path d="M1152.37 2879.76C1107.37 2988.76 901.865 3144.76 808.866 2964.76C715.866 2784.76 488.414 2915.92 612.366 3080.76C730.243 3184.75 878.114 3056.76 835.865 3264.75C826.138 3312.64 818.364 3468.75 933.364 3467.75C1048.36 3466.75 997.364 3294.75 886.364 3344.75C602.365 3472.68 606.364 3641.76 748.364 3671.76C829.099 3688.81 839.5 3636.78 884.365 3623.76C918.411 3613.87 993.087 3623.39 1013.36 3720.25C1060.36 3944.75 705.364 3931.75 748.364 3799.75C791.364 3667.75 1023.36 3884.26 712.365 3984.26C504.365 4051.14 619.865 4216.76 742.865 4135.26C865.866 4053.75 936.865 4092.26 995.365 4136.25C1018.1 4153.36 1047.6 4179.76 1060.87 4202.26" stroke="url(#paint2_linear_3250_9387)" stroke-width="2" stroke-miterlimit="10" stroke-dasharray="8.16 8.16"/>
<circle r="5" transform="matrix(-1 8.74228e-08 8.74228e-08 1 1152.37 2879.76)" fill="#CAEAF4"/>
<circle r="5" transform="matrix(-1 8.74228e-08 8.74228e-08 1 836.365 3264.76)" fill="#CAEAF4"/>
<path d="M836.365 3249.76C828.081 3249.76 821.365 3256.47 821.365 3264.76C821.365 3273.04 828.081 3279.76 836.365 3279.76C844.648 3279.76 851.364 3273.04 851.364 3264.76C851.364 3256.47 844.648 3249.76 836.365 3249.76Z" fill="#CAEAF4"/>
<ellipse rx="7.49963" ry="7.49964" transform="matrix(-1 8.74228e-08 8.74227e-08 1 836.365 3264.76)" fill="white"/>
<circle r="5" transform="matrix(-1 8.74228e-08 8.74228e-08 1 999.365 3409.76)" fill="#CAEAF4"/>
<path d="M999.365 3394.76C991.081 3394.76 984.365 3401.47 984.365 3409.76C984.365 3418.04 991.081 3424.76 999.365 3424.76C1007.65 3424.76 1014.36 3418.04 1014.36 3409.76C1014.36 3401.47 1007.65 3394.76 999.365 3394.76Z" fill="#CAEAF4"/>
<ellipse rx="7.49963" ry="7.49964" transform="matrix(-1 8.74228e-08 8.74227e-08 1 999.365 3409.76)" fill="white"/>
<circle r="5" transform="matrix(-1 8.74228e-08 8.74228e-08 1 658.365 3544.76)" fill="#CAEAF4"/>
<path d="M658.365 3529.76C650.081 3529.76 643.365 3536.47 643.365 3544.76C643.365 3553.04 650.081 3559.76 658.365 3559.76C666.648 3559.76 673.364 3553.04 673.364 3544.76C673.364 3536.47 666.648 3529.76 658.365 3529.76Z" fill="#CAEAF4"/>
<ellipse rx="7.49963" ry="7.49964" transform="matrix(-1 8.74228e-08 8.74227e-08 1 658.365 3544.76)" fill="white"/>
<circle r="5" transform="matrix(-1 8.74228e-08 8.74228e-08 1 1003.37 3687.76)" fill="#CAEAF4"/>
<path d="M1003.36 3672.76C995.081 3672.76 988.365 3679.47 988.365 3687.76C988.365 3696.04 995.081 3702.76 1003.36 3702.76C1011.65 3702.76 1018.36 3696.04 1018.36 3687.76C1018.36 3679.47 1011.65 3672.76 1003.36 3672.76Z" fill="#CAEAF4"/>
<ellipse rx="7.49963" ry="7.49964" transform="matrix(-1 8.74228e-08 8.74227e-08 1 1003.36 3687.76)" fill="white"/>
<circle r="5" transform="matrix(-1 8.74228e-08 8.74228e-08 1 745.365 3832.76)" fill="#CAEAF4"/>
<path d="M745.365 3817.76C737.081 3817.76 730.365 3824.47 730.365 3832.76C730.365 3841.04 737.081 3847.76 745.365 3847.76C753.648 3847.76 760.364 3841.04 760.364 3832.76C760.364 3824.47 753.648 3817.76 745.365 3817.76Z" fill="#CAEAF4"/>
<ellipse rx="7.49963" ry="7.49964" transform="matrix(-1 8.74228e-08 8.74227e-08 1 745.365 3832.76)" fill="white"/>
<circle r="5" transform="matrix(-1 8.74228e-08 8.74228e-08 1 743.365 3972.76)" fill="#CAEAF4"/>
<path d="M743.365 3957.76C735.081 3957.76 728.365 3964.47 728.365 3972.76C728.365 3981.04 735.081 3987.76 743.365 3987.76C751.648 3987.76 758.364 3981.04 758.364 3972.76C758.364 3964.47 751.648 3957.76 743.365 3957.76Z" fill="#CAEAF4"/>
<ellipse rx="7.49963" ry="7.49964" transform="matrix(-1 8.74228e-08 8.74227e-08 1 743.365 3972.76)" fill="white"/>
<circle r="5" transform="matrix(-1 8.74228e-08 8.74228e-08 1 770.365 4117.76)" fill="#CAEAF4"/>
<path d="M770.365 4102.76C762.081 4102.76 755.365 4109.47 755.365 4117.76C755.365 4126.04 762.081 4132.76 770.365 4132.76C778.648 4132.76 785.364 4126.04 785.364 4117.76C785.364 4109.47 778.648 4102.76 770.365 4102.76Z" fill="#CAEAF4"/>
<ellipse rx="7.49963" ry="7.49964" transform="matrix(-1 8.74228e-08 8.74227e-08 1 770.365 4117.76)" fill="white"/>
<circle r="5" transform="matrix(-1 8.74228e-08 8.74228e-08 1 1061.37 4202.76)" fill="#CAEAF4"/>
<path d="M1268.92 1907.04C1081.14 2039.58 1149.47 2247.81 1293.79 2213.01C1439.29 2177.95 1370.92 2062.9 1260.85 2118.92C1204.09 2147.81 1173.11 2235.04 1194.66 2306.04" stroke="url(#paint3_linear_3250_9387)" stroke-width="2" stroke-miterlimit="10" stroke-dasharray="8.16 8.16"/>
<circle r="5" transform="matrix(-1 7.2676e-08 8.01819e-08 1 1194.31 2306.04)" fill="#CAEAF4"/>
<circle r="5" transform="matrix(-1 7.2676e-08 8.01819e-08 1 1268.31 1908.04)" fill="#CAEAF4"/>
<path d="M762.334 1278.16C834.397 1345.58 812.999 1428.79 771.59 1498.51C669.631 1669.63 557.04 1571.74 601.473 1500.2C636.135 1444.79 774.003 1448.91 868.902 1525.66" stroke="url(#paint4_linear_3250_9387)" stroke-width="2" stroke-miterlimit="10" stroke-dasharray="8.16 8.16"/>
<circle r="5" transform="matrix(-1 5.65607e-08 8.22737e-08 1 868.833 1525.66)" fill="#CAEAF4"/>
<path d="M2196.6 735.619C2196.6 735.619 2194.89 736.726 2191.33 738.517" stroke="#BCE2EE" stroke-width="2" stroke-miterlimit="10"/>
<path d="M2115.25 651.676C1973.39 500.282 1982.53 771.491 1894.35 672.331C1748.62 524.375 1834.59 410.227 1891.13 482.44C1947.67 554.653 1673.28 781.75 1485.03 641.948C1296.77 502.145 1285.26 352.05 1029.46 462.237C756.572 580.001 731.373 860.687 840.709 915.915C950.045 971.143 1025.62 823.449 880.807 789.476C754.325 759.786 515.669 1024.78 762.388 1277.96" stroke="url(#paint5_linear_3250_9387)" stroke-width="2" stroke-miterlimit="10" stroke-dasharray="8.16 8.16"/>
<path d="M2115.25 651.676C1973.39 500.282 1982.53 771.491 1894.35 672.331C1748.62 524.375 1834.59 410.227 1891.13 482.44C1947.67 554.653 1673.28 781.75 1485.03 641.948C1296.77 502.145 1285.26 352.05 1029.46 462.237C959.673 492.355 906.082 533.129 866.799 578.063M762.388 1277.96C515.669 1024.78 754.324 759.786 880.807 789.476C1025.62 823.449 950.045 971.143 840.709 915.915C779.723 885.11 760.594 784.16 802.959 680.464" stroke="url(#paint6_linear_3250_9387)" stroke-width="2" stroke-miterlimit="10" stroke-dasharray="8.16 8.16"/>
<circle cx="2115.3" cy="651.964" r="5" fill="#B0E2F2"/>
<circle r="5" transform="matrix(-1 9.71197e-08 7.9892e-08 1 2115.3 651.964)" fill="#B0E2F2"/>
<path d="M1232.61 1292.94C1234.48 1294.02 1236.07 1294.94 1237.79 1296.28" stroke="#BCE2EE" stroke-width="2" stroke-miterlimit="10"/>
<g filter="url(#filter0_dd_3250_9387)">
<path d="M676.623 1011C676.63 1010.95 676.639 1010.89 676.649 1010.83L671.145 1009.6C671.135 1009.67 671.126 1009.73 671.12 1009.76C671.02 1010.41 671.428 1011.77 672.101 1011.92C672.774 1012.07 674.55 1012.47 675.072 1012.59C675.594 1012.7 676.491 1011.85 676.623 1011Z" fill="white"/>
<path d="M676.591 1010.94C676.598 1010.9 676.607 1010.84 676.618 1010.77L671.114 1009.54C671.103 1009.61 671.094 1009.67 671.088 1009.71C670.989 1010.35 671.396 1011.72 672.069 1011.87C672.743 1012.02 674.518 1012.41 675.04 1012.53C675.561 1012.65 676.46 1011.79 676.591 1010.94Z" fill="url(#paint7_linear_3250_9387)"/>
<path opacity="0.2" d="M671.177 1009.3C671.124 1009.64 672.305 1010.17 673.814 1010.5C675.323 1010.82 676.589 1010.82 676.642 1010.49C676.695 1010.15 675.514 1009.62 674.005 1009.29C672.496 1008.97 671.23 1008.97 671.177 1009.3Z" fill="url(#paint8_radial_3250_9387)"/>
<path d="M677.8 1005.91C677.808 1005.87 677.814 1005.83 677.82 1005.79C678.393 1002 677.543 998.646 675.935 998.281C674.317 997.914 672.549 1000.69 671.977 1004.46C671.97 1004.51 671.964 1004.55 671.957 1004.59C671.957 1004.59 671.407 1008.23 671.248 1009.27L677.091 1010.6C677.269 1009.42 677.8 1005.91 677.8 1005.91Z" fill="white"/>
<path d="M677.734 1005.9C677.742 1005.85 677.748 1005.81 677.754 1005.77C678.327 1001.99 677.477 998.634 675.869 998.269C674.252 997.902 672.483 1000.67 671.911 1004.45C671.904 1004.5 671.898 1004.54 671.892 1004.58C671.892 1004.58 671.341 1008.21 671.183 1009.26L677.025 1010.58C677.203 1009.41 677.734 1005.9 677.734 1005.9Z" fill="url(#paint9_linear_3250_9387)"/>
<path opacity="0.2" d="M674.894 1008.49C673.136 1009.34 671.51 1009.73 671.273 1009.36C671.035 1008.99 672.273 1008.01 674.03 1007.16C675.788 1006.31 677.414 1005.92 677.651 1006.29C677.889 1006.65 676.651 1007.64 674.894 1008.49Z" fill="url(#paint10_radial_3250_9387)"/>
<path d="M662.42 993.378C661.218 1001.4 660.591 1005.59 658.38 1020.34C662.411 1009.75 698.025 997.918 698.025 997.918L699.007 991.723C698.999 991.713 661.034 1002.63 662.42 993.378Z" fill="white"/>
<path d="M662.18 993.337C660.978 1001.36 660.351 1005.54 658.141 1020.3C662.171 1009.71 697.779 997.876 697.779 997.876L698.807 991.791C698.807 991.791 660.795 1002.58 662.18 993.337Z" fill="url(#paint11_linear_3250_9387)"/>
<mask id="mask0_3250_9387" style="mask-type:alpha" maskUnits="userSpaceOnUse" x="658" y="991" width="41" height="30">
<path d="M662.597 993.521C661.272 1001.69 660.58 1005.96 658.141 1021C662.305 1010.15 697.686 997.296 697.686 997.296L698.807 991.091C698.807 991.091 661.069 1002.94 662.597 993.521Z" fill="url(#paint12_linear_3250_9387)"/>
</mask>
<g mask="url(#mask0_3250_9387)">
<path opacity="0.2" d="M697.303 993.764C696.995 995.594 697.037 997.136 697.396 997.21C697.756 997.284 698.297 995.861 698.605 994.032C698.913 992.202 698.872 990.66 698.512 990.586C698.153 990.512 697.611 991.935 697.303 993.764Z" fill="url(#paint13_radial_3250_9387)"/>
<path opacity="0.2" d="M658.604 1006.73C656.912 1016.73 656.985 1025.13 658.766 1025.5C660.547 1025.86 663.362 1018.05 665.053 1008.05C666.745 998.048 666.672 989.646 664.891 989.282C663.11 988.918 660.295 996.729 658.604 1006.73Z" fill="url(#paint14_radial_3250_9387)"/>
</g>
<path d="M640.214 1004.32C640.221 1004.28 640.23 1004.22 640.241 1004.15L645.745 1005.38C645.734 1005.44 645.725 1005.5 645.719 1005.54C645.62 1006.18 644.832 1007.28 644.159 1007.13C643.485 1006.98 641.71 1006.59 641.188 1006.47C640.665 1006.36 640.082 1005.17 640.214 1004.32Z" fill="white"/>
<path d="M640.264 1004.28C640.271 1004.23 640.28 1004.18 640.291 1004.11L645.795 1005.33C645.785 1005.4 645.775 1005.46 645.77 1005.5C645.67 1006.14 644.882 1007.24 644.209 1007.09C643.536 1006.94 641.76 1006.55 641.238 1006.43C640.715 1006.32 640.133 1005.13 640.264 1004.28Z" fill="url(#paint15_linear_3250_9387)"/>
<path opacity="0.2" d="M640.413 1003.88C640.36 1004.21 641.54 1004.74 643.05 1005.07C644.559 1005.4 645.825 1005.39 645.878 1005.06C645.931 1004.73 644.75 1004.2 643.241 1003.87C641.732 1003.54 640.466 1003.55 640.413 1003.88Z" fill="url(#paint16_radial_3250_9387)"/>
<path d="M641.051 999.146C641.059 999.097 641.065 999.057 641.071 999.017C641.644 995.235 643.411 992.472 645.028 992.839C646.645 993.205 647.485 996.569 646.914 1000.34C646.906 1000.39 646.9 1000.43 646.894 1000.47C646.894 1000.47 646.343 1004.11 646.185 1005.15L640.342 1003.83C640.52 1002.65 641.051 999.146 641.051 999.146Z" fill="white"/>
<path d="M641.117 999.158C641.123 999.118 641.131 999.069 641.137 999.029C641.709 995.247 643.486 992.486 645.094 992.851C646.711 993.218 647.551 996.581 646.979 1000.36C646.972 1000.4 646.966 1000.44 646.96 1000.48C646.96 1000.48 646.409 1004.12 646.251 1005.17L640.408 1003.84C640.586 1002.67 641.117 999.158 641.117 999.158Z" fill="url(#paint17_linear_3250_9387)"/>
<path opacity="0.2" d="M642.778 1002.78C644.172 1004.35 645.577 1005.43 645.905 1005.19C646.233 1004.95 645.364 1003.49 643.97 1001.92C642.576 1000.35 641.17 999.267 640.842 999.504C640.514 999.742 641.384 1001.21 642.778 1002.78Z" fill="url(#paint18_radial_3250_9387)"/>
<path d="M658.919 994.552C657.717 1002.57 657.09 1006.76 654.879 1021.52C654.185 1009.84 624.361 983.019 624.361 983.019L625.238 976.8C625.247 976.802 657.533 1003.8 658.919 994.552Z" fill="white"/>
<path d="M659.146 994.599C657.944 1002.62 657.317 1006.81 655.107 1021.56C654.413 1009.89 624.594 983.069 624.594 983.069L625.397 976.931C625.405 976.933 657.761 1003.85 659.146 994.599Z" fill="url(#paint19_linear_3250_9387)"/>
<mask id="mask1_3250_9387" style="mask-type:alpha" maskUnits="userSpaceOnUse" x="625" y="976" width="34" height="46">
<path d="M658.997 994.084C657.671 1002.26 656.979 1006.52 654.541 1021.56C654.057 1009.72 625.064 983.183 625.064 983.183L625.963 976.931C625.972 976.933 657.469 1003.51 658.997 994.084Z" fill="url(#paint20_linear_3250_9387)"/>
</mask>
<g mask="url(#mask1_3250_9387)">
<path opacity="0.2" d="M652.111 1005.77C650.419 1015.77 650.492 1024.18 652.273 1024.54C654.054 1024.9 656.869 1017.09 658.56 1007.09C660.252 997.092 660.179 988.69 658.398 988.326C656.617 987.961 653.802 995.773 652.111 1005.77Z" fill="url(#paint21_radial_3250_9387)"/>
<path opacity="0.2" d="M625.742 980.819C625.434 982.648 625.476 984.191 625.835 984.265C626.195 984.339 626.736 982.916 627.044 981.086C627.352 979.257 627.311 977.714 626.951 977.641C626.592 977.567 626.05 978.99 625.742 980.819Z" fill="url(#paint22_radial_3250_9387)"/>
</g>
<path d="M697.778 996.4C697.616 996.366 697.745 994.734 697.803 994.389C697.862 994.043 698.865 988.932 699.038 988.968C699.201 989.001 698.474 994.16 698.414 994.514C698.355 994.859 697.951 996.435 697.778 996.4Z" fill="white"/>
<path d="M697.79 996.326C697.627 996.292 697.764 994.678 697.823 994.333C697.882 993.988 698.878 988.926 699.041 988.959C699.204 988.992 698.472 994.109 698.414 994.454C698.355 994.799 697.953 996.359 697.79 996.326Z" fill="url(#paint23_linear_3250_9387)"/>
<path d="M625.773 983.364C625.936 983.397 626.35 981.824 626.409 981.478C626.467 981.133 627.206 975.968 627.033 975.932C626.87 975.899 625.858 981 625.799 981.353C625.739 981.707 625.611 983.331 625.773 983.364Z" fill="white"/>
<path d="M625.784 983.299C625.947 983.332 626.349 981.772 626.407 981.427C626.466 981.082 627.198 975.965 627.035 975.932C626.872 975.898 625.875 980.961 625.817 981.306C625.758 981.651 625.621 983.265 625.784 983.299Z" fill="url(#paint24_linear_3250_9387)"/>
<path d="M667.228 959.739C668.463 960.872 677.577 959.228 682.105 959.165C681.622 961.792 681.622 961.792 681.622 961.792C681.622 961.792 665.68 969.769 664.993 971.879C667.228 959.739 664.994 971.871 667.228 959.739Z" fill="white"/>
<path d="M667.102 959.682C668.337 960.814 677.439 959.237 681.969 959.166C681.485 961.792 681.497 961.726 681.497 961.726C681.497 961.726 665.556 969.703 664.868 971.814C667.102 959.682 664.868 971.814 667.102 959.682Z" fill="url(#paint25_linear_3250_9387)"/>
<mask id="mask2_3250_9387" style="mask-type:alpha" maskUnits="userSpaceOnUse" x="664" y="959" width="18" height="13">
<path d="M667.102 959.682C668.337 960.814 677.439 959.237 681.969 959.166C681.485 961.792 681.497 961.726 681.497 961.726C681.497 961.726 665.556 969.703 664.868 971.814C667.102 959.682 664.868 971.814 667.102 959.682Z" fill="url(#paint26_linear_3250_9387)"/>
</mask>
<g mask="url(#mask2_3250_9387)">
<path opacity="0.2" d="M670.741 964.443C670.636 967.097 670.005 969.226 669.336 969.197C668.667 969.168 668.204 966.999 668.308 964.346C668.412 961.692 669.043 959.563 669.713 959.592C670.383 959.613 670.845 961.79 670.741 964.443Z" fill="url(#paint27_radial_3250_9387)"/>
</g>
<path d="M667.259 959.992C665.702 960.611 657.77 955.829 653.561 954.158C653.078 956.784 653.078 956.784 653.078 956.784C653.078 956.784 665.133 969.916 665.023 972.133C667.259 959.992 665.025 972.124 667.259 959.992Z" fill="white"/>
<mask id="mask3_3250_9387" style="mask-type:alpha" maskUnits="userSpaceOnUse" x="653" y="954" width="15" height="19">
<path d="M667.259 959.992C665.702 960.611 657.77 955.829 653.561 954.158C653.078 956.784 653.078 956.784 653.078 956.784C653.078 956.784 665.133 969.916 665.023 972.133C667.259 959.992 665.025 972.124 667.259 959.992Z" fill="white"/>
</mask>
<g mask="url(#mask3_3250_9387)">
<path d="M667.398 959.975C665.841 960.594 657.898 955.878 653.69 954.198C653.207 956.825 653.219 956.759 653.219 956.759C653.219 956.759 665.274 969.89 665.164 972.107C667.398 959.975 665.164 972.107 667.398 959.975Z" fill="url(#paint28_linear_3250_9387)"/>
<path opacity="0.2" d="M662.409 963.283C661.561 965.8 661.393 968.015 662.029 968.225C662.664 968.436 663.869 966.575 664.717 964.058C665.565 961.542 665.733 959.327 665.097 959.116C664.462 958.905 663.257 960.767 662.409 963.283Z" fill="url(#paint29_radial_3250_9387)"/>
</g>
<path d="M658.637 1028.66C658.637 1028.66 664.546 996.567 668.259 976.4C671.973 956.232 667.92 957.279 667.92 957.279C667.92 957.279 664.507 954.858 660.794 975.025C657.08 995.193 651.171 1027.29 651.171 1027.29C651.171 1027.29 649.863 1038.98 652.779 1039.52C655.694 1040.06 658.637 1028.66 658.637 1028.66Z" fill="white"/>
<path d="M658.406 1028.62C658.406 1028.62 664.315 996.525 668.028 976.357C671.741 956.19 667.689 957.237 667.689 957.237C667.689 957.237 664.275 954.815 660.562 974.983C656.849 995.15 650.94 1027.24 650.94 1027.24C650.94 1027.24 649.632 1038.94 652.547 1039.48C655.462 1040.01 658.406 1028.62 658.406 1028.62Z" fill="url(#paint30_radial_3250_9387)"/>
<path opacity="0.2" d="M663.965 968.377C662.801 974.694 662.576 979.947 663.461 980.11C664.346 980.273 666.006 975.284 667.169 968.967C668.332 962.65 668.558 957.397 667.673 957.234C666.788 957.071 665.128 962.06 663.965 968.377Z" fill="url(#paint31_radial_3250_9387)"/>
<path d="M664.543 974.324C664.171 974.256 664.596 970.278 664.755 969.419C664.913 968.56 667.527 956.029 667.899 956.097C668.271 956.166 666.251 968.807 666.092 969.665C665.934 970.524 664.915 974.392 664.543 974.324Z" fill="white"/>
<path d="M664.56 974.139C664.196 974.072 664.624 970.129 664.779 969.287C664.935 968.436 667.517 956.036 667.881 956.102C668.244 956.169 666.239 968.685 666.084 969.527C665.92 970.368 664.915 974.205 664.56 974.139Z" fill="url(#paint32_linear_3250_9387)"/>
<mask id="mask4_3250_9387" style="mask-type:alpha" maskUnits="userSpaceOnUse" x="651" y="1032" width="5" height="3">
<g opacity="0.5">
<path d="M653.429 1034.83C652.146 1034.54 651.604 1033.46 651.681 1032.96C651.758 1032.46 652.587 1032.86 653.692 1033.11C654.807 1033.36 655.774 1033.37 655.697 1033.88C655.62 1034.38 654.798 1035.13 653.429 1034.83Z" fill="url(#paint33_radial_3250_9387)"/>
</g>
</mask>
<g mask="url(#mask4_3250_9387)">
<path opacity="0.5" d="M653.387 1034.92C652.131 1034.69 651.649 1033.55 651.751 1032.99C651.853 1032.44 652.653 1032.83 653.735 1033.03C654.825 1033.23 655.781 1033.18 655.679 1033.73C655.577 1034.29 654.726 1035.16 653.387 1034.92Z" fill="url(#paint34_radial_3250_9387)"/>
<path opacity="0.5" d="M655.971 1032.8L655.793 1033.77C655.793 1033.77 653.475 1035.7 651.581 1032.99C651.759 1032.02 651.759 1032.02 651.759 1032.02C651.759 1032.02 653.855 1033.79 655.971 1032.8Z" fill="white"/>
<path opacity="0.5" d="M655.971 1032.8L655.793 1033.77C655.793 1033.77 653.475 1035.7 651.581 1032.99C651.759 1032.02 651.759 1032.02 651.759 1032.02C651.759 1032.02 653.864 1033.79 655.971 1032.8Z" fill="url(#paint35_linear_3250_9387)"/>
</g>
</g>
<defs>
<filter id="filter0_dd_3250_9387" x="619.361" y="948.158" width="94.7036" height="105.379" filterUnits="userSpaceOnUse" color-interpolation-filters="sRGB">
<feFlood flood-opacity="0" result="BackgroundImageFix"/>
<feColorMatrix in="SourceAlpha" type="matrix" values="0 0 0 0 0 0 0 0 0 0 0 0 0 0 0 0 0 0 127 0" result="hardAlpha"/>
<feOffset dx="3"/>
<feGaussianBlur stdDeviation="1.5"/>
<feColorMatrix type="matrix" values="0 0 0 0 0.555208 0 0 0 0 0.752283 0 0 0 0 0.8125 0 0 0 0.4 0"/>
<feBlend mode="normal" in2="BackgroundImageFix" result="effect1_dropShadow_3250_9387"/>
<feColorMatrix in="SourceAlpha" type="matrix" values="0 0 0 0 0 0 0 0 0 0 0 0 0 0 0 0 0 0 127 0" result="hardAlpha"/>
<feOffset dx="5" dy="4"/>
<feGaussianBlur stdDeviation="5"/>
<feColorMatrix type="matrix" values="0 0 0 0 0.556863 0 0 0 0 0.752941 0 0 0 0 0.811765 0 0 0 0.5 0"/>
<feBlend mode="normal" in2="effect1_dropShadow_3250_9387" result="effect2_dropShadow_3250_9387"/>
<feBlend mode="normal" in="SourceGraphic" in2="effect2_dropShadow_3250_9387" result="shape"/>
</filter>
<linearGradient id="paint0_linear_3250_9387" x1="1072.99" y1="4980.59" x2="1372.14" y2="5014.77" gradientUnits="userSpaceOnUse">
<stop stop-color="#CBEAF4"/>
<stop offset="1" stop-color="#B0E2F2"/>
</linearGradient>
<linearGradient id="paint1_linear_3250_9387" x1="1329.07" y1="4676.75" x2="1032.37" y2="4622.75" gradientUnits="userSpaceOnUse">
<stop stop-color="#CBEAF4"/>
<stop offset="1" stop-color="#B0E2F2"/>
</linearGradient>
<linearGradient id="paint2_linear_3250_9387" x1="179.25" y1="3478.54" x2="1531.52" y2="3594.17" gradientUnits="userSpaceOnUse">
<stop stop-color="#CBEAF4"/>
<stop offset="1" stop-color="#B0E2F2"/>
</linearGradient>
<linearGradient id="paint3_linear_3250_9387" x1="1079.64" y1="2061.38" x2="1378.79" y2="2095.56" gradientUnits="userSpaceOnUse">
<stop stop-color="#CBEAF4"/>
<stop offset="1" stop-color="#B0E2F2"/>
</linearGradient>
<linearGradient id="paint4_linear_3250_9387" x1="824.889" y1="1616.92" x2="650.258" y2="1323.24" gradientUnits="userSpaceOnUse">
<stop stop-color="#CBEAF4"/>
<stop offset="1" stop-color="#B0E2F2"/>
</linearGradient>
<linearGradient id="paint5_linear_3250_9387" x1="688.784" y1="1056.99" x2="1954.83" y2="884.343" gradientUnits="userSpaceOnUse">
<stop stop-color="#CBEAF4"/>
<stop offset="1" stop-color="#B0E2F2"/>
</linearGradient>
<linearGradient id="paint6_linear_3250_9387" x1="688.784" y1="1056.99" x2="1954.83" y2="884.343" gradientUnits="userSpaceOnUse">
<stop stop-color="#CBEAF4"/>
<stop offset="1" stop-color="#B0E2F2"/>
</linearGradient>
<linearGradient id="paint7_linear_3250_9387" x1="673.865" y1="1010.16" x2="673.417" y2="1012.17" gradientUnits="userSpaceOnUse">
<stop stop-color="#EDF8FE"/>
<stop offset="1" stop-color="white"/>
</linearGradient>
<radialGradient id="paint8_radial_3250_9387" cx="0" cy="0" r="1" gradientUnits="userSpaceOnUse" gradientTransform="translate(673.909 1009.9) rotate(99.0628) scale(0.607787 2.78787)">
<stop stop-color="#7CAEBE"/>
<stop offset="1" stop-color="#EAF7FE"/>
</radialGradient>
<linearGradient id="paint9_linear_3250_9387" x1="675.864" y1="998.265" x2="673.262" y2="1009.73" gradientUnits="userSpaceOnUse">
<stop stop-color="white"/>
<stop offset="1" stop-color="#EAF7FE"/>
</linearGradient>
<radialGradient id="paint10_radial_3250_9387" cx="0" cy="0" r="1" gradientUnits="userSpaceOnUse" gradientTransform="translate(674.462 1007.82) rotate(98.5457) scale(2.28323 2.96869)">
<stop stop-color="#7CAEBE"/>
<stop offset="1" stop-color="#EDF8FE"/>
</radialGradient>
<linearGradient id="paint11_linear_3250_9387" x1="680.177" y1="994.694" x2="671.944" y2="1030.63" gradientUnits="userSpaceOnUse">
<stop stop-color="#EFF9FE"/>
<stop offset="1" stop-color="#E1F4FD"/>
</linearGradient>
<linearGradient id="paint12_linear_3250_9387" x1="680.352" y1="994.477" x2="672.51" y2="1031.36" gradientUnits="userSpaceOnUse">
<stop stop-color="white"/>
<stop offset="1" stop-color="#E1F4FD"/>
</linearGradient>
<radialGradient id="paint13_radial_3250_9387" cx="0" cy="0" r="1" gradientUnits="userSpaceOnUse" gradientTransform="translate(697.954 993.898) rotate(99.5615) scale(3.35933 0.663275)">
<stop stop-color="#7CAEBE"/>
<stop offset="1" stop-color="#EAF7FE"/>
</radialGradient>
<radialGradient id="paint14_radial_3250_9387" cx="0" cy="0" r="1" gradientUnits="userSpaceOnUse" gradientTransform="translate(661.829 1007.39) rotate(99.6008) scale(18.3662 3.2854)">
<stop stop-color="#7CAEBE"/>
<stop offset="1" stop-color="#EAF7FE"/>
</radialGradient>
<linearGradient id="paint15_linear_3250_9387" x1="643.043" y1="1004.72" x2="642.594" y2="1006.74" gradientUnits="userSpaceOnUse">
<stop stop-color="#EDF8FE"/>
<stop offset="1" stop-color="white"/>
</linearGradient>
<radialGradient id="paint16_radial_3250_9387" cx="0" cy="0" r="1" gradientUnits="userSpaceOnUse" gradientTransform="translate(643.145 1004.47) rotate(99.0628) scale(0.607787 2.78787)">
<stop stop-color="#7CAEBE"/>
<stop offset="1" stop-color="#EAF7FE"/>
</radialGradient>
<linearGradient id="paint17_linear_3250_9387" x1="645.09" y1="992.846" x2="642.488" y2="1004.31" gradientUnits="userSpaceOnUse">
<stop stop-color="white"/>
<stop offset="1" stop-color="#EAF7FE"/>
</linearGradient>
<radialGradient id="paint18_radial_3250_9387" cx="0" cy="0" r="1" gradientUnits="userSpaceOnUse" gradientTransform="translate(643.374 1002.35) rotate(98.5457) scale(2.28323 2.96869)">
<stop stop-color="#7CAEBE"/>
<stop offset="1" stop-color="#EDF8FE"/>
</radialGradient>
<linearGradient id="paint19_linear_3250_9387" x1="641.956" y1="987.899" x2="633.724" y2="1023.84" gradientUnits="userSpaceOnUse">
<stop stop-color="#EFF9FE"/>
<stop offset="1" stop-color="#E1F4FD"/>
</linearGradient>
<linearGradient id="paint20_linear_3250_9387" x1="642.132" y1="987.681" x2="634.289" y2="1024.57" gradientUnits="userSpaceOnUse">
<stop stop-color="white"/>
<stop offset="1" stop-color="#E1F4FD"/>
</linearGradient>
<radialGradient id="paint21_radial_3250_9387" cx="0" cy="0" r="1" gradientUnits="userSpaceOnUse" gradientTransform="translate(655.336 1006.43) rotate(99.6008) scale(18.3662 3.2854)">
<stop stop-color="#7CAEBE"/>
<stop offset="1" stop-color="#EAF7FE"/>
</radialGradient>
<radialGradient id="paint22_radial_3250_9387" cx="0" cy="0" r="1" gradientUnits="userSpaceOnUse" gradientTransform="translate(626.393 980.952) rotate(99.5616) scale(3.3593 0.663273)">
<stop stop-color="#7CAEBE"/>
<stop offset="1" stop-color="#EAF7FE"/>
</radialGradient>
<linearGradient id="paint23_linear_3250_9387" x1="699.04" y1="988.955" x2="697.54" y2="996.274" gradientUnits="userSpaceOnUse">
<stop stop-color="#EFF9FE"/>
<stop offset="0.1998" stop-color="white"/>
<stop offset="0.4039" stop-color="white"/>
<stop offset="0.6071" stop-color="white"/>
<stop offset="0.807" stop-color="#EEF8FE"/>
<stop offset="1" stop-color="#EEF9FE"/>
</linearGradient>
<linearGradient id="paint24_linear_3250_9387" x1="627.033" y1="975.928" x2="625.534" y2="983.246" gradientUnits="userSpaceOnUse">
<stop stop-color="#EFF9FE"/>
<stop offset="0.1998" stop-color="white"/>
<stop offset="0.4039" stop-color="white"/>
<stop offset="0.6071" stop-color="white"/>
<stop offset="0.807" stop-color="#EEF8FE"/>
<stop offset="1" stop-color="#EEF9FE"/>
</linearGradient>
<linearGradient id="paint25_linear_3250_9387" x1="674.284" y1="960.796" x2="671.471" y2="976.073" gradientUnits="userSpaceOnUse">
<stop stop-color="#EFF9FE"/>
<stop offset="1" stop-color="#E1F4FD"/>
</linearGradient>
<linearGradient id="paint26_linear_3250_9387" x1="674.284" y1="960.796" x2="671.471" y2="976.073" gradientUnits="userSpaceOnUse">
<stop stop-color="#EFF9FE"/>
<stop offset="1" stop-color="#E1F4FD"/>
</linearGradient>
<radialGradient id="paint27_radial_3250_9387" cx="0" cy="0" r="1" gradientUnits="userSpaceOnUse" gradientTransform="translate(669.524 964.394) rotate(100.432) scale(4.76093 1.38375)">
<stop stop-color="#7CAEBE"/>
<stop offset="1" stop-color="#EAF7FE"/>
</radialGradient>
<linearGradient id="paint28_linear_3250_9387" x1="660.288" y1="958.46" x2="657.475" y2="973.737" gradientUnits="userSpaceOnUse">
<stop stop-color="#EFF9FE"/>
<stop offset="1" stop-color="#E1F4FD"/>
</linearGradient>
<radialGradient id="paint29_radial_3250_9387" cx="0" cy="0" r="1" gradientUnits="userSpaceOnUse" gradientTransform="translate(663.563 963.67) rotate(100.432) scale(4.76066 1.38375)">
<stop stop-color="#7CAEBE"/>
<stop offset="1" stop-color="#EAF7FE"/>
</radialGradient>
<radialGradient id="paint30_radial_3250_9387" cx="0" cy="0" r="1" gradientUnits="userSpaceOnUse" gradientTransform="translate(662.727 982.213) rotate(100.432) scale(60.5749 4.15162)">
<stop stop-color="white"/>
<stop offset="1" stop-color="#E1F4FD"/>
</radialGradient>
<radialGradient id="paint31_radial_3250_9387" cx="0" cy="0" r="1" gradientUnits="userSpaceOnUse" gradientTransform="translate(665.567 968.671) rotate(100.432) scale(11.6317 1.62697)">
<stop stop-color="#7CAEBE"/>
<stop offset="1" stop-color="#EAF7FE"/>
</radialGradient>
<linearGradient id="paint32_linear_3250_9387" x1="667.878" y1="956.094" x2="664.556" y2="974.137" gradientUnits="userSpaceOnUse">
<stop stop-color="#EFF9FE"/>
<stop offset="0.1998" stop-color="white"/>
<stop offset="0.4039" stop-color="white"/>
<stop offset="0.6071" stop-color="white"/>
<stop offset="0.807" stop-color="#EEF8FE"/>
<stop offset="1" stop-color="#EEF9FE"/>
</linearGradient>
<radialGradient id="paint33_radial_3250_9387" cx="0" cy="0" r="1" gradientUnits="userSpaceOnUse" gradientTransform="translate(653.625 1033.83) rotate(98.7086) scale(0.908504 2.02002)">
<stop stop-color="white"/>
<stop offset="0.1205" stop-color="#FBFBFB"/>
<stop offset="0.2454" stop-color="#EEEEEE"/>
<stop offset="0.3724" stop-color="#DADADA"/>
<stop offset="0.5008" stop-color="#BCBCBC"/>
<stop offset="0.6304" stop-color="#979797"/>
<stop offset="0.761" stop-color="#696969"/>
<stop offset="0.8898" stop-color="#343434"/>
<stop offset="1"/>
</radialGradient>
<radialGradient id="paint34_radial_3250_9387" cx="0" cy="0" r="1" gradientUnits="userSpaceOnUse" gradientTransform="translate(653.606 1033.96) rotate(100.432) scale(0.985981 1.99597)">
<stop stop-color="#7CAEBE"/>
<stop offset="1" stop-color="#EAF7FE"/>
</radialGradient>
<linearGradient id="paint35_linear_3250_9387" x1="651.193" y1="1031.05" x2="655.508" y2="1034.44" gradientUnits="userSpaceOnUse">
<stop stop-color="#828C93"/>
<stop offset="0.0829433" stop-color="#89939A"/>
<stop offset="0.2223" stop-color="#9DA8AE"/>
<stop offset="0.4" stop-color="#BFCAD0"/>
<stop offset="0.5113" stop-color="#D8E2E7"/>
<stop offset="0.6233" stop-color="#A8B3B9"/>
<stop offset="0.7541" stop-color="#798389"/>
<stop offset="0.865" stop-color="#586066"/>
<stop offset="0.9504" stop-color="#41474C"/>
<stop offset="1" stop-color="#373D42"/>
</linearGradient>
</defs>
</svg>
