<svg width="28" height="28" viewBox="0 0 28 28" fill="none" xmlns="http://www.w3.org/2000/svg">
<path fill-rule="evenodd" clip-rule="evenodd" d="M14 28C21.732 28 28 21.732 28 14C28 6.26801 21.732 0 14 0C6.26801 0 0 6.26801 0 14C0 21.732 6.26801 28 14 28Z" fill="url(#paint0_linear_3103_9380)"/>
<path d="M14 10.4062C12 10.4062 10.4062 12.0312 10.4062 14C10.4062 16 12 17.5938 14 17.5938C15.9688 17.5938 17.5938 16 17.5938 14C17.5938 12.0312 15.9688 10.4062 14 10.4062ZM14 16.3438C12.7188 16.3438 11.6562 15.3125 11.6562 14C11.6562 12.7188 12.6875 11.6875 14 11.6875C15.2812 11.6875 16.3125 12.7188 16.3125 14C16.3125 15.3125 15.2812 16.3438 14 16.3438ZM18.5625 10.2812C18.5625 9.8125 18.1875 9.4375 17.7188 9.4375C17.25 9.4375 16.875 9.8125 16.875 10.2812C16.875 10.75 17.25 11.125 17.7188 11.125C18.1875 11.125 18.5625 10.75 18.5625 10.2812ZM20.9375 11.125C20.875 10 20.625 9 19.8125 8.1875C19 7.375 18 7.125 16.875 7.0625C15.7188 7 12.25 7 11.0938 7.0625C9.96875 7.125 9 7.375 8.15625 8.1875C7.34375 9 7.09375 10 7.03125 11.125C6.96875 12.2812 6.96875 15.75 7.03125 16.9062C7.09375 18.0312 7.34375 19 8.15625 19.8438C9 20.6562 9.96875 20.9062 11.0938 20.9688C12.25 21.0312 15.7188 21.0312 16.875 20.9688C18 20.9062 19 20.6562 19.8125 19.8438C20.625 19 20.875 18.0312 20.9375 16.9062C21 15.75 21 12.2812 20.9375 11.125ZM19.4375 18.125C19.2188 18.75 18.7188 19.2188 18.125 19.4688C17.1875 19.8438 15 19.75 14 19.75C12.9688 19.75 10.7812 19.8438 9.875 19.4688C9.25 19.2188 8.78125 18.75 8.53125 18.125C8.15625 17.2188 8.25 15.0312 8.25 14C8.25 13 8.15625 10.8125 8.53125 9.875C8.78125 9.28125 9.25 8.8125 9.875 8.5625C10.7812 8.1875 12.9688 8.28125 14 8.28125C15 8.28125 17.1875 8.1875 18.125 8.5625C18.7188 8.78125 19.1875 9.28125 19.4375 9.875C19.8125 10.8125 19.7188 13 19.7188 14C19.7188 15.0312 19.8125 17.2188 19.4375 18.125Z" fill="white"/>
<defs>
<linearGradient id="paint0_linear_3103_9380" x1="14" y1="0" x2="14" y2="28" gradientUnits="userSpaceOnUse">
<stop stop-color="#A036B5"/>
<stop offset="1" stop-color="#F55F36"/>
</linearGradient>
</defs>
</svg>
