<svg width="1578" height="1896" viewBox="0 0 1578 1896" fill="none" xmlns="http://www.w3.org/2000/svg">
<path d="M962 321C917 430 711.5 585.999 618.5 405.999C525.5 225.999 298.048 357.167 422.001 521.998C539.877 625.998 687.748 498.001 645.499 705.997C635.772 753.884 627.998 909.997 742.998 908.997C857.998 907.997 806.998 735.997 695.998 785.997C412 913.924 415.998 1083 557.998 1113C638.733 1130.06 649.134 1078.03 693.999 1065C728.045 1055.12 802.721 1064.64 822.999 1161.5C869.999 1386 514.999 1373 557.999 1241C600.999 1109 832.998 1325.5 521.999 1425.5C313.999 1492.38 429.499 1658 552.5 1576.5C675.5 1495 746.5 1533.5 804.999 1577.5C827.737 1594.6 857.23 1621 870.5 1643.5" stroke="url(#paint0_linear_105_2951)" stroke-width="2" stroke-miterlimit="10" stroke-dasharray="8.16 8.16"/>
<circle r="5" transform="matrix(-1 8.74228e-08 8.74228e-08 1 962 321)" fill="#CAEAF4"/>
<circle r="5" transform="matrix(-1 8.74228e-08 8.74228e-08 1 645.999 706)" fill="#CAEAF4"/>
<path d="M645.998 691.001C637.715 691.001 630.999 697.717 630.999 706C630.999 714.283 637.715 720.999 645.998 720.999C654.282 720.999 660.998 714.283 660.998 706C660.998 697.717 654.282 691.001 645.998 691.001Z" fill="#CAEAF4"/>
<ellipse rx="7.49963" ry="7.49964" transform="matrix(-1 8.74228e-08 8.74227e-08 1 645.998 706)" fill="white"/>
<circle r="5" transform="matrix(-1 8.74228e-08 8.74228e-08 1 809 851)" fill="#CAEAF4"/>
<path d="M808.999 836.001C800.716 836.001 794 842.717 794 851C794 859.283 800.716 865.999 808.999 865.999C817.283 865.999 823.999 859.283 823.999 851C823.999 842.717 817.283 836.001 808.999 836.001Z" fill="#CAEAF4"/>
<ellipse rx="7.49963" ry="7.49964" transform="matrix(-1 8.74228e-08 8.74227e-08 1 808.999 851)" fill="white"/>
<circle r="5" transform="matrix(-1 8.74228e-08 8.74228e-08 1 467.999 986)" fill="#CAEAF4"/>
<path d="M467.998 971.001C459.715 971.001 452.999 977.717 452.999 986C452.999 994.283 459.715 1001 467.998 1001C476.282 1001 482.998 994.283 482.998 986C482.998 977.717 476.282 971.001 467.998 971.001Z" fill="#CAEAF4"/>
<ellipse rx="7.49963" ry="7.49964" transform="matrix(-1 8.74228e-08 8.74227e-08 1 467.998 986)" fill="white"/>
<circle r="5" transform="matrix(-1 8.74228e-08 8.74228e-08 1 812.999 1129)" fill="#CAEAF4"/>
<path d="M812.998 1114C804.715 1114 797.999 1120.72 797.999 1129C797.999 1137.28 804.715 1144 812.998 1144C821.282 1144 827.998 1137.28 827.998 1129C827.998 1120.72 821.282 1114 812.998 1114Z" fill="#CAEAF4"/>
<ellipse rx="7.49963" ry="7.49964" transform="matrix(-1 8.74228e-08 8.74227e-08 1 812.998 1129)" fill="white"/>
<circle r="5" transform="matrix(-1 8.74228e-08 8.74228e-08 1 554.999 1274)" fill="#CAEAF4"/>
<path d="M554.998 1259C546.715 1259 539.999 1265.72 539.999 1274C539.999 1282.28 546.715 1289 554.998 1289C563.282 1289 569.998 1282.28 569.998 1274C569.998 1265.72 563.282 1259 554.998 1259Z" fill="#CAEAF4"/>
<ellipse rx="7.49963" ry="7.49964" transform="matrix(-1 8.74228e-08 8.74227e-08 1 554.998 1274)" fill="white"/>
<circle r="5" transform="matrix(-1 8.74228e-08 8.74228e-08 1 553 1414)" fill="#CAEAF4"/>
<path d="M552.999 1399C544.716 1399 538 1405.72 538 1414C538 1422.28 544.716 1429 552.999 1429C561.283 1429 567.999 1422.28 567.999 1414C567.999 1405.72 561.283 1399 552.999 1399Z" fill="#CAEAF4"/>
<ellipse rx="7.49963" ry="7.49964" transform="matrix(-1 8.74228e-08 8.74227e-08 1 552.999 1414)" fill="white"/>
<circle r="5" transform="matrix(-1 8.74228e-08 8.74228e-08 1 580 1559)" fill="#CAEAF4"/>
<path d="M579.999 1544C571.716 1544 565 1550.72 565 1559C565 1567.28 571.716 1574 579.999 1574C588.283 1574 594.999 1567.28 594.999 1559C594.999 1550.72 588.283 1544 579.999 1544Z" fill="#CAEAF4"/>
<ellipse rx="7.49963" ry="7.49964" transform="matrix(-1 8.74228e-08 8.74227e-08 1 579.999 1559)" fill="white"/>
<circle r="5" transform="matrix(-1 8.74228e-08 8.74228e-08 1 870.999 1644)" fill="#CAEAF4"/>
<defs>
<linearGradient id="paint0_linear_105_2951" x1="-11.1153" y1="919.786" x2="1341.16" y2="1035.41" gradientUnits="userSpaceOnUse">
<stop stop-color="#CBEAF4"/>
<stop offset="1" stop-color="#B0E2F2"/>
</linearGradient>
</defs>
</svg>
