<svg width="45" height="25" viewBox="0 0 45 25" fill="none" xmlns="http://www.w3.org/2000/svg">
<circle r="12.5" transform="matrix(-1 0 0 1 12.5 12.5)" fill="white"/>
<ellipse rx="12.5" ry="12.5" transform="matrix(-1 0 0 1 32.5 12.5)" fill="black"/>
<path d="M20 12.5C20 19.4036 25.5964 25 32.5 25C39.4036 25 45 19.4036 45 12.5C45 5.59644 39.4036 0 32.5 0C25.5964 0 20 5.59644 20 12.5ZM42.5015 12.5C42.5015 18.0237 38.0237 22.5015 32.5 22.5015C26.9763 22.5015 22.4985 18.0237 22.4985 12.5C22.4985 6.97632 26.9763 2.49849 32.5 2.49849C38.0237 2.49849 42.5015 6.97632 42.5015 12.5Z" fill="white"/>
<path d="M18.0182 7.48224C17.4824 6.94653 16.1432 7.48224 15.3396 8.28582L14.0003 9.6251L8.4339 8.29419C8.35019 8.26907 8.24975 8.30256 8.18278 8.36115L7.11135 9.43258C7.05276 9.49117 7.02765 9.58325 7.03602 9.65858C7.05276 9.74229 7.10298 9.81762 7.17832 9.85948L11.4306 12.1949L9.26258 14.3628L7.6387 13.9192C7.62196 13.9108 7.59685 13.9108 7.57173 13.9108C7.50477 13.9108 7.42943 13.9359 7.37921 13.9862L6.57564 14.7981C6.52542 14.8567 6.49193 14.932 6.50031 15.0074C6.50868 15.0827 6.54216 15.158 6.60912 15.1999L8.7185 16.7819L10.3005 18.8913C10.3508 18.9583 10.4177 18.9917 10.5014 19.0001C10.5098 19.0001 10.5098 19.0001 10.5182 19.0001C10.5851 19.0001 10.6605 18.975 10.7107 18.9248L11.5143 18.1212C11.5812 18.0459 11.6063 17.9538 11.5812 17.8617L11.1376 16.2378L13.3056 14.0699L15.6409 18.3221C15.6744 18.3974 15.7414 18.4393 15.8167 18.456C15.8418 18.4644 15.8586 18.4644 15.8753 18.4644C15.9339 18.4644 15.9925 18.4476 16.0343 18.4142L17.1058 17.6106C17.1895 17.5436 17.2313 17.4348 17.2062 17.3344L15.8669 11.5085L17.2146 10.1608C18.0182 9.35724 18.5539 8.01796 18.0182 7.48224Z" fill="black"/>
<path d="M31.8648 19C31.7648 19 31.6748 18.965 31.5948 18.895C31.5248 18.825 31.4898 18.735 31.4898 18.625V17.575C30.7398 17.485 30.0998 17.3 29.5698 17.02C29.0498 16.73 28.6548 16.375 28.3848 15.955C28.1248 15.535 27.9848 15.09 27.9648 14.62C27.9648 14.53 27.9948 14.455 28.0548 14.395C28.1248 14.335 28.2048 14.305 28.2948 14.305H30.2898C30.4198 14.305 30.5198 14.325 30.5898 14.365C30.6598 14.405 30.7398 14.475 30.8298 14.575C31.1398 15.125 31.7098 15.4 32.5398 15.4C33.0798 15.4 33.4948 15.32 33.7848 15.16C34.0848 14.99 34.2348 14.76 34.2348 14.47C34.2348 14.26 34.1548 14.09 33.9948 13.96C33.8448 13.82 33.6048 13.7 33.2748 13.6C32.9548 13.49 32.4798 13.37 31.8498 13.24C30.6398 13 29.7348 12.635 29.1348 12.145C28.5348 11.655 28.2348 10.955 28.2348 10.045C28.2348 9.235 28.5248 8.55 29.1048 7.99C29.6848 7.42 30.4798 7.065 31.4898 6.925V5.875C31.4898 5.765 31.5248 5.675 31.5948 5.605C31.6748 5.535 31.7648 5.5 31.8648 5.5H33.1698C33.2798 5.5 33.3698 5.535 33.4398 5.605C33.5098 5.675 33.5448 5.765 33.5448 5.875V6.955C34.2048 7.075 34.7748 7.29 35.2548 7.6C35.7348 7.9 36.0998 8.25 36.3498 8.65C36.6098 9.04 36.7498 9.42 36.7698 9.79C36.7698 9.88 36.7398 9.96 36.6798 10.03C36.6198 10.09 36.5448 10.12 36.4548 10.12H34.3548C34.1248 10.12 33.9548 10.03 33.8448 9.85C33.7848 9.64 33.6248 9.465 33.3648 9.325C33.1148 9.175 32.8098 9.1 32.4498 9.1C32.0298 9.1 31.7048 9.175 31.4748 9.325C31.2448 9.475 31.1298 9.695 31.1298 9.985C31.1298 10.275 31.2798 10.505 31.5798 10.675C31.8798 10.835 32.4348 11 33.2448 11.17C34.1848 11.34 34.9348 11.555 35.4948 11.815C36.0548 12.065 36.4648 12.395 36.7248 12.805C36.9848 13.205 37.1148 13.715 37.1148 14.335C37.1148 15.215 36.7898 15.94 36.1398 16.51C35.4998 17.08 34.6348 17.435 33.5448 17.575V18.625C33.5448 18.735 33.5098 18.825 33.4398 18.895C33.3698 18.965 33.2798 19 33.1698 19H31.8648Z" fill="white"/>
</svg>
