<svg width="50" height="11" viewBox="0 0 50 11" fill="none" xmlns="http://www.w3.org/2000/svg">
<path d="M4.06279 0H6.46353L10.4571 10.4571H7.87166L7.0868 8.31025H3.39335L2.58541 10.4571H0L1.5928 6.25577H3.99354H6.46353L4.06279 0Z" fill="white"/>
<path d="M13.9434 0H16.3441L19.1834 6.48661L22.0459 0H24.4235V10.4571H22.092V5.21699L19.7605 10.4571H18.6294L16.2979 5.21699V10.4802H13.9434V0Z" fill="white"/>
<path d="M28.3936 4.20129H36.5422V6.27886H28.3936V4.20129ZM28.3936 2.23915V0H36.5422V2.23915H28.3936ZM36.5191 8.241V10.4802H28.3936V8.241" fill="white"/>
<path d="M40.6973 0H43.375L47.2993 6.23269V0H50.0001V10.4571H47.3455L43.3981 4.22438V10.4571H40.6973V0Z" fill="white"/>
</svg>
