<svg width="30" height="30" viewBox="0 0 30 30" fill="none" xmlns="http://www.w3.org/2000/svg">
<path fill-rule="evenodd" clip-rule="evenodd" d="M15 29C22.732 29 29 22.732 29 15C29 7.26801 22.732 1 15 1C7.26801 1 1 7.26801 1 15C1 22.732 7.26801 29 15 29Z" stroke="white"/>
<path fill-rule="evenodd" clip-rule="evenodd" d="M20.3528 11.3154L15.1315 16.6693C15.063 16.7401 14.9385 16.7401 14.8699 16.6708C12.5054 14.24 10.6486 12.291 9.76436 11.3154H20.3528ZM9.10537 18.2549V11.742C9.63 12.3477 10.5702 13.3454 12.2237 15.057L9.10537 18.2549ZM17.7822 15.0632L20.8946 18.2552V11.8712L17.7822 15.0632ZM15.0006 17.5111C15.2548 17.5111 15.4935 17.4094 15.6733 17.2252L17.2398 15.6189L20.5888 19.0526H9.41162L12.7635 15.6152C13.2329 16.1001 13.7524 16.6343 14.3271 17.2252C14.5069 17.4094 14.7456 17.5111 15.0006 17.5111Z" fill="white"/>
</svg>
