<?xml version="1.0" encoding="UTF-8" standalone="no" ?>
<!DOCTYPE svg PUBLIC "-//W3C//DTD SVG 1.1//EN" "http://www.w3.org/Graphics/SVG/1.1/DTD/svg11.dtd">
<svg xmlns="http://www.w3.org/2000/svg" xmlns:xlink="http://www.w3.org/1999/xlink" version="1.1" width="1400" height="2100" viewBox="0 0 1400 2100" xml:space="preserve">
<desc>Created with Fabric.js 4.2.0</desc>
<defs>
</defs>
<g transform="matrix(0 0 0 0 0 0)" id="4c0c7692-55a0-40fe-9e48-0b23cd057a69"  >
</g>
<g transform="matrix(1 0 0 1 700 1050)" id="a19fb2f6-3dd0-48b6-aa81-66d9f0f8373f"  >
<rect style="stroke: none; stroke-width: 1; stroke-dasharray: none; stroke-linecap: butt; stroke-dashoffset: 0; stroke-linejoin: miter; stroke-miterlimit: 4; fill: rgb(255,255,255); fill-rule: nonzero; opacity: 1;" vector-effect="non-scaling-stroke"  x="-700" y="-1050" rx="0" ry="0" width="1400" height="2100" />
</g>
<g transform="matrix(1 0 0 1 712.96 1054.83)"  >
<path style="stroke: rgb(0,0,0); stroke-width: 9; stroke-dasharray: none; stroke-linecap: round; stroke-dashoffset: 0; stroke-linejoin: round; stroke-miterlimit: 10; fill: none; fill-rule: nonzero; opacity: 1;" vector-effect="non-scaling-stroke"  transform=" translate(-717.46, -1059.33)" d="M 483.22541984931115 184.91166536762663 Q 483.21641984931114 184.91166536762663 481.76149649259514 184.91166536762663 Q 480.30657313587915 184.91166536762663 477.39672642244705 184.91166536762663 Q 474.48687970901494 184.91166536762663 473.03195635229895 186.36658872434265 Q 471.57703299558295 187.82151208105867 470.1221096388669 187.82151208105867 Q 468.66718628215085 187.82151208105867 465.7573395687188 189.2764354377747 Q 462.84749285528676 190.73135879449075 458.48272278513866 193.6412055079228 Q 454.11795271499057 196.55105222135487 451.2081060015585 199.46089893478694 Q 448.2982592881265 202.37074564821899 443.9334892179784 203.825669004935 Q 439.5687191478303 205.28059236165103 433.74902572096613 208.19043907508308 Q 427.929332294102 211.10028578851515 423.56456222395394 212.55520914523117 Q 419.1997921538059 214.01013250194723 414.8350220836578 215.46505585866325 Q 410.4702520135097 216.91997921537927 407.5604053000776 219.82982592881132 Q 404.6505585866455 222.7396726422434 400.2857885164974 225.64951935567547 Q 395.9210184463493 228.5593660691075 394.4660950896333 230.01428942582356 Q 393.0111717329173 231.46921278253959 390.1013250194853 234.37905949597166 Q 387.1914783060532 237.2889062094037 382.82670823590513 240.19875292283575 Q 378.46193816575703 243.1085996362678 375.55209145232493 246.01844634969987 Q 372.6422447388929 248.92829306313195 369.73239802546084 251.838139776564 Q 366.82255131202874 254.74798648999604 363.9127045985967 257.65783320342814 Q 361.00285788516464 260.5676799168602 356.63808781501655 263.47752663029223 Q 352.27331774486845 266.3873733437243 347.90854767472035 270.7521434138724 Q 343.54377760457226 275.1169134840205 340.6339308911402 278.0267601974525 Q 337.72408417770816 280.9366069108846 334.8142374642761 283.84645362431667 Q 331.9043907508441 286.7563003377487 328.99454403741197 291.1210704078968 Q 326.0846973239799 295.4858404780449 323.1748506105479 298.39568719147695 Q 320.2650038971158 301.305533904909 320.2650038971158 305.6703039750571 Q 320.2650038971158 310.0350740452052 320.2650038971158 312.94492075863724 Q 320.2650038971158 315.8547674720693 320.2650038971158 318.7646141855014 Q 320.2650038971158 321.67446089893343 320.2650038971158 326.0392309690815 Q 320.2650038971158 330.40400103922957 320.2650038971158 336.2236944660937 Q 320.2650038971158 342.04338789295787 320.2650038971158 344.9532346063899 Q 320.2650038971158 347.86308131982196 328.99454403741197 360.95739153026625 Q 337.72408417770816 374.05170174071054 343.5437776045723 379.87139516757463 Q 349.36347103143646 385.6910885944387 355.18316445830055 388.60093530787077 Q 361.00285788516464 391.5107820213028 368.2774746687448 397.33047544816696 Q 375.55209145232493 403.1501688750311 391.55624837620127 410.42478565861126 Q 407.5604053000776 417.6994024421914 414.83502208365775 419.1543257989074 Q 422.1096388672379 420.60924915562344 432.29410236425014 423.5190958690555 Q 442.4785658612624 426.4289425824876 449.75318264484247 429.33878929591964 Q 457.02779942842255 432.2486360093517 467.2122629254348 435.15848272278373 Q 477.39672642244705 438.0683294362158 483.21641984931114 438.0683294362158 Q 489.03611327617523 438.0683294362158 496.31073005975543 438.0683294362158 Q 503.5853468433356 438.0683294362158 507.95011691348367 439.5232527929318 Q 512.3148869836317 440.9781761496479 516.6796570537799 440.9781761496479 Q 521.044427123928 440.9781761496479 526.8641205507921 440.9781761496479 Q 532.6838139776562 440.9781761496479 538.5035074045204 440.9781761496479 Q 544.3232008313845 440.9781761496479 551.5978176149646 440.9781761496479 Q 558.8724343985447 440.9781761496479 574.8765913224211 440.9781761496479 Q 590.8807482462973 440.9781761496479 601.0652117433095 440.9781761496479 Q 611.2496752403217 440.9781761496479 619.9792153806179 440.9781761496479 Q 628.7087555209142 440.9781761496479 640.3481423746425 440.9781761496479 Q 651.9875292283707 440.9781761496479 665.081839438815 440.9781761496479 Q 678.1761496492592 440.9781761496479 691.2704598597035 442.43309950636393 Q 704.3647700701478 443.88802286308 718.914003637308 443.88802286308 Q 733.4632372044683 443.88802286308 746.5575474149125 443.88802286308 Q 759.6518576253568 443.88802286308 784.3855546895293 443.88802286308 Q 809.1192517537019 443.88802286308 820.7586386074302 443.88802286308 Q 832.3980254611583 443.88802286308 848.4021823850346 443.88802286308 Q 864.406339308911 443.88802286308 874.5908028059232 443.88802286308 Q 884.7752663029354 443.88802286308 893.5048064432316 443.88802286308 Q 902.2343465835278 443.88802286308 912.41881008054 443.88802286308 Q 922.6032735775522 443.88802286308 929.8778903611324 443.88802286308 Q 937.1525071447126 443.88802286308 945.8820472850086 443.88802286308 Q 954.6115874253048 443.88802286308 961.886204208885 443.88802286308 Q 969.1608209924652 443.88802286308 977.8903611327614 443.88802286308 Q 986.6199012730575 443.88802286308 1001.1691348402178 443.88802286308 Q 1015.7183684073782 443.88802286308 1022.9929851909583 443.88802286308 Q 1030.2676019745384 443.88802286308 1038.9971421148346 445.342946219796 Q 1047.7266822551308 446.79786957651197 1055.0012990387108 448.252792933228 Q 1062.275915822291 449.7077162899441 1068.0956092491551 454.07248636009217 Q 1073.915302676019 458.43725643024027 1081.1899194595994 462.80202650038837 Q 1088.4645362431795 467.16679657053646 1094.2842296700437 470.0766432839685 Q 1100.1039230969077 472.98648999740055 1104.4686931670558 480.2611067809807 Q 1108.8334632372041 487.53572356456084 1114.6531566640683 494.810340348141 Q 1120.4728500909323 502.0849571317211 1121.9277734476482 506.4497272018692 Q 1123.3826968043643 510.8144972720173 1124.8376201610804 513.7243439854494 Q 1126.2925435177963 516.6341906988814 1126.2925435177963 520.9989607690295 Q 1126.2925435177963 525.3637308391776 1124.8376201610804 528.2735775526096 Q 1123.3826968043643 531.1834242660417 1117.5630033775 535.5481943361898 Q 1111.743309950636 539.9129644063379 1104.468693167056 544.277734476486 Q 1097.194076383476 548.6425045466341 1089.9194595998956 551.5523512600662 Q 1082.6448428163155 554.4621979734982 1073.9153026760193 555.9171213302143 Q 1065.1857625357231 557.3720446869303 1056.456222395427 560.2818914003624 Q 1047.7266822551308 563.1917381137944 1031.7225253312545 563.1917381137944 Q 1015.7183684073782 563.1917381137944 1001.1691348402178 563.1917381137944 Q 986.6199012730575 563.1917381137944 967.7058976357491 566.1015848272264 Q 948.7918939984407 569.0114315406585 938.6074305014286 569.0114315406585 Q 928.4229670044164 569.0114315406585 903.6892699402438 570.4663548973745 Q 878.9555728760713 571.9212782540906 862.951415952195 574.8311249675226 Q 846.9472590283186 577.7409716809547 832.3980254611583 579.1958950376707 Q 817.848791893998 580.6508183943868 801.8446349701217 583.5606651078187 Q 785.8404780462454 586.4705118212509 766.926474408937 587.9254351779668 Q 748.0124707716286 589.380358534683 723.2787737074561 590.835281891399 Q 698.5450766432837 592.290205248115 678.1761496492593 593.745128604831 Q 657.8072226552348 595.200051961547 640.3481423746425 596.654975318263 Q 622.8890620940501 598.1098986749791 605.4299818134577 598.1098986749791 Q 587.9709015328654 598.1098986749791 567.601974538841 599.5648220316953 Q 547.2330475448165 601.0197453884113 528.3190439075081 601.0197453884113 Q 509.4050402701997 601.0197453884113 487.5811899194593 602.4746687451272 Q 465.75733956871886 603.9295921018432 448.2982592881265 606.8394388152753 Q 430.8391790075341 609.7492855287073 416.2899454403738 611.2042088854233 Q 401.7407118732135 612.6591322421393 384.2816315926211 615.5689789555714 Q 366.82255131202874 618.4788256690035 358.0930111717326 621.3886723824356 Q 349.36347103143646 624.2985190958677 343.5437776045723 628.6632891660158 Q 337.72408417770816 633.0280592361638 331.9043907508441 635.9379059495959 Q 326.0846973239799 638.8477526630279 324.6297739672639 640.302676019744 Q 323.1748506105479 641.75759937646 318.8100805403998 647.5772928033241 Q 314.4453104702517 653.3969862301882 311.53546375681964 659.2166796570523 Q 308.6256170433876 665.0363730839165 305.7157703299555 670.8560665107807 Q 302.80592361652344 676.6757599376448 301.3510002598074 685.4053000779409 Q 299.8960769030914 694.1348402182371 298.44115354637535 701.4094570018171 Q 296.9862301896593 708.6840737853973 296.9862301896593 721.7783839958416 Q 296.9862301896593 734.8726942062859 296.9862301896593 743.6022343465821 Q 296.9862301896593 752.3317744868783 301.3510002598074 758.1514679137424 Q 305.7157703299555 763.9711613406065 312.99038711353563 772.7007014809026 Q 320.2650038971158 781.4302416211988 328.99454403741197 785.7950116913469 Q 337.72408417770816 790.1597817614951 349.3634710314364 794.5245518316432 Q 361.00285788516464 798.8893219017913 366.82255131202874 800.3442452585073 Q 372.6422447388929 801.7991686152233 395.9210184463494 801.7991686152233 Q 419.1997921538059 801.7991686152233 438.1137957911142 800.3442452585073 Q 457.02779942842255 798.8893219017913 480.3065731358791 797.4343985450753 Q 503.5853468433356 795.9794751883592 541.4133541179524 794.5245518316432 Q 579.2413613925692 793.0696284749272 606.8849051701737 793.0696284749272 Q 634.5284489477783 793.0696284749272 659.2621460119508 793.0696284749272 Q 683.9958430761233 793.0696284749272 710.1844634970118 793.0696284749272 Q 736.3730839179004 793.0696284749272 759.6518576253569 793.0696284749272 Q 782.9306313328134 793.0696284749272 806.2094050402699 793.0696284749272 Q 829.4881787477264 793.0696284749272 851.3120290984668 793.0696284749272 Q 873.1358794492072 793.0696284749272 896.4146531566637 793.0696284749272 Q 919.6934268641202 793.0696284749272 935.6975837879966 793.0696284749272 Q 951.7017407118728 793.0696284749272 969.1608209924652 793.0696284749272 Q 986.6199012730575 793.0696284749272 1001.1691348402178 793.0696284749272 Q 1015.7183684073782 793.0696284749272 1030.2676019745386 793.0696284749272 Q 1044.8168355416988 793.0696284749272 1056.456222395427 794.5245518316432 Q 1068.0956092491551 795.9794751883592 1078.2800727461672 798.8893219017912 Q 1088.4645362431795 801.7991686152233 1101.5588464536238 807.6188620420874 Q 1114.653156664068 813.4385554689516 1121.9277734476482 819.2582488958157 Q 1129.2023902312285 825.0779423226797 1133.5671603013766 829.4427123928278 Q 1137.9319303715247 833.8074824629759 1142.2967004416728 841.082099246556 Q 1146.6614705118207 848.3567160301362 1152.4811639386849 857.0862561704323 Q 1158.300857365549 865.8157963107285 1161.210704078981 877.4551831644568 Q 1164.120550792413 889.0945700181851 1167.030397505845 902.1888802286294 Q 1169.9402442192772 915.2831904390737 1171.3951675759931 926.9225772928019 Q 1172.8500909327092 938.56196414653 1172.8500909327092 950.2013510002583 Q 1172.8500909327092 961.8407378539866 1171.3951675759931 970.5702779942828 Q 1169.9402442192772 979.2998181345789 1165.5754741491291 985.119511561443 Q 1161.210704078981 990.9392049883072 1151.0262405819688 998.2138217718873 Q 1140.8417770849564 1005.4884385554675 1135.0220836580925 1008.3982852688996 Q 1129.2023902312285 1011.3081319823316 1105.9236165237721 1014.2179786957636 Q 1082.6448428163155 1017.1278254091957 1060.820992465575 1018.5827487659117 Q 1038.9971421148346 1020.0376721226278 1018.6282151208102 1020.0376721226278 Q 998.2592881267857 1020.0376721226278 970.6157443491811 1020.0376721226278 Q 942.9722005715766 1020.0376721226278 921.1483502208362 1020.0376721226278 Q 899.3244998700958 1020.0376721226278 876.0457261626393 1020.0376721226278 Q 852.7669524551828 1020.0376721226278 830.9431021044423 1020.0376721226278 Q 809.1192517537019 1020.0376721226278 784.3855546895293 1020.0376721226278 Q 759.6518576253568 1020.0376721226278 737.8280072746163 1020.0376721226278 Q 716.0041569238759 1020.0376721226278 678.1761496492592 1020.0376721226278 Q 640.3481423746424 1020.0376721226278 614.1595219537539 1020.0376721226278 Q 587.9709015328654 1020.0376721226278 558.8724343985448 1020.0376721226278 Q 529.7739672642241 1020.0376721226278 506.4951935567676 1020.0376721226278 Q 483.21641984931114 1020.0376721226278 457.0277994284226 1021.4925954793438 Q 430.8391790075341 1022.9475188360598 410.47025201350965 1024.4024421927759 Q 390.1013250194852 1025.857365549492 369.73239802546084 1025.857365549492 Q 349.36347103143646 1025.857365549492 336.26916082099217 1028.767212262924 Q 323.1748506105479 1031.677058976356 308.6256170433876 1033.131982333072 Q 294.0763834762273 1034.5869056897882 286.8017666926471 1036.041829046504 Q 279.52714990906696 1037.4967524032202 273.7074564822028 1040.4065991166522 Q 267.8877630553387 1043.3164458300844 263.5229929851906 1047.6812159002325 Q 259.15822291504253 1052.0459859703806 256.2483762016105 1053.5009093270965 Q 253.33852948817844 1054.9558326838126 253.33852948817844 1059.3206027539607 Q 253.33852948817844 1063.6853728241088 253.33852948817844 1066.5952195375407 Q 253.33852948817844 1069.5050662509727 253.33852948817844 1075.324759677837 Q 253.33852948817844 1081.1444531047011 254.7934528448945 1086.9641465315653 Q 256.24837620161054 1092.7838399584293 259.1582229150426 1101.5133800987255 Q 262.06806962847463 1110.2429202390217 267.8877630553387 1116.0626136658857 Q 273.7074564822029 1121.88230709275 280.982073265783 1129.15692387633 Q 288.25669004936316 1136.43154065991 302.8059236165235 1146.6160041569224 Q 317.3551571836838 1156.8004676539347 328.99454403741197 1158.2553910106508 Q 340.6339308911402 1159.710314367367 353.72824110158444 1162.6201610807989 Q 366.82255131202874 1165.5300077942309 406.10548194336155 1168.4398545076629 Q 445.38841257469437 1171.349701221095 470.1221096388669 1171.349701221095 Q 494.85580670303943 1171.349701221095 523.95427383736 1171.349701221095 Q 553.0527409716806 1171.349701221095 576.3315146791371 1171.349701221095 Q 599.6102883865935 1171.349701221095 625.7989088074821 1171.349701221095 Q 651.9875292283707 1171.349701221095 688.3606131462714 1171.349701221095 Q 724.7336970641721 1171.349701221095 753.8321641984928 1171.349701221095 Q 782.9306313328134 1171.349701221095 807.6643283969859 1171.349701221095 Q 832.3980254611583 1171.349701221095 860.0415692387629 1171.349701221095 Q 887.6851130163675 1171.349701221095 910.963886723824 1171.349701221095 Q 934.2426604312805 1171.349701221095 956.0665107820209 1171.349701221095 Q 977.8903611327614 1171.349701221095 1002.6240581969339 1172.804624577811 Q 1027.3577552611064 1174.2595479345268 1046.2717588984146 1175.714471291243 Q 1065.1857625357231 1177.169394647959 1084.0997661730316 1181.5341647181071 Q 1103.01376981034 1185.8989347882552 1110.28838659392 1187.3538581449711 Q 1117.5630033775 1188.8087815016872 1121.9277734476482 1191.7186282151192 Q 1126.2925435177963 1194.6284749285514 1132.1122369446605 1198.9932449986995 Q 1137.9319303715247 1203.3580150688474 1145.2065471551048 1207.7227851389955 Q 1152.4811639386849 1212.0875552091436 1155.391010652117 1216.452325279292 Q 1158.300857365549 1220.81709534944 1162.665627435697 1226.636788776304 Q 1167.030397505845 1232.4564822031682 1171.3951675759931 1236.821252273316 Q 1175.7599376461415 1241.1860223434642 1177.2148610028573 1248.4606391270445 Q 1178.6697843595732 1255.7352559106246 1180.1247077162893 1261.5549493374888 Q 1181.5796310730054 1267.3746427643528 1181.5796310730054 1279.0140296180812 Q 1181.5796310730054 1290.6534164718094 1180.1247077162893 1296.4731098986736 Q 1178.6697843595732 1302.2928033255378 1171.3951675759931 1308.112496752402 Q 1164.120550792413 1313.932190179266 1161.210704078981 1316.842036892698 Q 1158.300857365549 1319.75188360613 1124.8376201610804 1332.8461938165742 Q 1091.3743829566117 1345.9405040270185 1068.0956092491551 1347.3954273837344 Q 1044.8168355416988 1348.8503507404505 1015.7183684073782 1348.8503507404505 Q 986.6199012730575 1348.8503507404505 956.0665107820209 1348.8503507404505 Q 925.5131202909843 1348.8503507404505 889.1400363730836 1348.8503507404505 Q 852.7669524551828 1348.8503507404505 794.5700181865416 1348.8503507404505 Q 736.3730839179004 1348.8503507404505 702.9098467134318 1348.8503507404505 Q 669.446609508963 1348.8503507404505 634.5284489477783 1348.8503507404505 Q 599.6102883865935 1348.8503507404505 571.9667446089891 1348.8503507404505 Q 544.3232008313845 1348.8503507404505 516.6796570537799 1348.8503507404505 Q 489.03611327617523 1348.8503507404505 470.12210963886685 1348.8503507404505 Q 451.20810600155846 1348.8503507404505 436.6588724343982 1348.8503507404505 Q 422.1096388672379 1348.8503507404505 409.0153286567936 1348.8503507404505 Q 395.9210184463493 1348.8503507404505 381.371784879189 1348.8503507404505 Q 366.82255131202874 1348.8503507404505 361.00285788516464 1350.3052740971666 Q 355.18316445830055 1351.7601974538827 349.3634710314364 1353.2151208105986 Q 343.54377760457226 1354.6700441673145 342.08885424785626 1356.1249675240306 Q 340.6339308911402 1357.5798908807467 339.17900753442416 1359.0348142374628 Q 337.72408417770816 1360.4897375941787 336.26916082099217 1361.9446609508948 Q 334.8142374642761 1363.399584307611 333.35931410756007 1366.3094310210429 Q 331.9043907508441 1369.2192777344749 330.449467394128 1370.674201091191 Q 328.99454403741197 1372.129124447907 328.99454403741197 1375.0389711613393 Q 328.99454403741197 1377.9488178747713 328.99454403741197 1379.4037412314872 Q 328.99454403741197 1380.858664588203 328.99454403741197 1385.2234346583514 Q 328.99454403741197 1389.5882047284995 328.99454403741197 1398.3177448687957 Q 328.99454403741197 1407.0472850090916 333.35931410756007 1414.3219017926717 Q 337.72408417770816 1421.596518576252 340.6339308911402 1427.416212003116 Q 343.54377760457226 1433.2359054299802 349.3634710314364 1439.0555988568444 Q 355.18316445830055 1444.8752922837086 361.00285788516464 1450.6949857105728 Q 366.82255131202874 1456.5146791374368 374.09716809560894 1462.3343725643008 Q 381.37178487918914 1468.154065991165 394.46609508963337 1473.9737594180292 Q 407.5604053000776 1479.7934528448932 413.38009872694175 1482.7032995583252 Q 419.1997921538059 1485.6131462717572 462.84749285528676 1491.4328396986214 Q 506.4951935567676 1497.2525331254856 534.1387373343722 1497.2525331254856 Q 561.7822811119768 1497.2525331254856 589.4258248895813 1497.2525331254856 Q 617.0693686671859 1497.2525331254856 641.8030657313584 1497.2525331254856 Q 666.536762795531 1497.2525331254856 694.1803065731356 1497.2525331254856 Q 721.82385035074 1497.2525331254856 749.4673941283447 1497.2525331254856 Q 777.1109379059493 1497.2525331254856 804.7544816835539 1497.2525331254856 Q 832.3980254611583 1497.2525331254856 854.2218758118988 1497.2525331254856 Q 876.0457261626392 1497.2525331254856 906.5991166536759 1497.2525331254856 Q 937.1525071447126 1497.2525331254856 953.156664068589 1497.2525331254856 Q 969.1608209924652 1497.2525331254856 985.1649779163415 1500.1623798389178 Q 1001.1691348402178 1503.0722265523498 1014.2634450506621 1504.5271499090659 Q 1027.3577552611064 1505.9820732657818 1038.9971421148346 1510.3468433359299 Q 1050.6365289685627 1514.711613406078 1059.366069108859 1517.6214601195102 Q 1068.0956092491551 1520.5313068329422 1075.3702260327354 1524.89607690309 Q 1082.6448428163155 1529.2608469732381 1089.9194595998956 1535.0805404001023 Q 1097.194076383476 1540.9002338269665 1103.01376981034 1545.2650038971146 Q 1108.8334632372041 1549.6297739672625 1114.6531566640683 1555.4494673941267 Q 1120.4728500909323 1561.269160820991 1130.6573135879444 1571.4536243180032 Q 1140.8417770849564 1581.6380878150153 1143.7516237983887 1588.9127045985956 Q 1146.6614705118207 1596.1873213821757 1149.5713172252526 1599.0971680956077 Q 1152.4811639386849 1602.0070148090397 1152.4811639386849 1604.9168615224717 Q 1152.4811639386849 1607.8267082359039 1152.4811639386849 1613.6464016627679 Q 1152.4811639386849 1619.466095089632 1152.4811639386849 1623.8308651597802 Q 1152.4811639386849 1628.1956352299283 1151.026240581969 1632.5604053000764 Q 1149.5713172252529 1636.9251753702245 1143.7516237983887 1642.7448687970887 Q 1137.9319303715247 1648.5645622239526 1130.6573135879444 1652.9293322941007 Q 1123.3826968043643 1657.2941023642488 1088.4645362431797 1673.2982592881253 Q 1053.546375681995 1689.3024162120016 1044.8168355416988 1689.3024162120016 Q 1036.0872954014023 1689.3024162120016 998.2592881267856 1689.3024162120016 Q 960.4312808521689 1689.3024162120016 932.7877370745643 1689.3024162120016 Q 905.1441932969599 1689.3024162120016 876.0457261626393 1689.3024162120016 Q 846.9472590283186 1689.3024162120016 816.3938685372821 1689.3024162120016 Q 785.8404780462454 1689.3024162120016 756.7420109119248 1689.3024162120016 Q 727.6435437776042 1689.3024162120016 699.9999999999997 1689.3024162120016 Q 672.3564562223951 1689.3024162120016 631.6186022343462 1689.3024162120016 Q 590.8807482462973 1689.3024162120016 567.601974538841 1689.3024162120016 Q 544.3232008313845 1689.3024162120016 518.1345804104959 1689.3024162120016 Q 491.94595998960733 1689.3024162120016 471.5770329955829 1689.3024162120016 Q 451.20810600155846 1689.3024162120016 438.1137957911142 1689.3024162120016 Q 425.01948558067 1689.3024162120016 409.01532865679366 1689.3024162120016 Q 393.0111717329173 1689.3024162120016 379.916861522473 1690.7573395687177 Q 366.82255131202874 1692.2122629254336 353.72824110158444 1695.1221096388658 Q 340.6339308911402 1698.0319563522978 333.35931410756007 1702.3967264224457 Q 326.0846973239799 1706.7614964925938 317.3551571836838 1712.5811899194578 Q 308.6256170433876 1718.400883346322 305.7157703299555 1724.2205767731862 Q 302.80592361652344 1730.0402702000504 298.4411535463754 1734.4050402701985 Q 294.0763834762273 1738.7698103403466 292.62146011951126 1747.4993504806425 Q 291.1665367627952 1756.2288906209387 291.1665367627952 1762.048584047803 Q 291.1665367627952 1767.8682774746671 291.1665367627952 1775.1428942582472 Q 291.1665367627952 1782.4175110418273 291.1665367627952 1788.2372044686915 Q 291.1665367627952 1794.0568978955557 296.9862301896593 1804.2413613925678 Q 302.80592361652344 1814.42582488958 310.0805404001036 1823.1553650298763 Q 317.3551571836838 1831.8849051701725 326.08469732398 1837.7045985970367 Q 334.8142374642761 1843.5242920239007 355.18316445830055 1847.8890620940488 Q 375.55209145232493 1852.2538321641969 416.28994544037374 1850.798908807481 Q 457.02779942842255 1849.3439854507649 490.4910366328913 1843.5242920239007 Q 523.95427383736 1837.7045985970365 547.2330475448165 1831.8849051701723 Q 570.511821252273 1826.0652117433083 595.2455183164454 1821.7004416731602 Q 619.979215380618 1817.3356716030123 646.1678358015065 1811.515978176148 Q 672.3564562223951 1805.696284749284 691.2704598597035 1802.786438035852 Q 710.1844634970118 1799.8765913224197 723.2787737074561 1799.8765913224197 Q 736.3730839179004 1799.8765913224197 746.5575474149126 1799.8765913224197 Q 756.7420109119248 1799.8765913224197 774.2010911925172 1799.8765913224197 Q 791.6601714731095 1799.8765913224197 803.2995583268378 1799.8765913224197 Q 814.9389451805661 1799.8765913224197 822.2135619641463 1799.8765913224197 Q 829.4881787477264 1799.8765913224197 842.5824889581706 1802.786438035852 Q 855.6767991686149 1805.696284749284 865.861262665627 1808.606131462716 Q 876.0457261626392 1811.515978176148 887.6851130163675 1815.8807482462962 Q 899.3244998700958 1820.2455183164443 909.508963367108 1821.7004416731602 Q 919.6934268641202 1823.1553650298763 926.9680436477004 1826.0652117433083 Q 934.2426604312805 1828.9750584567405 938.6074305014286 1830.4299818134564 Q 942.9722005715766 1831.8849051701725 944.4271239282928 1833.3398285268886 Q 945.8820472850088 1834.7947518836045 948.7918939984409 1837.7045985970367 Q 951.7017407118728 1840.6144453104687 954.6115874253048 1844.9792153806168 Q 957.5214341387369 1849.3439854507649 958.9763574954529 1855.163678877629 Q 960.4312808521689 1860.983372304493 961.8862042088849 1865.3481423746412 Q 963.341127565601 1869.7129124447893 964.7960509223171 1875.5326058716532 Q 966.2509742790331 1881.3522992985174 966.2509742790331 1885.7170693686655 Q 966.2509742790331 1890.0818394388136 967.7058976357491 1894.4466095089617 Q 969.1608209924652 1898.8113795791098 969.1608209924652 1900.266302935826 Q 969.1608209924652 1901.721226292542 969.1608209924652 1906.0859963626901 Q 969.1608209924652 1910.4507664328382 969.1608209924652 1913.3606131462702 Q 969.1608209924652 1916.2704598597024 969.1608209924652 1917.7253832164183 Q 969.1608209924652 1919.1803065731342 969.1608209924652 1922.0901532865664 Q 969.1608209924652 1924.9999999999984 970.6157443491812 1926.4549233567145 Q 972.0706677058972 1927.9098467134304 972.0706677058972 1929.3647700701465 Q 972.0706677058972 1930.8196934268626 972.0706677058972 1932.2746167835785 L 972.0706677058972 1933.7385401402946" stroke-linecap="round" />
</g>

<g>
<g filter="url(#filter0_d_105_1116)">
<path d="M144.266 174.611C144.266 174.88 144.266 175.238 144.266 175.641L173.547 175.641C173.547 175.238 173.547 174.88 173.547 174.656C173.547 170.761 170.368 163.328 166.786 163.328C163.204 163.328 153.757 163.328 150.982 163.328C148.206 163.328 144.266 169.462 144.266 174.611Z" fill="white"/>
<path d="M144.489 174.88C144.489 175.149 144.489 175.507 144.489 175.91L173.771 175.91C173.771 175.507 173.771 175.149 173.771 174.925C173.771 171.029 170.592 163.597 167.01 163.597C163.428 163.597 153.981 163.597 151.205 163.597C148.429 163.552 144.489 169.731 144.489 174.88Z" fill="url(#paint0_linear_105_1116)"/>
<path opacity="0.2" d="M173.95 176.671C173.95 174.594 167.395 172.91 159.31 172.91C151.224 172.91 144.669 174.594 144.669 176.671C144.669 178.748 151.224 180.432 159.31 180.432C167.395 180.432 173.95 178.748 173.95 176.671Z" fill="url(#paint1_radial_105_1116)"/>
<path d="M144.266 201.743C144.266 202.012 144.266 202.236 144.266 202.46C144.266 223.548 150.847 240.606 158.906 240.606C167.01 240.606 173.547 223.503 173.547 202.46C173.547 202.191 173.547 201.967 173.547 201.743C173.547 201.743 173.547 181.461 173.547 175.641H144.266C144.266 182.178 144.266 201.743 144.266 201.743Z" fill="white"/>
<path d="M144.624 201.743C144.624 202.012 144.624 202.236 144.624 202.46C144.624 223.548 151.206 240.606 159.265 240.606C167.369 240.606 173.905 223.503 173.905 202.46C173.905 202.191 173.905 201.967 173.905 201.743C173.905 201.743 173.905 181.461 173.905 175.641L144.624 175.641C144.624 182.178 144.624 201.743 144.624 201.743Z" fill="url(#paint2_linear_105_1116)"/>
<path opacity="0.2" d="M155.727 184.909C163.965 177.924 171.89 173.671 173.368 175.417C174.845 177.163 169.338 184.237 161.1 191.222C152.862 198.207 144.937 202.46 143.459 200.714C141.982 198.968 147.489 191.894 155.727 184.909Z" fill="url(#paint3_radial_105_1116)"/>
<path d="M228.841 250.724C228.841 205.012 228.841 181.148 228.841 97.0649C216.618 160.508 47.3331 270.648 47.3331 270.648L47.0645 306.019C47.1092 306.063 228.841 198.027 228.841 250.724Z" fill="white"/>
<path d="M230.139 250.724C230.139 205.012 230.139 181.148 230.139 97.0649C217.916 160.508 48.6309 270.648 48.6309 270.648L48.0488 305.481C48.0488 305.481 230.139 198.027 230.139 250.724Z" fill="url(#paint4_linear_105_1116)"/>
<mask id="mask0_105_1116" style="mask-type:alpha" maskUnits="userSpaceOnUse" x="48" y="97" width="183" height="209">
<path d="M230.139 250.724C230.139 205.012 230.139 181.148 230.139 97.0648C217.916 160.508 48.6309 270.648 48.6309 270.648L48.0488 305.481C48.0488 305.481 230.139 198.027 230.139 250.724Z" fill="url(#paint5_linear_105_1116)"/>
</mask>
<g mask="url(#mask0_105_1116)">
<path opacity="0.2" d="M51.8994 283.767C51.8994 273.777 50.4561 265.678 48.6758 265.678C46.8954 265.678 45.4521 273.777 45.4521 283.767C45.4521 293.756 46.8954 301.855 48.6758 301.855C50.4561 301.855 51.8994 293.756 51.8994 283.767Z" fill="url(#paint6_radial_105_1116)"/>
<path opacity="0.2" d="M240.974 178.148C240.974 123.575 233.858 79.335 225.08 79.335C216.302 79.335 209.186 123.575 209.186 178.148C209.186 232.721 216.302 276.961 225.08 276.961C233.858 276.961 240.974 232.721 240.974 178.148Z" fill="url(#paint7_radial_105_1116)"/>
</g>
<path d="M340.862 173.358C340.862 173.626 340.862 173.984 340.862 174.387H311.581C311.581 173.984 311.581 173.626 311.581 173.402C311.581 169.507 314.76 162.075 318.342 162.075C321.924 162.075 331.371 162.075 334.146 162.075C336.922 162.03 340.862 168.209 340.862 173.358Z" fill="white"/>
<path d="M340.639 173.626C340.639 173.895 340.639 174.253 340.639 174.656H311.357C311.357 174.253 311.357 173.895 311.357 173.671C311.357 169.776 314.536 162.343 318.118 162.343C321.7 162.343 331.147 162.343 333.923 162.343C336.699 162.299 340.639 168.477 340.639 173.626Z" fill="url(#paint8_linear_105_1116)"/>
<path opacity="0.2" d="M340.504 175.417C340.504 173.34 333.949 171.656 325.863 171.656C317.778 171.656 311.223 173.34 311.223 175.417C311.223 177.494 317.777 179.178 325.863 179.178C333.949 179.178 340.504 177.494 340.504 175.417Z" fill="url(#paint9_radial_105_1116)"/>
<path d="M340.862 200.445C340.862 200.713 340.862 200.937 340.862 201.161C340.862 222.249 334.325 239.307 326.222 239.307C318.118 239.307 311.581 222.204 311.581 201.161C311.581 200.893 311.581 200.669 311.581 200.445C311.581 200.445 311.581 180.163 311.581 174.342L340.862 174.342C340.862 180.879 340.862 200.445 340.862 200.445Z" fill="white"/>
<path d="M340.504 200.445C340.504 200.669 340.504 200.937 340.504 201.161C340.504 222.249 333.922 239.307 325.863 239.307C317.759 239.307 311.223 222.204 311.223 201.161C311.223 200.893 311.223 200.669 311.223 200.445C311.223 200.445 311.223 180.163 311.223 174.342L340.504 174.342C340.504 180.879 340.504 200.445 340.504 200.445Z" fill="url(#paint10_linear_105_1116)"/>
<path opacity="0.2" d="M329.401 183.611C321.162 176.626 313.238 172.373 311.76 174.119C310.283 175.865 315.79 182.939 324.028 189.924C332.266 196.908 340.191 201.161 341.668 199.415C343.146 197.669 337.639 190.595 329.401 183.611Z" fill="url(#paint11_radial_105_1116)"/>
<path d="M256.286 249.471C256.286 203.758 256.286 179.894 256.286 95.8112C268.509 159.254 437.794 269.395 437.794 269.395L438.063 304.765C438.018 304.765 256.286 196.773 256.286 249.471Z" fill="white"/>
<path d="M255.033 249.471C255.033 203.758 255.033 179.895 255.033 95.8116C267.256 159.254 436.541 269.395 436.541 269.395L437.123 304.228C437.079 304.228 255.033 196.774 255.033 249.471Z" fill="url(#paint12_linear_105_1116)"/>
<mask id="mask1_105_1116" style="mask-type:alpha" maskUnits="userSpaceOnUse" x="255" y="95" width="183" height="210">
<path d="M255.033 249.471C255.033 203.758 255.033 179.895 255.033 95.8117C267.256 159.254 436.541 269.395 436.541 269.395L437.123 304.228C437.079 304.228 255.033 196.774 255.033 249.471Z" fill="url(#paint13_linear_105_1116)"/>
</mask>
<g mask="url(#mask1_105_1116)">
<path opacity="0.2" d="M275.942 176.895C275.942 122.322 268.826 78.0817 260.048 78.0817C251.269 78.0817 244.153 122.322 244.153 176.895C244.153 231.468 251.269 275.708 260.048 275.708C268.826 275.708 275.942 231.468 275.942 176.895Z" fill="url(#paint14_radial_105_1116)"/>
<path opacity="0.2" d="M439.631 282.558C439.631 272.569 438.188 264.47 436.407 264.47C434.627 264.47 433.184 272.569 433.184 282.558C433.184 292.548 434.627 300.647 436.407 300.647C438.188 300.647 439.631 292.548 439.631 282.558Z" fill="url(#paint15_radial_105_1116)"/>
</g>
<path d="M47.4672 270.335C48.1836 270.335 48.8104 279.066 48.8104 280.946C48.8104 282.827 48.2283 310.809 47.4672 310.809C46.7508 310.809 46.124 282.871 46.124 280.946C46.124 279.066 46.7061 270.335 47.4672 270.335Z" fill="white"/>
<path d="M47.4674 270.738C48.1838 270.738 48.7658 279.379 48.7658 281.26C48.7658 283.14 48.1837 310.854 47.4673 310.854C46.751 310.854 46.169 283.14 46.169 281.26C46.169 279.379 46.751 270.738 47.4674 270.738Z" fill="url(#paint16_linear_105_1116)"/>
<path d="M437.616 269.171C436.899 269.171 436.272 277.902 436.272 279.782C436.272 281.663 436.855 309.646 437.616 309.646C438.332 309.646 438.959 281.707 438.959 279.782C438.959 277.857 438.332 269.171 437.616 269.171Z" fill="white"/>
<path d="M437.616 269.529C436.899 269.529 436.317 278.17 436.317 280.051C436.317 281.931 436.899 309.645 437.616 309.645C438.332 309.645 438.914 281.931 438.914 280.051C438.914 278.17 438.332 269.529 437.616 269.529Z" fill="url(#paint17_linear_105_1116)"/>
<path d="M242.765 433.218C235.199 428.472 188.993 445.888 165.309 450.589C165.309 436.352 165.309 436.352 165.309 436.352C165.309 436.352 241.198 379.132 242.765 367.402C242.765 433.218 242.765 367.447 242.765 433.218Z" fill="white"/>
<path d="M243.481 433.397C235.914 428.651 189.709 445.709 166.024 450.455C166.024 436.217 166.024 436.575 166.024 436.575C166.024 436.575 241.914 379.356 243.481 367.626C243.481 433.397 243.481 367.626 243.481 433.397Z" fill="url(#paint18_linear_105_1116)"/>
<mask id="mask2_105_1116" style="mask-type:alpha" maskUnits="userSpaceOnUse" x="166" y="367" width="78" height="84">
<path d="M243.481 433.397C235.914 428.651 189.709 445.709 166.024 450.455C166.024 436.217 166.024 436.575 166.024 436.575C166.024 436.575 241.914 379.356 243.481 367.626C243.481 433.397 243.481 367.626 243.481 433.397Z" fill="url(#paint19_linear_105_1116)"/>
</mask>
<g mask="url(#mask2_105_1116)">
<path opacity="0.2" d="M219.806 411.942C217.792 397.928 219.045 386.153 222.582 385.66C226.119 385.168 230.641 396.092 232.656 410.106C234.671 424.12 233.417 435.895 229.88 436.388C226.343 436.925 221.821 425.955 219.806 411.942Z" fill="url(#paint20_radial_105_1116)"/>
</g>
<path d="M242.362 431.919C249.929 427.173 296.134 444.59 319.819 449.291C319.819 435.053 319.819 435.053 319.819 435.053C319.819 435.053 243.929 377.834 242.362 366.103C242.362 431.919 242.362 366.148 242.362 431.919Z" fill="white"/>
<mask id="mask3_105_1116" style="mask-type:alpha" maskUnits="userSpaceOnUse" x="242" y="366" width="78" height="84">
<path d="M242.362 431.919C249.929 427.173 296.134 444.59 319.819 449.291C319.819 435.053 319.819 435.053 319.819 435.053C319.819 435.053 243.929 377.834 242.362 366.103C242.362 431.919 242.362 366.148 242.362 431.919Z" fill="white"/>
</mask>
<g mask="url(#mask3_105_1116)">
<path d="M241.646 432.143C249.213 427.397 295.418 444.456 319.103 449.202C319.103 434.964 319.103 435.322 319.103 435.322C319.103 435.322 243.214 378.103 241.646 366.372C241.646 432.143 241.646 366.372 241.646 432.143Z" fill="url(#paint21_linear_105_1116)"/>
<path opacity="0.2" d="M264.614 409.98C266.629 395.967 265.375 384.191 261.838 383.699C258.301 383.206 253.779 394.131 251.764 408.145C249.75 422.159 251.003 433.934 254.54 434.426C258.077 434.919 262.599 423.994 264.614 409.98Z" fill="url(#paint22_radial_105_1116)"/>
</g>
<path d="M221.274 63.5302C221.274 63.5302 221.274 237.517 221.274 346.851C221.274 456.186 241.512 446.784 241.512 446.784C241.512 446.784 261.749 456.186 261.749 346.851C261.749 237.517 261.749 63.5302 261.749 63.5302C261.749 63.5302 257.316 0.938125 241.512 0.938125C225.707 0.938125 221.274 63.5302 221.274 63.5302Z" fill="white"/>
<path d="M222.528 63.5304C222.528 63.5304 222.528 237.517 222.528 346.851C222.528 456.186 242.766 446.784 242.766 446.784C242.766 446.784 263.003 456.186 263.003 346.851C263.003 237.517 263.003 63.5304 263.003 63.5304C263.003 63.5304 258.57 0.938323 242.766 0.938323C226.961 0.938323 222.528 63.5304 222.528 63.5304Z" fill="url(#paint23_radial_105_1116)"/>
<path opacity="0.2" d="M251.54 384.773C251.54 350.526 247.651 322.763 242.854 322.763C238.057 322.763 234.168 350.526 234.168 384.773C234.168 419.021 238.057 446.783 242.854 446.783C247.651 446.783 251.54 419.021 251.54 384.773Z" fill="url(#paint24_radial_105_1116)"/>
<path d="M242.765 354.149C244.78 354.149 246.392 375.416 246.392 380.072C246.392 384.729 244.78 452.962 242.765 452.962C240.75 452.962 239.139 384.729 239.139 380.072C239.139 375.416 240.75 354.149 242.765 354.149Z" fill="white"/>
<path d="M242.854 355.134C244.824 355.134 246.391 376.222 246.391 380.789C246.391 385.401 244.824 452.918 242.854 452.918C240.884 452.918 239.317 385.356 239.317 380.789C239.362 376.222 240.929 355.134 242.854 355.134Z" fill="url(#paint25_linear_105_1116)"/>
<mask id="mask4_105_1116" style="mask-type:alpha" maskUnits="userSpaceOnUse" x="231" y="25" width="23" height="12">
<g opacity="0.5">
<path d="M242.765 25.6525C249.571 25.6525 253.198 31.1595 253.198 34.1593C253.198 37.1591 248.631 35.9054 242.766 35.9054C236.856 35.9054 231.886 37.0695 231.886 34.0697C231.886 31.07 235.512 25.6972 242.765 25.6525Z" fill="url(#paint26_radial_105_1116)"/>
</g>
</mask>
<g mask="url(#mask4_105_1116)">
<path opacity="0.5" d="M242.765 25.6525C249.571 25.6525 253.198 31.1595 253.198 34.1593C253.198 37.1591 248.631 35.9054 242.765 35.9054C236.856 35.9054 231.886 37.0695 231.886 34.0698C231.886 31.07 235.512 25.6973 242.765 25.6525Z" fill="url(#paint27_radial_105_1116)"/>
<path opacity="0.5" d="M231.259 39.2634V34.0059C231.259 34.0059 241.549 21.6581 254.093 34.0059C254.093 39.2634 254.093 39.2634 254.093 39.2634C254.093 39.2634 241.402 32.0284 231.259 39.2634Z" fill="white"/>
<path opacity="0.5" d="M231.259 39.2634V34.0059C231.259 34.0059 241.549 21.6581 254.093 34.0059C254.093 39.2634 254.093 39.2634 254.093 39.2634C254.093 39.2634 241.353 32.0284 231.259 39.2634Z" fill="url(#paint28_linear_105_1116)"/>
</g>
</g>
<defs>
<filter id="filter0_d_105_1116" x="14.124" y="0.93811" width="452.835" height="539.024" filterUnits="userSpaceOnUse" color-interpolation-filters="sRGB">
<feFlood flood-opacity="0" result="BackgroundImageFix"/>
<feColorMatrix in="SourceAlpha" type="matrix" values="0 0 0 0 0 0 0 0 0 0 0 0 0 0 0 0 0 0 127 0" result="hardAlpha"/>
<feOffset dx="-2" dy="57"/>
<feGaussianBlur stdDeviation="15"/>
<feColorMatrix type="matrix" values="0 0 0 0 0.555208 0 0 0 0 0.752283 0 0 0 0 0.8125 0 0 0 0.3 0"/>
<feBlend mode="normal" in2="BackgroundImageFix" result="effect1_dropShadow_105_1116"/>
<feBlend mode="normal" in="SourceGraphic" in2="effect1_dropShadow_105_1116" result="shape"/>
</filter>
<linearGradient id="paint0_linear_105_1116" x1="159.131" y1="175.905" x2="159.131" y2="163.573" gradientUnits="userSpaceOnUse">
<stop stop-color="#EDF8FE"/>
<stop offset="1" stop-color="white"/>
</linearGradient>
<radialGradient id="paint1_radial_105_1116" cx="0" cy="0" r="1" gradientUnits="userSpaceOnUse" gradientTransform="translate(159.311 176.671) rotate(-89.9999) scale(3.76131 14.6215)">
<stop stop-color="#7CAEBE"/>
<stop offset="1" stop-color="#EAF7FE"/>
</radialGradient>
<linearGradient id="paint2_linear_105_1116" x1="159.29" y1="240.624" x2="159.29" y2="175.641" gradientUnits="userSpaceOnUse">
<stop stop-color="white"/>
<stop offset="1" stop-color="#EAF7FE"/>
</linearGradient>
<radialGradient id="paint3_radial_105_1116" cx="0" cy="0" r="1" gradientUnits="userSpaceOnUse" gradientTransform="translate(158.414 188.067) rotate(-90) scale(13.0416 15.1739)">
<stop stop-color="#7CAEBE"/>
<stop offset="1" stop-color="#EDF8FE"/>
</radialGradient>
<linearGradient id="paint4_linear_105_1116" x1="139.082" y1="265.962" x2="139.082" y2="57.5348" gradientUnits="userSpaceOnUse">
<stop stop-color="#EFF9FE"/>
<stop offset="1" stop-color="#E1F4FD"/>
</linearGradient>
<linearGradient id="paint5_linear_105_1116" x1="139.082" y1="265.962" x2="139.082" y2="57.5347" gradientUnits="userSpaceOnUse">
<stop stop-color="#EFF9FE"/>
<stop offset="1" stop-color="#E1F4FD"/>
</linearGradient>
<radialGradient id="paint6_radial_105_1116" cx="0" cy="0" r="1" gradientUnits="userSpaceOnUse" gradientTransform="translate(48.676 283.769) rotate(-90) scale(18.0901 3.21942)">
<stop stop-color="#7CAEBE"/>
<stop offset="1" stop-color="#EAF7FE"/>
</radialGradient>
<radialGradient id="paint7_radial_105_1116" cx="0" cy="0" r="1" gradientUnits="userSpaceOnUse" gradientTransform="translate(225.081 178.159) rotate(-90) scale(98.824 15.8735)">
<stop stop-color="#7CAEBE"/>
<stop offset="1" stop-color="#EAF7FE"/>
</radialGradient>
<linearGradient id="paint8_linear_105_1116" x1="325.999" y1="174.651" x2="325.999" y2="162.319" gradientUnits="userSpaceOnUse">
<stop stop-color="#EDF8FE"/>
<stop offset="1" stop-color="white"/>
</linearGradient>
<radialGradient id="paint9_radial_105_1116" cx="0" cy="0" r="1" gradientUnits="userSpaceOnUse" gradientTransform="translate(325.864 175.417) rotate(-90) scale(3.76131 14.6215)">
<stop stop-color="#7CAEBE"/>
<stop offset="1" stop-color="#EAF7FE"/>
</radialGradient>
<linearGradient id="paint10_linear_105_1116" x1="325.888" y1="239.325" x2="325.888" y2="174.342" gradientUnits="userSpaceOnUse">
<stop stop-color="white"/>
<stop offset="1" stop-color="#EAF7FE"/>
</linearGradient>
<radialGradient id="paint11_radial_105_1116" cx="0" cy="0" r="1" gradientUnits="userSpaceOnUse" gradientTransform="translate(326.715 186.768) rotate(-90) scale(13.0416 15.1739)">
<stop stop-color="#7CAEBE"/>
<stop offset="1" stop-color="#EDF8FE"/>
</radialGradient>
<linearGradient id="paint12_linear_105_1116" x1="346.055" y1="264.698" x2="346.055" y2="56.2697" gradientUnits="userSpaceOnUse">
<stop stop-color="#EFF9FE"/>
<stop offset="1" stop-color="#E1F4FD"/>
</linearGradient>
<linearGradient id="paint13_linear_105_1116" x1="346.055" y1="264.698" x2="346.055" y2="56.2698" gradientUnits="userSpaceOnUse">
<stop stop-color="#EFF9FE"/>
<stop offset="1" stop-color="#E1F4FD"/>
</linearGradient>
<radialGradient id="paint14_radial_105_1116" cx="0" cy="0" r="1" gradientUnits="userSpaceOnUse" gradientTransform="translate(260.049 176.906) rotate(-90) scale(98.824 15.8735)">
<stop stop-color="#7CAEBE"/>
<stop offset="1" stop-color="#EAF7FE"/>
</radialGradient>
<radialGradient id="paint15_radial_105_1116" cx="0" cy="0" r="1" gradientUnits="userSpaceOnUse" gradientTransform="translate(436.407 282.56) rotate(-90) scale(18.0901 3.21943)">
<stop stop-color="#7CAEBE"/>
<stop offset="1" stop-color="#EAF7FE"/>
</radialGradient>
<linearGradient id="paint16_linear_105_1116" x1="47.4753" y1="310.872" x2="47.4753" y2="270.742" gradientUnits="userSpaceOnUse">
<stop stop-color="#EFF9FE"/>
<stop offset="0.1998" stop-color="white"/>
<stop offset="0.4039" stop-color="white"/>
<stop offset="0.6071" stop-color="white"/>
<stop offset="0.807" stop-color="#EEF8FE"/>
<stop offset="1" stop-color="#EEF9FE"/>
</linearGradient>
<linearGradient id="paint17_linear_105_1116" x1="437.624" y1="309.663" x2="437.624" y2="269.533" gradientUnits="userSpaceOnUse">
<stop stop-color="#EFF9FE"/>
<stop offset="0.1998" stop-color="white"/>
<stop offset="0.4039" stop-color="white"/>
<stop offset="0.6071" stop-color="white"/>
<stop offset="0.807" stop-color="#EEF8FE"/>
<stop offset="1" stop-color="#EEF9FE"/>
</linearGradient>
<linearGradient id="paint18_linear_105_1116" x1="204.745" y1="434.49" x2="204.745" y2="351.668" gradientUnits="userSpaceOnUse">
<stop stop-color="#EFF9FE"/>
<stop offset="1" stop-color="#E1F4FD"/>
</linearGradient>
<linearGradient id="paint19_linear_105_1116" x1="204.745" y1="434.49" x2="204.745" y2="351.668" gradientUnits="userSpaceOnUse">
<stop stop-color="#EFF9FE"/>
<stop offset="1" stop-color="#E1F4FD"/>
</linearGradient>
<radialGradient id="paint20_radial_105_1116" cx="0" cy="0" r="1" gradientUnits="userSpaceOnUse" gradientTransform="translate(226.232 411.028) rotate(-90) scale(25.3839 7.37777)">
<stop stop-color="#7CAEBE"/>
<stop offset="1" stop-color="#EAF7FE"/>
</radialGradient>
<linearGradient id="paint21_linear_105_1116" x1="280.392" y1="433.225" x2="280.392" y2="350.403" gradientUnits="userSpaceOnUse">
<stop stop-color="#EFF9FE"/>
<stop offset="1" stop-color="#E1F4FD"/>
</linearGradient>
<radialGradient id="paint22_radial_105_1116" cx="0" cy="0" r="1" gradientUnits="userSpaceOnUse" gradientTransform="translate(258.19 409.065) rotate(-90) scale(25.3825 7.37777)">
<stop stop-color="#7CAEBE"/>
<stop offset="1" stop-color="#EAF7FE"/>
</radialGradient>
<radialGradient id="paint23_radial_105_1116" cx="0" cy="0" r="1" gradientUnits="userSpaceOnUse" gradientTransform="translate(244.669 311.03) rotate(-90) scale(322.968 22.1353)">
<stop stop-color="#EFF9FE"/>
<stop offset="1" stop-color="#E1F4FD"/>
</radialGradient>
<radialGradient id="paint24_radial_105_1116" cx="0" cy="0" r="1" gradientUnits="userSpaceOnUse" gradientTransform="translate(242.854 384.78) rotate(-90) scale(62.0169 8.67454)">
<stop stop-color="#7CAEBE"/>
<stop offset="1" stop-color="#EAF7FE"/>
</radialGradient>
<linearGradient id="paint25_linear_105_1116" x1="242.876" y1="452.961" x2="242.876" y2="355.145" gradientUnits="userSpaceOnUse">
<stop stop-color="#EFF9FE"/>
<stop offset="0.1998" stop-color="white"/>
<stop offset="0.4039" stop-color="white"/>
<stop offset="0.6071" stop-color="white"/>
<stop offset="0.807" stop-color="#EEF8FE"/>
<stop offset="1" stop-color="#EEF9FE"/>
</linearGradient>
<radialGradient id="paint26_radial_105_1116" cx="0" cy="0" r="1" gradientUnits="userSpaceOnUse" gradientTransform="translate(242.543 31.65) rotate(-90.0001) scale(5.35985 10.4784)">
<stop stop-color="white"/>
<stop offset="0.1205" stop-color="#FBFBFB"/>
<stop offset="0.2454" stop-color="#EEEEEE"/>
<stop offset="0.3724" stop-color="#DADADA"/>
<stop offset="0.5008" stop-color="#BCBCBC"/>
<stop offset="0.6304" stop-color="#979797"/>
<stop offset="0.761" stop-color="#696969"/>
<stop offset="0.8898" stop-color="#343434"/>
<stop offset="1"/>
</radialGradient>
<radialGradient id="paint27_radial_105_1116" cx="0" cy="0" r="1" gradientUnits="userSpaceOnUse" gradientTransform="translate(242.542 30.9095) rotate(-90) scale(5.25697 10.642)">
<stop stop-color="#7CAEBE"/>
<stop offset="1" stop-color="#EAF7FE"/>
</radialGradient>
<linearGradient id="paint28_linear_105_1116" x1="258.002" y1="43.8349" x2="232.107" y2="30.2159" gradientUnits="userSpaceOnUse">
<stop stop-color="#828C93"/>
<stop offset="0.0829433" stop-color="#89939A"/>
<stop offset="0.2223" stop-color="#9DA8AE"/>
<stop offset="0.4" stop-color="#BFCAD0"/>
<stop offset="0.5113" stop-color="#D8E2E7"/>
<stop offset="0.6233" stop-color="#A8B3B9"/>
<stop offset="0.7541" stop-color="#798389"/>
<stop offset="0.865" stop-color="#586066"/>
<stop offset="0.9504" stop-color="#41474C"/>
<stop offset="1" stop-color="#373D42"/>
</linearGradient>
</defs>
</g>
</svg>