<svg width="1704" height="947" viewBox="0 0 1704 947" fill="none" xmlns="http://www.w3.org/2000/svg" id="lines">
<g class='first-slide'>
    <path d="M1665.3 404.655C1665.3 404.655 1663.59 405.762 1660.03 407.553" stroke="#BCE2EE" stroke-width="2" stroke-miterlimit="10"/>
    <path d="M1583.96 320.712C1442.09 169.319 1451.23 440.527 1363.06 341.368C1217.32 193.411 1303.29 79.2629 1359.83 151.476C1416.37 223.689 1141.98 450.786 953.728 310.984C765.47 171.182 753.962 21.0861 498.166 131.273C428.374 161.391 374.783 202.166 335.5 247.099M231.089 947C-15.6299 693.815 223.025 428.822 349.508 458.512C494.322 492.486 418.746 640.18 309.41 584.951C248.424 554.146 229.295 453.196 271.66 349.5" stroke="url(#paint0_linear_105_1109)" stroke-width="2" stroke-miterlimit="10" stroke-dasharray="8.16 8.16"/>
    <circle cx="1584" cy="321" r="5" fill="#B0E2F2"/>
    <circle r="5" transform="matrix(-1 9.71197e-08 7.9892e-08 1 1584 321)" fill="#B0E2F2"/>
    <defs>
    <linearGradient id="paint0_linear_105_1109" x1="157.485" y1="726.023" x2="1423.53" y2="553.379" gradientUnits="userSpaceOnUse">
    <stop stop-color="#CBEAF4"/>
    <stop offset="1" stop-color="#B0E2F2"/>
    </linearGradient>
    </defs>
</g>
<g class='second-slide'>
    <path d="M183.5 33.5C255.563 100.921 234.166 184.132 192.757 253.851C90.797 424.973 -21.7936 327.083 22.6398 255.537C57.3015 200.128 195.169 204.248 290.069 281" stroke="url(#paint0_linear_105_3147)" stroke-width="2" stroke-miterlimit="10" stroke-dasharray="8.16 8.16"/>
    <circle r="5" transform="matrix(-1 5.65607e-08 8.22737e-08 1 290 281)" fill="#CAEAF4"/>
    <defs>
    <linearGradient id="paint0_linear_105_3147" x1="246.056" y1="372.266" x2="71.4244" y2="78.5835" gradientUnits="userSpaceOnUse">
    <stop stop-color="#CBEAF4"/>
    <stop offset="1" stop-color="#B0E2F2"/>
    </linearGradient>
    </defs>
</g>
<g class='third-slide'>
    <path d="M146.456 77.6463C429.847 89.0165 425.616 310.258 305.74 341.969C185.864 373.68 176.836 244.884 294.151 242.181C442.869 238.713 589.171 441.344 175.243 696.5" stroke="url(#paint0_linear_105_3201)" stroke-width="2" stroke-miterlimit="10" stroke-dasharray="8.16 8.16"/>
    <circle r="5" transform="matrix(-1 1.00354e-07 1.01142e-07 1 146 77.0007)" fill="#CAEAF4"/>
    <circle r="5" transform="matrix(-1 1.00354e-07 1.01142e-07 1 175 696.001)" fill="#CAEAF4"/>
    <defs>
    <linearGradient id="paint0_linear_105_3201" x1="466.378" y1="523.967" x2="21.1308" y2="444.272" gradientUnits="userSpaceOnUse">
    <stop stop-color="#CBEAF4"/>
    <stop offset="1" stop-color="#B0E2F2"/>
    </linearGradient>
    </defs>
</g>
<g class='fourth-slide'>
    <path d="M226.601 11.9991C38.8239 144.543 107.152 352.77 251.473 317.971C396.974 282.905 328.605 167.857 218.54 223.882C161.779 252.774 130.791 339.999 152.342 410.999" stroke="url(#paint0_linear_105_3259)" stroke-width="2" stroke-miterlimit="10" stroke-dasharray="8.16 8.16"/>
    <circle r="5" transform="matrix(-1 7.2676e-08 8.01819e-08 1 152 411)" fill="#CAEAF4"/>
    <circle r="5" transform="matrix(-1 7.2676e-08 8.01819e-08 1 225.999 13)" fill="#CAEAF4"/>
    <defs>
    <linearGradient id="paint0_linear_105_3259" x1="37.3241" y1="166.335" x2="336.471" y2="200.52" gradientUnits="userSpaceOnUse">
    <stop stop-color="#CBEAF4"/>
    <stop offset="1" stop-color="#B0E2F2"/>
    </linearGradient>
    </defs>
</g>
<g class='fifth-slide'>
    <path d="M962 321C917 430 711.5 585.999 618.5 405.999C525.5 225.999 298.048 357.167 422.001 521.998C539.877 625.998 687.748 498.001 645.499 705.997C635.772 753.884 627.998 909.997 742.998 908.997C857.998 907.997 806.998 735.997 695.998 785.997C412 913.924 415.998 1083 557.998 1113C638.733 1130.06 649.134 1078.03 693.999 1065C728.045 1055.12 802.721 1064.64 822.999 1161.5C869.999 1386 514.999 1373 557.999 1241C600.999 1109 832.998 1325.5 521.999 1425.5C313.999 1492.38 429.499 1658 552.5 1576.5C675.5 1495 746.5 1533.5 804.999 1577.5C827.737 1594.6 857.23 1621 870.5 1643.5" stroke="url(#paint0_linear_105_2951)" stroke-width="2" stroke-miterlimit="10" stroke-dasharray="8.16 8.16"/>
    <circle r="5" transform="matrix(-1 8.74228e-08 8.74228e-08 1 962 321)" fill="#CAEAF4"/>
    <circle r="5" transform="matrix(-1 8.74228e-08 8.74228e-08 1 645.999 706)" fill="#CAEAF4"/>
    <path d="M645.998 691.001C637.715 691.001 630.999 697.717 630.999 706C630.999 714.283 637.715 720.999 645.998 720.999C654.282 720.999 660.998 714.283 660.998 706C660.998 697.717 654.282 691.001 645.998 691.001Z" fill="#CAEAF4"/>
    <ellipse rx="7.49963" ry="7.49964" transform="matrix(-1 8.74228e-08 8.74227e-08 1 645.998 706)" fill="white"/>
    <circle r="5" transform="matrix(-1 8.74228e-08 8.74228e-08 1 809 851)" fill="#CAEAF4"/>
    <path d="M808.999 836.001C800.716 836.001 794 842.717 794 851C794 859.283 800.716 865.999 808.999 865.999C817.283 865.999 823.999 859.283 823.999 851C823.999 842.717 817.283 836.001 808.999 836.001Z" fill="#CAEAF4"/>
    <ellipse rx="7.49963" ry="7.49964" transform="matrix(-1 8.74228e-08 8.74227e-08 1 808.999 851)" fill="white"/>
    <circle r="5" transform="matrix(-1 8.74228e-08 8.74228e-08 1 467.999 986)" fill="#CAEAF4"/>
    <path d="M467.998 971.001C459.715 971.001 452.999 977.717 452.999 986C452.999 994.283 459.715 1001 467.998 1001C476.282 1001 482.998 994.283 482.998 986C482.998 977.717 476.282 971.001 467.998 971.001Z" fill="#CAEAF4"/>
    <ellipse rx="7.49963" ry="7.49964" transform="matrix(-1 8.74228e-08 8.74227e-08 1 467.998 986)" fill="white"/>
    <circle r="5" transform="matrix(-1 8.74228e-08 8.74228e-08 1 812.999 1129)" fill="#CAEAF4"/>
    <path d="M812.998 1114C804.715 1114 797.999 1120.72 797.999 1129C797.999 1137.28 804.715 1144 812.998 1144C821.282 1144 827.998 1137.28 827.998 1129C827.998 1120.72 821.282 1114 812.998 1114Z" fill="#CAEAF4"/>
    <ellipse rx="7.49963" ry="7.49964" transform="matrix(-1 8.74228e-08 8.74227e-08 1 812.998 1129)" fill="white"/>
    <circle r="5" transform="matrix(-1 8.74228e-08 8.74228e-08 1 554.999 1274)" fill="#CAEAF4"/>
    <path d="M554.998 1259C546.715 1259 539.999 1265.72 539.999 1274C539.999 1282.28 546.715 1289 554.998 1289C563.282 1289 569.998 1282.28 569.998 1274C569.998 1265.72 563.282 1259 554.998 1259Z" fill="#CAEAF4"/>
    <ellipse rx="7.49963" ry="7.49964" transform="matrix(-1 8.74228e-08 8.74227e-08 1 554.998 1274)" fill="white"/>
    <circle r="5" transform="matrix(-1 8.74228e-08 8.74228e-08 1 553 1414)" fill="#CAEAF4"/>
    <path d="M552.999 1399C544.716 1399 538 1405.72 538 1414C538 1422.28 544.716 1429 552.999 1429C561.283 1429 567.999 1422.28 567.999 1414C567.999 1405.72 561.283 1399 552.999 1399Z" fill="#CAEAF4"/>
    <ellipse rx="7.49963" ry="7.49964" transform="matrix(-1 8.74228e-08 8.74227e-08 1 552.999 1414)" fill="white"/>
    <circle r="5" transform="matrix(-1 8.74228e-08 8.74228e-08 1 580 1559)" fill="#CAEAF4"/>
    <path d="M579.999 1544C571.716 1544 565 1550.72 565 1559C565 1567.28 571.716 1574 579.999 1574C588.283 1574 594.999 1567.28 594.999 1559C594.999 1550.72 588.283 1544 579.999 1544Z" fill="#CAEAF4"/>
    <ellipse rx="7.49963" ry="7.49964" transform="matrix(-1 8.74228e-08 8.74227e-08 1 579.999 1559)" fill="white"/>
    <circle r="5" transform="matrix(-1 8.74228e-08 8.74228e-08 1 870.999 1644)" fill="#CAEAF4"/>
    <defs>
    <linearGradient id="paint0_linear_105_2951" x1="-11.1153" y1="919.786" x2="1341.16" y2="1035.41" gradientUnits="userSpaceOnUse">
    <stop stop-color="#CBEAF4"/>
    <stop offset="1" stop-color="#B0E2F2"/>
    </linearGradient>
    </defs>
</g>
<g class='sixth-slide'>
    <path d="M217.088 14.3079C340.576 195.98 190.282 359.613 88.5479 293.137C-3.78099 236.948 93.557 115.248 174.409 201.405C216.105 245.836 241.148 302.789 211.013 376.199" stroke="url(#paint0_linear_174_9880)" stroke-width="2" stroke-miterlimit="10" stroke-dasharray="8.16 8.16"/>
    <circle r="5" transform="matrix(-1 9.51775e-08 8.29224e-08 1 211.001 377.308)" fill="#CAEAF4"/>
    <circle r="5" transform="matrix(-1 9.51775e-08 8.29224e-08 1 217 14.3081)" fill="#CAEAF4"/>
    <defs>
    <linearGradient id="paint0_linear_174_9880" x1="351.216" y1="231.27" x2="54.5069" y2="177.274" gradientUnits="userSpaceOnUse">
    <stop stop-color="#CBEAF4"/>
    <stop offset="1" stop-color="#B0E2F2"/>
    </linearGradient>
    </defs>
</g>

<g class='plane'>
    <g filter="url(#filter0_d_105_1116)">
    <path d="M144.266 174.611C144.266 174.88 144.266 175.238 144.266 175.641L173.547 175.641C173.547 175.238 173.547 174.88 173.547 174.656C173.547 170.761 170.368 163.328 166.786 163.328C163.204 163.328 153.757 163.328 150.982 163.328C148.206 163.328 144.266 169.462 144.266 174.611Z" fill="white"/>
    <path d="M144.489 174.88C144.489 175.149 144.489 175.507 144.489 175.91L173.771 175.91C173.771 175.507 173.771 175.149 173.771 174.925C173.771 171.029 170.592 163.597 167.01 163.597C163.428 163.597 153.981 163.597 151.205 163.597C148.429 163.552 144.489 169.731 144.489 174.88Z" fill="url(#paint0_linear_105_1116)"/>
    <path opacity="0.2" d="M173.95 176.671C173.95 174.594 167.395 172.91 159.31 172.91C151.224 172.91 144.669 174.594 144.669 176.671C144.669 178.748 151.224 180.432 159.31 180.432C167.395 180.432 173.95 178.748 173.95 176.671Z" fill="url(#paint1_radial_105_1116)"/>
    <path d="M144.266 201.743C144.266 202.012 144.266 202.236 144.266 202.46C144.266 223.548 150.847 240.606 158.906 240.606C167.01 240.606 173.547 223.503 173.547 202.46C173.547 202.191 173.547 201.967 173.547 201.743C173.547 201.743 173.547 181.461 173.547 175.641H144.266C144.266 182.178 144.266 201.743 144.266 201.743Z" fill="white"/>
    <path d="M144.624 201.743C144.624 202.012 144.624 202.236 144.624 202.46C144.624 223.548 151.206 240.606 159.265 240.606C167.369 240.606 173.905 223.503 173.905 202.46C173.905 202.191 173.905 201.967 173.905 201.743C173.905 201.743 173.905 181.461 173.905 175.641L144.624 175.641C144.624 182.178 144.624 201.743 144.624 201.743Z" fill="url(#paint2_linear_105_1116)"/>
    <path opacity="0.2" d="M155.727 184.909C163.965 177.924 171.89 173.671 173.368 175.417C174.845 177.163 169.338 184.237 161.1 191.222C152.862 198.207 144.937 202.46 143.459 200.714C141.982 198.968 147.489 191.894 155.727 184.909Z" fill="url(#paint3_radial_105_1116)"/>
    <path d="M228.841 250.724C228.841 205.012 228.841 181.148 228.841 97.0649C216.618 160.508 47.3331 270.648 47.3331 270.648L47.0645 306.019C47.1092 306.063 228.841 198.027 228.841 250.724Z" fill="white"/>
    <path d="M230.139 250.724C230.139 205.012 230.139 181.148 230.139 97.0649C217.916 160.508 48.6309 270.648 48.6309 270.648L48.0488 305.481C48.0488 305.481 230.139 198.027 230.139 250.724Z" fill="url(#paint4_linear_105_1116)"/>
    <mask id="mask0_105_1116" style="mask-type:alpha" maskUnits="userSpaceOnUse" x="48" y="97" width="183" height="209">
    <path d="M230.139 250.724C230.139 205.012 230.139 181.148 230.139 97.0648C217.916 160.508 48.6309 270.648 48.6309 270.648L48.0488 305.481C48.0488 305.481 230.139 198.027 230.139 250.724Z" fill="url(#paint5_linear_105_1116)"/>
    </mask>
    <g mask="url(#mask0_105_1116)">
    <path opacity="0.2" d="M51.8994 283.767C51.8994 273.777 50.4561 265.678 48.6758 265.678C46.8954 265.678 45.4521 273.777 45.4521 283.767C45.4521 293.756 46.8954 301.855 48.6758 301.855C50.4561 301.855 51.8994 293.756 51.8994 283.767Z" fill="url(#paint6_radial_105_1116)"/>
    <path opacity="0.2" d="M240.974 178.148C240.974 123.575 233.858 79.335 225.08 79.335C216.302 79.335 209.186 123.575 209.186 178.148C209.186 232.721 216.302 276.961 225.08 276.961C233.858 276.961 240.974 232.721 240.974 178.148Z" fill="url(#paint7_radial_105_1116)"/>
    </g>
    <path d="M340.862 173.358C340.862 173.626 340.862 173.984 340.862 174.387H311.581C311.581 173.984 311.581 173.626 311.581 173.402C311.581 169.507 314.76 162.075 318.342 162.075C321.924 162.075 331.371 162.075 334.146 162.075C336.922 162.03 340.862 168.209 340.862 173.358Z" fill="white"/>
    <path d="M340.639 173.626C340.639 173.895 340.639 174.253 340.639 174.656H311.357C311.357 174.253 311.357 173.895 311.357 173.671C311.357 169.776 314.536 162.343 318.118 162.343C321.7 162.343 331.147 162.343 333.923 162.343C336.699 162.299 340.639 168.477 340.639 173.626Z" fill="url(#paint8_linear_105_1116)"/>
    <path opacity="0.2" d="M340.504 175.417C340.504 173.34 333.949 171.656 325.863 171.656C317.778 171.656 311.223 173.34 311.223 175.417C311.223 177.494 317.777 179.178 325.863 179.178C333.949 179.178 340.504 177.494 340.504 175.417Z" fill="url(#paint9_radial_105_1116)"/>
    <path d="M340.862 200.445C340.862 200.713 340.862 200.937 340.862 201.161C340.862 222.249 334.325 239.307 326.222 239.307C318.118 239.307 311.581 222.204 311.581 201.161C311.581 200.893 311.581 200.669 311.581 200.445C311.581 200.445 311.581 180.163 311.581 174.342L340.862 174.342C340.862 180.879 340.862 200.445 340.862 200.445Z" fill="white"/>
    <path d="M340.504 200.445C340.504 200.669 340.504 200.937 340.504 201.161C340.504 222.249 333.922 239.307 325.863 239.307C317.759 239.307 311.223 222.204 311.223 201.161C311.223 200.893 311.223 200.669 311.223 200.445C311.223 200.445 311.223 180.163 311.223 174.342L340.504 174.342C340.504 180.879 340.504 200.445 340.504 200.445Z" fill="url(#paint10_linear_105_1116)"/>
    <path opacity="0.2" d="M329.401 183.611C321.162 176.626 313.238 172.373 311.76 174.119C310.283 175.865 315.79 182.939 324.028 189.924C332.266 196.908 340.191 201.161 341.668 199.415C343.146 197.669 337.639 190.595 329.401 183.611Z" fill="url(#paint11_radial_105_1116)"/>
    <path d="M256.286 249.471C256.286 203.758 256.286 179.894 256.286 95.8112C268.509 159.254 437.794 269.395 437.794 269.395L438.063 304.765C438.018 304.765 256.286 196.773 256.286 249.471Z" fill="white"/>
    <path d="M255.033 249.471C255.033 203.758 255.033 179.895 255.033 95.8116C267.256 159.254 436.541 269.395 436.541 269.395L437.123 304.228C437.079 304.228 255.033 196.774 255.033 249.471Z" fill="url(#paint12_linear_105_1116)"/>
    <mask id="mask1_105_1116" style="mask-type:alpha" maskUnits="userSpaceOnUse" x="255" y="95" width="183" height="210">
    <path d="M255.033 249.471C255.033 203.758 255.033 179.895 255.033 95.8117C267.256 159.254 436.541 269.395 436.541 269.395L437.123 304.228C437.079 304.228 255.033 196.774 255.033 249.471Z" fill="url(#paint13_linear_105_1116)"/>
    </mask>
    <g mask="url(#mask1_105_1116)">
    <path opacity="0.2" d="M275.942 176.895C275.942 122.322 268.826 78.0817 260.048 78.0817C251.269 78.0817 244.153 122.322 244.153 176.895C244.153 231.468 251.269 275.708 260.048 275.708C268.826 275.708 275.942 231.468 275.942 176.895Z" fill="url(#paint14_radial_105_1116)"/>
    <path opacity="0.2" d="M439.631 282.558C439.631 272.569 438.188 264.47 436.407 264.47C434.627 264.47 433.184 272.569 433.184 282.558C433.184 292.548 434.627 300.647 436.407 300.647C438.188 300.647 439.631 292.548 439.631 282.558Z" fill="url(#paint15_radial_105_1116)"/>
    </g>
    <path d="M47.4672 270.335C48.1836 270.335 48.8104 279.066 48.8104 280.946C48.8104 282.827 48.2283 310.809 47.4672 310.809C46.7508 310.809 46.124 282.871 46.124 280.946C46.124 279.066 46.7061 270.335 47.4672 270.335Z" fill="white"/>
    <path d="M47.4674 270.738C48.1838 270.738 48.7658 279.379 48.7658 281.26C48.7658 283.14 48.1837 310.854 47.4673 310.854C46.751 310.854 46.169 283.14 46.169 281.26C46.169 279.379 46.751 270.738 47.4674 270.738Z" fill="url(#paint16_linear_105_1116)"/>
    <path d="M437.616 269.171C436.899 269.171 436.272 277.902 436.272 279.782C436.272 281.663 436.855 309.646 437.616 309.646C438.332 309.646 438.959 281.707 438.959 279.782C438.959 277.857 438.332 269.171 437.616 269.171Z" fill="white"/>
    <path d="M437.616 269.529C436.899 269.529 436.317 278.17 436.317 280.051C436.317 281.931 436.899 309.645 437.616 309.645C438.332 309.645 438.914 281.931 438.914 280.051C438.914 278.17 438.332 269.529 437.616 269.529Z" fill="url(#paint17_linear_105_1116)"/>
    <path d="M242.765 433.218C235.199 428.472 188.993 445.888 165.309 450.589C165.309 436.352 165.309 436.352 165.309 436.352C165.309 436.352 241.198 379.132 242.765 367.402C242.765 433.218 242.765 367.447 242.765 433.218Z" fill="white"/>
    <path d="M243.481 433.397C235.914 428.651 189.709 445.709 166.024 450.455C166.024 436.217 166.024 436.575 166.024 436.575C166.024 436.575 241.914 379.356 243.481 367.626C243.481 433.397 243.481 367.626 243.481 433.397Z" fill="url(#paint18_linear_105_1116)"/>
    <mask id="mask2_105_1116" style="mask-type:alpha" maskUnits="userSpaceOnUse" x="166" y="367" width="78" height="84">
    <path d="M243.481 433.397C235.914 428.651 189.709 445.709 166.024 450.455C166.024 436.217 166.024 436.575 166.024 436.575C166.024 436.575 241.914 379.356 243.481 367.626C243.481 433.397 243.481 367.626 243.481 433.397Z" fill="url(#paint19_linear_105_1116)"/>
    </mask>
    <g mask="url(#mask2_105_1116)">
    <path opacity="0.2" d="M219.806 411.942C217.792 397.928 219.045 386.153 222.582 385.66C226.119 385.168 230.641 396.092 232.656 410.106C234.671 424.12 233.417 435.895 229.88 436.388C226.343 436.925 221.821 425.955 219.806 411.942Z" fill="url(#paint20_radial_105_1116)"/>
    </g>
    <path d="M242.362 431.919C249.929 427.173 296.134 444.59 319.819 449.291C319.819 435.053 319.819 435.053 319.819 435.053C319.819 435.053 243.929 377.834 242.362 366.103C242.362 431.919 242.362 366.148 242.362 431.919Z" fill="white"/>
    <mask id="mask3_105_1116" style="mask-type:alpha" maskUnits="userSpaceOnUse" x="242" y="366" width="78" height="84">
    <path d="M242.362 431.919C249.929 427.173 296.134 444.59 319.819 449.291C319.819 435.053 319.819 435.053 319.819 435.053C319.819 435.053 243.929 377.834 242.362 366.103C242.362 431.919 242.362 366.148 242.362 431.919Z" fill="white"/>
    </mask>
    <g mask="url(#mask3_105_1116)">
    <path d="M241.646 432.143C249.213 427.397 295.418 444.456 319.103 449.202C319.103 434.964 319.103 435.322 319.103 435.322C319.103 435.322 243.214 378.103 241.646 366.372C241.646 432.143 241.646 366.372 241.646 432.143Z" fill="url(#paint21_linear_105_1116)"/>
    <path opacity="0.2" d="M264.614 409.98C266.629 395.967 265.375 384.191 261.838 383.699C258.301 383.206 253.779 394.131 251.764 408.145C249.75 422.159 251.003 433.934 254.54 434.426C258.077 434.919 262.599 423.994 264.614 409.98Z" fill="url(#paint22_radial_105_1116)"/>
    </g>
    <path d="M221.274 63.5302C221.274 63.5302 221.274 237.517 221.274 346.851C221.274 456.186 241.512 446.784 241.512 446.784C241.512 446.784 261.749 456.186 261.749 346.851C261.749 237.517 261.749 63.5302 261.749 63.5302C261.749 63.5302 257.316 0.938125 241.512 0.938125C225.707 0.938125 221.274 63.5302 221.274 63.5302Z" fill="white"/>
    <path d="M222.528 63.5304C222.528 63.5304 222.528 237.517 222.528 346.851C222.528 456.186 242.766 446.784 242.766 446.784C242.766 446.784 263.003 456.186 263.003 346.851C263.003 237.517 263.003 63.5304 263.003 63.5304C263.003 63.5304 258.57 0.938323 242.766 0.938323C226.961 0.938323 222.528 63.5304 222.528 63.5304Z" fill="url(#paint23_radial_105_1116)"/>
    <path opacity="0.2" d="M251.54 384.773C251.54 350.526 247.651 322.763 242.854 322.763C238.057 322.763 234.168 350.526 234.168 384.773C234.168 419.021 238.057 446.783 242.854 446.783C247.651 446.783 251.54 419.021 251.54 384.773Z" fill="url(#paint24_radial_105_1116)"/>
    <path d="M242.765 354.149C244.78 354.149 246.392 375.416 246.392 380.072C246.392 384.729 244.78 452.962 242.765 452.962C240.75 452.962 239.139 384.729 239.139 380.072C239.139 375.416 240.75 354.149 242.765 354.149Z" fill="white"/>
    <path d="M242.854 355.134C244.824 355.134 246.391 376.222 246.391 380.789C246.391 385.401 244.824 452.918 242.854 452.918C240.884 452.918 239.317 385.356 239.317 380.789C239.362 376.222 240.929 355.134 242.854 355.134Z" fill="url(#paint25_linear_105_1116)"/>
    <mask id="mask4_105_1116" style="mask-type:alpha" maskUnits="userSpaceOnUse" x="231" y="25" width="23" height="12">
    <g opacity="0.5">
    <path d="M242.765 25.6525C249.571 25.6525 253.198 31.1595 253.198 34.1593C253.198 37.1591 248.631 35.9054 242.766 35.9054C236.856 35.9054 231.886 37.0695 231.886 34.0697C231.886 31.07 235.512 25.6972 242.765 25.6525Z" fill="url(#paint26_radial_105_1116)"/>
    </g>
    </mask>
    <g mask="url(#mask4_105_1116)">
    <path opacity="0.5" d="M242.765 25.6525C249.571 25.6525 253.198 31.1595 253.198 34.1593C253.198 37.1591 248.631 35.9054 242.765 35.9054C236.856 35.9054 231.886 37.0695 231.886 34.0698C231.886 31.07 235.512 25.6973 242.765 25.6525Z" fill="url(#paint27_radial_105_1116)"/>
    <path opacity="0.5" d="M231.259 39.2634V34.0059C231.259 34.0059 241.549 21.6581 254.093 34.0059C254.093 39.2634 254.093 39.2634 254.093 39.2634C254.093 39.2634 241.402 32.0284 231.259 39.2634Z" fill="white"/>
    <path opacity="0.5" d="M231.259 39.2634V34.0059C231.259 34.0059 241.549 21.6581 254.093 34.0059C254.093 39.2634 254.093 39.2634 254.093 39.2634C254.093 39.2634 241.353 32.0284 231.259 39.2634Z" fill="url(#paint28_linear_105_1116)"/>
    </g>
    </g>
    <defs>
    <filter id="filter0_d_105_1116" x="14.124" y="0.93811" width="452.835" height="539.024" filterUnits="userSpaceOnUse" color-interpolation-filters="sRGB">
    <feFlood flood-opacity="0" result="BackgroundImageFix"/>
    <feColorMatrix in="SourceAlpha" type="matrix" values="0 0 0 0 0 0 0 0 0 0 0 0 0 0 0 0 0 0 127 0" result="hardAlpha"/>
    <feOffset dx="-2" dy="57"/>
    <feGaussianBlur stdDeviation="15"/>
    <feColorMatrix type="matrix" values="0 0 0 0 0.555208 0 0 0 0 0.752283 0 0 0 0 0.8125 0 0 0 0.3 0"/>
    <feBlend mode="normal" in2="BackgroundImageFix" result="effect1_dropShadow_105_1116"/>
    <feBlend mode="normal" in="SourceGraphic" in2="effect1_dropShadow_105_1116" result="shape"/>
    </filter>
    <linearGradient id="paint0_linear_105_1116" x1="159.131" y1="175.905" x2="159.131" y2="163.573" gradientUnits="userSpaceOnUse">
    <stop stop-color="#EDF8FE"/>
    <stop offset="1" stop-color="white"/>
    </linearGradient>
    <radialGradient id="paint1_radial_105_1116" cx="0" cy="0" r="1" gradientUnits="userSpaceOnUse" gradientTransform="translate(159.311 176.671) rotate(-89.9999) scale(3.76131 14.6215)">
    <stop stop-color="#7CAEBE"/>
    <stop offset="1" stop-color="#EAF7FE"/>
    </radialGradient>
    <linearGradient id="paint2_linear_105_1116" x1="159.29" y1="240.624" x2="159.29" y2="175.641" gradientUnits="userSpaceOnUse">
    <stop stop-color="white"/>
    <stop offset="1" stop-color="#EAF7FE"/>
    </linearGradient>
    <radialGradient id="paint3_radial_105_1116" cx="0" cy="0" r="1" gradientUnits="userSpaceOnUse" gradientTransform="translate(158.414 188.067) rotate(-90) scale(13.0416 15.1739)">
    <stop stop-color="#7CAEBE"/>
    <stop offset="1" stop-color="#EDF8FE"/>
    </radialGradient>
    <linearGradient id="paint4_linear_105_1116" x1="139.082" y1="265.962" x2="139.082" y2="57.5348" gradientUnits="userSpaceOnUse">
    <stop stop-color="#EFF9FE"/>
    <stop offset="1" stop-color="#E1F4FD"/>
    </linearGradient>
    <linearGradient id="paint5_linear_105_1116" x1="139.082" y1="265.962" x2="139.082" y2="57.5347" gradientUnits="userSpaceOnUse">
    <stop stop-color="#EFF9FE"/>
    <stop offset="1" stop-color="#E1F4FD"/>
    </linearGradient>
    <radialGradient id="paint6_radial_105_1116" cx="0" cy="0" r="1" gradientUnits="userSpaceOnUse" gradientTransform="translate(48.676 283.769) rotate(-90) scale(18.0901 3.21942)">
    <stop stop-color="#7CAEBE"/>
    <stop offset="1" stop-color="#EAF7FE"/>
    </radialGradient>
    <radialGradient id="paint7_radial_105_1116" cx="0" cy="0" r="1" gradientUnits="userSpaceOnUse" gradientTransform="translate(225.081 178.159) rotate(-90) scale(98.824 15.8735)">
    <stop stop-color="#7CAEBE"/>
    <stop offset="1" stop-color="#EAF7FE"/>
    </radialGradient>
    <linearGradient id="paint8_linear_105_1116" x1="325.999" y1="174.651" x2="325.999" y2="162.319" gradientUnits="userSpaceOnUse">
    <stop stop-color="#EDF8FE"/>
    <stop offset="1" stop-color="white"/>
    </linearGradient>
    <radialGradient id="paint9_radial_105_1116" cx="0" cy="0" r="1" gradientUnits="userSpaceOnUse" gradientTransform="translate(325.864 175.417) rotate(-90) scale(3.76131 14.6215)">
    <stop stop-color="#7CAEBE"/>
    <stop offset="1" stop-color="#EAF7FE"/>
    </radialGradient>
    <linearGradient id="paint10_linear_105_1116" x1="325.888" y1="239.325" x2="325.888" y2="174.342" gradientUnits="userSpaceOnUse">
    <stop stop-color="white"/>
    <stop offset="1" stop-color="#EAF7FE"/>
    </linearGradient>
    <radialGradient id="paint11_radial_105_1116" cx="0" cy="0" r="1" gradientUnits="userSpaceOnUse" gradientTransform="translate(326.715 186.768) rotate(-90) scale(13.0416 15.1739)">
    <stop stop-color="#7CAEBE"/>
    <stop offset="1" stop-color="#EDF8FE"/>
    </radialGradient>
    <linearGradient id="paint12_linear_105_1116" x1="346.055" y1="264.698" x2="346.055" y2="56.2697" gradientUnits="userSpaceOnUse">
    <stop stop-color="#EFF9FE"/>
    <stop offset="1" stop-color="#E1F4FD"/>
    </linearGradient>
    <linearGradient id="paint13_linear_105_1116" x1="346.055" y1="264.698" x2="346.055" y2="56.2698" gradientUnits="userSpaceOnUse">
    <stop stop-color="#EFF9FE"/>
    <stop offset="1" stop-color="#E1F4FD"/>
    </linearGradient>
    <radialGradient id="paint14_radial_105_1116" cx="0" cy="0" r="1" gradientUnits="userSpaceOnUse" gradientTransform="translate(260.049 176.906) rotate(-90) scale(98.824 15.8735)">
    <stop stop-color="#7CAEBE"/>
    <stop offset="1" stop-color="#EAF7FE"/>
    </radialGradient>
    <radialGradient id="paint15_radial_105_1116" cx="0" cy="0" r="1" gradientUnits="userSpaceOnUse" gradientTransform="translate(436.407 282.56) rotate(-90) scale(18.0901 3.21943)">
    <stop stop-color="#7CAEBE"/>
    <stop offset="1" stop-color="#EAF7FE"/>
    </radialGradient>
    <linearGradient id="paint16_linear_105_1116" x1="47.4753" y1="310.872" x2="47.4753" y2="270.742" gradientUnits="userSpaceOnUse">
    <stop stop-color="#EFF9FE"/>
    <stop offset="0.1998" stop-color="white"/>
    <stop offset="0.4039" stop-color="white"/>
    <stop offset="0.6071" stop-color="white"/>
    <stop offset="0.807" stop-color="#EEF8FE"/>
    <stop offset="1" stop-color="#EEF9FE"/>
    </linearGradient>
    <linearGradient id="paint17_linear_105_1116" x1="437.624" y1="309.663" x2="437.624" y2="269.533" gradientUnits="userSpaceOnUse">
    <stop stop-color="#EFF9FE"/>
    <stop offset="0.1998" stop-color="white"/>
    <stop offset="0.4039" stop-color="white"/>
    <stop offset="0.6071" stop-color="white"/>
    <stop offset="0.807" stop-color="#EEF8FE"/>
    <stop offset="1" stop-color="#EEF9FE"/>
    </linearGradient>
    <linearGradient id="paint18_linear_105_1116" x1="204.745" y1="434.49" x2="204.745" y2="351.668" gradientUnits="userSpaceOnUse">
    <stop stop-color="#EFF9FE"/>
    <stop offset="1" stop-color="#E1F4FD"/>
    </linearGradient>
    <linearGradient id="paint19_linear_105_1116" x1="204.745" y1="434.49" x2="204.745" y2="351.668" gradientUnits="userSpaceOnUse">
    <stop stop-color="#EFF9FE"/>
    <stop offset="1" stop-color="#E1F4FD"/>
    </linearGradient>
    <radialGradient id="paint20_radial_105_1116" cx="0" cy="0" r="1" gradientUnits="userSpaceOnUse" gradientTransform="translate(226.232 411.028) rotate(-90) scale(25.3839 7.37777)">
    <stop stop-color="#7CAEBE"/>
    <stop offset="1" stop-color="#EAF7FE"/>
    </radialGradient>
    <linearGradient id="paint21_linear_105_1116" x1="280.392" y1="433.225" x2="280.392" y2="350.403" gradientUnits="userSpaceOnUse">
    <stop stop-color="#EFF9FE"/>
    <stop offset="1" stop-color="#E1F4FD"/>
    </linearGradient>
    <radialGradient id="paint22_radial_105_1116" cx="0" cy="0" r="1" gradientUnits="userSpaceOnUse" gradientTransform="translate(258.19 409.065) rotate(-90) scale(25.3825 7.37777)">
    <stop stop-color="#7CAEBE"/>
    <stop offset="1" stop-color="#EAF7FE"/>
    </radialGradient>
    <radialGradient id="paint23_radial_105_1116" cx="0" cy="0" r="1" gradientUnits="userSpaceOnUse" gradientTransform="translate(244.669 311.03) rotate(-90) scale(322.968 22.1353)">
    <stop stop-color="#EFF9FE"/>
    <stop offset="1" stop-color="#E1F4FD"/>
    </radialGradient>
    <radialGradient id="paint24_radial_105_1116" cx="0" cy="0" r="1" gradientUnits="userSpaceOnUse" gradientTransform="translate(242.854 384.78) rotate(-90) scale(62.0169 8.67454)">
    <stop stop-color="#7CAEBE"/>
    <stop offset="1" stop-color="#EAF7FE"/>
    </radialGradient>
    <linearGradient id="paint25_linear_105_1116" x1="242.876" y1="452.961" x2="242.876" y2="355.145" gradientUnits="userSpaceOnUse">
    <stop stop-color="#EFF9FE"/>
    <stop offset="0.1998" stop-color="white"/>
    <stop offset="0.4039" stop-color="white"/>
    <stop offset="0.6071" stop-color="white"/>
    <stop offset="0.807" stop-color="#EEF8FE"/>
    <stop offset="1" stop-color="#EEF9FE"/>
    </linearGradient>
    <radialGradient id="paint26_radial_105_1116" cx="0" cy="0" r="1" gradientUnits="userSpaceOnUse" gradientTransform="translate(242.543 31.65) rotate(-90.0001) scale(5.35985 10.4784)">
    <stop stop-color="white"/>
    <stop offset="0.1205" stop-color="#FBFBFB"/>
    <stop offset="0.2454" stop-color="#EEEEEE"/>
    <stop offset="0.3724" stop-color="#DADADA"/>
    <stop offset="0.5008" stop-color="#BCBCBC"/>
    <stop offset="0.6304" stop-color="#979797"/>
    <stop offset="0.761" stop-color="#696969"/>
    <stop offset="0.8898" stop-color="#343434"/>
    <stop offset="1"/>
    </radialGradient>
    <radialGradient id="paint27_radial_105_1116" cx="0" cy="0" r="1" gradientUnits="userSpaceOnUse" gradientTransform="translate(242.542 30.9095) rotate(-90) scale(5.25697 10.642)">
    <stop stop-color="#7CAEBE"/>
    <stop offset="1" stop-color="#EAF7FE"/>
    </radialGradient>
    <linearGradient id="paint28_linear_105_1116" x1="258.002" y1="43.8349" x2="232.107" y2="30.2159" gradientUnits="userSpaceOnUse">
    <stop stop-color="#828C93"/>
    <stop offset="0.0829433" stop-color="#89939A"/>
    <stop offset="0.2223" stop-color="#9DA8AE"/>
    <stop offset="0.4" stop-color="#BFCAD0"/>
    <stop offset="0.5113" stop-color="#D8E2E7"/>
    <stop offset="0.6233" stop-color="#A8B3B9"/>
    <stop offset="0.7541" stop-color="#798389"/>
    <stop offset="0.865" stop-color="#586066"/>
    <stop offset="0.9504" stop-color="#41474C"/>
    <stop offset="1" stop-color="#373D42"/>
    </linearGradient>
    </defs>
</g>
</svg>
