<svg width="14" height="14" viewBox="0 0 14 14" fill="none" xmlns="http://www.w3.org/2000/svg">
<path d="M13.3806 12.1812C13.1983 12.5804 12.7881 12.9278 12.1503 13.2231C11.5122 13.5184 10.9457 13.666 10.4507 13.666C10.3118 13.666 10.1642 13.6553 10.008 13.6336C9.85174 13.6117 9.71958 13.5902 9.61108 13.5685C9.50263 13.5468 9.35919 13.5078 9.18142 13.4513C9.00333 13.395 8.87518 13.3514 8.79733 13.3211C8.71897 13.2908 8.57586 13.2365 8.36767 13.1585C8.15929 13.0801 8.02895 13.0324 7.97719 13.0153C6.55359 12.4942 5.16232 11.5547 3.80389 10.1962C2.44546 8.83749 1.50575 7.44655 0.984877 6.02318C0.967638 5.97105 0.919888 5.8408 0.841673 5.63256C0.763595 5.42437 0.709187 5.28103 0.678814 5.203C0.648622 5.12487 0.605159 4.99681 0.548699 4.81899C0.492284 4.64099 0.453336 4.49788 0.431582 4.38924C0.409782 4.28088 0.388256 4.14858 0.366502 3.99229C0.344793 3.83599 0.333984 3.68823 0.333984 3.54945C0.333984 3.05462 0.481612 2.48824 0.776822 1.85021C1.07199 1.21227 1.41914 0.80213 1.81851 0.619796C2.27859 0.428752 2.71696 0.333252 3.13366 0.333252C3.22903 0.333252 3.29858 0.342008 3.34186 0.359338C3.38532 0.376897 3.45697 0.454838 3.55684 0.593755C3.65672 0.732672 3.76517 0.908392 3.88234 1.1211C3.99954 1.33385 4.11456 1.54004 4.22739 1.73961C4.34022 1.93923 4.44877 2.13661 4.55298 2.33208C4.65714 2.52723 4.72222 2.6511 4.74822 2.703C4.77426 2.74664 4.83072 2.82896 4.91746 2.9506C5.0042 3.07204 5.06947 3.1804 5.11279 3.276C5.15612 3.37149 5.17787 3.46266 5.17787 3.54945C5.17787 3.67984 5.0888 3.83818 4.91089 4.02467C4.73289 4.21133 4.53756 4.38286 4.32485 4.53915C4.11214 4.69544 3.9169 4.86259 3.73895 5.04055C3.56113 5.21837 3.47206 5.36376 3.47206 5.47663C3.47206 5.53743 3.48725 5.60898 3.51767 5.69144C3.54804 5.77408 3.57627 5.84135 3.60231 5.89334C3.62835 5.94537 3.66967 6.01921 3.726 6.1148C3.78241 6.21039 3.8194 6.27109 3.83664 6.29718C4.314 7.15654 4.86314 7.89659 5.48366 8.51734C6.10446 9.13818 6.84437 9.68705 7.70387 10.1645C7.72973 10.182 7.79061 10.2188 7.88648 10.2753C7.98184 10.3315 8.05581 10.3727 8.1078 10.3988C8.15993 10.4248 8.22702 10.4531 8.30961 10.4832C8.3922 10.5135 8.46381 10.5288 8.52483 10.5288C8.66329 10.5288 8.85433 10.3857 9.09764 10.0993C9.34063 9.8126 9.58818 9.52838 9.83993 9.24622C10.0915 8.96433 10.2953 8.82327 10.4519 8.82327C10.5386 8.82327 10.6296 8.84484 10.7255 8.88821C10.821 8.93158 10.9293 8.99684 11.0507 9.08359C11.1725 9.17069 11.2549 9.22688 11.2983 9.25329L11.9881 9.6305C12.4482 9.87367 12.8323 10.0884 13.1405 10.2751C13.4488 10.4618 13.6159 10.5897 13.642 10.6591C13.6593 10.7024 13.6678 10.7721 13.6678 10.8676C13.6674 11.2839 13.5719 11.7223 13.3806 12.1812Z" fill="white"/>
</svg>
