<svg width="77" height="70" viewBox="0 0 77 70" fill="none" xmlns="http://www.w3.org/2000/svg">
<g filter="url(#filter0_dd_234_9487)">
<path d="M40.0379 18.6679C40.0048 18.6682 39.9607 18.6685 39.9111 18.6688L39.8842 22.3735C39.9338 22.3732 39.9779 22.3729 40.0054 22.3727C40.485 22.3693 41.4029 21.9607 41.4062 21.5075C41.4095 21.0544 41.4182 19.8591 41.4207 19.5079C41.4233 19.1567 40.6718 18.6635 40.0379 18.6679Z" fill="white"/>
<path d="M40.0047 18.696C39.9716 18.6962 39.9275 18.6966 39.8779 18.6969L39.851 22.4016C39.9006 22.4013 39.9447 22.401 39.9722 22.4008C40.4518 22.3974 41.3697 21.9888 41.373 21.5356C41.3763 21.0824 41.385 19.8872 41.3875 19.536C41.3956 19.1847 40.6386 18.6916 40.0047 18.696Z" fill="url(#paint0_linear_234_9487)"/>
<path opacity="0.2" d="M39.7404 22.4155C39.9942 22.4139 40.2052 21.5849 40.2116 20.5638C40.2179 19.5427 40.0173 18.7162 39.7634 18.7177C39.5095 18.7192 39.2986 19.5482 39.2922 20.5693C39.2858 21.5905 39.4865 22.417 39.7404 22.4155Z" fill="url(#paint1_radial_234_9487)"/>
<path d="M36.6068 18.6319C36.5733 18.6322 36.5453 18.6324 36.5173 18.6326C33.8819 18.6516 31.7437 19.5113 31.7359 20.5453C31.7281 21.5849 33.8593 22.4081 36.4891 22.3891C36.5227 22.3889 36.5507 22.3887 36.5786 22.3885C36.5786 22.3885 39.1134 22.3702 39.8408 22.3649L39.869 18.6084C39.052 18.6143 36.6068 18.6319 36.6068 18.6319Z" fill="white"/>
<path d="M36.6068 18.677C36.5733 18.6772 36.5453 18.6774 36.5173 18.6776C33.8819 18.6966 31.7437 19.5564 31.7359 20.5903C31.7281 21.6299 33.8593 22.4531 36.4891 22.4342C36.5227 22.4339 36.5507 22.4337 36.5786 22.4335C36.5786 22.4335 39.1134 22.4152 39.8408 22.41L39.869 18.6534C39.052 18.6593 36.6068 18.677 36.6068 18.677Z" fill="url(#paint2_linear_234_9487)"/>
<path opacity="0.2" d="M38.7136 20.1097C39.5721 21.1497 40.092 22.1525 39.8737 22.3419C39.6554 22.5313 38.7829 21.8384 37.9244 20.7984C37.0658 19.7584 36.5459 18.7556 36.7642 18.5662C36.9825 18.3768 37.855 19.0697 38.7136 20.1097Z" fill="url(#paint3_radial_234_9487)"/>
<path d="M30.4086 29.5041C36.0977 29.4599 39.0676 29.4368 49.5319 29.3554C41.6489 27.86 28.1165 6.40538 28.1165 6.40538L23.7148 6.4054C23.7092 6.41114 36.9669 29.4531 30.4086 29.5041Z" fill="white"/>
<path d="M30.4096 29.6673C36.0984 29.6231 39.0682 29.6 49.5322 29.5186C41.6495 28.0233 28.1175 6.56947 28.1175 6.56947L23.7832 6.52905C23.7832 6.52905 36.9676 29.6163 30.4096 29.6673Z" fill="url(#paint4_linear_234_9487)"/>
<mask id="mask0_234_9487" style="mask-type:alpha" maskUnits="userSpaceOnUse" x="23" y="6" width="27" height="24">
<path d="M30.4196 29.5997C36.1305 29.571 39.1118 29.556 49.6163 29.5031C41.6984 27.9931 28.0495 6.59658 28.0495 6.59658L23.6982 6.54468C23.6982 6.54468 37.0031 29.5666 30.4196 29.5997Z" fill="url(#paint5_linear_234_9487)"/>
</mask>
<g mask="url(#mask0_234_9487)">
<path opacity="0.2" d="M26.2795 7.06504C27.5336 7.06075 28.5508 6.87178 28.5516 6.64296C28.5524 6.41413 27.5364 6.23211 26.2824 6.23639C25.0283 6.24067 24.0111 6.42964 24.0103 6.65847C24.0095 6.88729 25.0255 7.06932 26.2795 7.06504Z" fill="url(#paint6_radial_234_9487)"/>
<path opacity="0.2" d="M39.5588 30.8842C46.4107 30.8619 51.9682 29.9283 51.9719 28.7989C51.9757 27.6695 46.4242 26.772 39.5724 26.7943C32.7205 26.8165 27.163 27.7502 27.1593 28.8796C27.1555 30.0089 32.707 30.9065 39.5588 30.8842Z" fill="url(#paint7_radial_234_9487)"/>
</g>
<path d="M40.1682 43.4179C40.1351 43.4182 40.091 43.4185 40.0414 43.4188L40.0684 39.7141C40.118 39.7138 40.1621 39.7135 40.1896 39.7133C40.6692 39.7099 41.5812 40.1057 41.5779 40.5589C41.5746 41.012 41.5659 42.2073 41.5634 42.5585C41.5663 42.9097 40.8021 43.4135 40.1682 43.4179Z" fill="white"/>
<path d="M40.135 43.3899C40.1019 43.3901 40.0578 43.3904 40.0082 43.3907L40.0352 39.686C40.0848 39.6857 40.1289 39.6854 40.1564 39.6852C40.636 39.6818 41.548 40.0776 41.5447 40.5308C41.5414 40.984 41.5327 42.1792 41.5302 42.5304C41.5331 42.8816 40.7689 43.3854 40.135 43.3899Z" fill="url(#paint8_linear_234_9487)"/>
<path opacity="0.2" d="M39.8986 43.365C40.1525 43.3635 40.3634 42.5345 40.3698 41.5134C40.3761 40.4923 40.1755 39.6657 39.9216 39.6673C39.6677 39.6688 39.4568 40.4978 39.4504 41.5189C39.444 42.54 39.6447 43.3666 39.8986 43.365Z" fill="url(#paint9_radial_234_9487)"/>
<path d="M36.7427 43.4336C36.7091 43.4339 36.6812 43.4341 36.6532 43.4343C34.0177 43.4533 31.8922 42.6301 31.9 41.5904C31.9078 40.5508 34.0515 39.6967 36.6814 39.6777C36.7149 39.6775 36.7429 39.6773 36.7709 39.6771C36.7709 39.6771 39.3056 39.6588 40.033 39.6536L40.0048 43.4101C39.1879 43.416 36.7427 43.4336 36.7427 43.4336Z" fill="white"/>
<path d="M36.7427 43.3886C36.7147 43.3888 36.6812 43.389 36.6532 43.3892C34.0177 43.4083 31.8922 42.5793 31.9 41.5454C31.9078 40.5057 34.0515 39.6517 36.6814 39.6327C36.7149 39.6325 36.7429 39.6323 36.7709 39.6321C36.7709 39.6321 39.3056 39.6138 40.033 39.6085L40.0048 43.365C39.1879 43.3709 36.7427 43.3886 36.7427 43.3886Z" fill="url(#paint10_linear_234_9487)"/>
<path opacity="0.2" d="M38.8711 41.9614C39.7466 40.908 40.2827 39.897 40.0675 39.7109C39.8523 39.5249 38.9685 40.2314 38.093 41.2848C37.2175 42.3383 36.6814 43.3493 36.8966 43.5353C37.1118 43.7214 37.9956 43.0149 38.8711 41.9614Z" fill="url(#paint11_radial_234_9487)"/>
<path d="M30.7545 32.6683C36.4436 32.6241 39.4135 32.601 49.8778 32.5196C41.9696 34.1378 28.0876 55.8056 28.0876 55.8056L23.6854 55.874C23.6854 55.8683 37.3128 32.6173 30.7545 32.6683Z" fill="white"/>
<path d="M30.7548 32.511C36.4437 32.4667 39.4135 32.4436 49.8774 32.3623C41.9695 33.9804 28.0879 55.6474 28.0879 55.6474L23.7524 55.7552C23.7525 55.7495 37.3129 32.46 30.7548 32.511Z" fill="url(#paint12_linear_234_9487)"/>
<mask id="mask1_234_9487" style="mask-type:alpha" maskUnits="userSpaceOnUse" x="23" y="32" width="27" height="24">
<path d="M30.6972 32.5453C36.4081 32.5165 39.3894 32.5015 49.8938 32.4487C41.9599 34.0384 28.0891 55.5735 28.0891 55.5735L23.7371 55.6692C23.7371 55.6635 37.2807 32.5121 30.6972 32.5453Z" fill="url(#paint13_linear_234_9487)"/>
</mask>
<g mask="url(#mask1_234_9487)">
<path opacity="0.2" d="M39.717 35.2827C46.5689 35.2605 52.1264 34.3268 52.1301 33.1974C52.1339 32.068 46.5824 31.1705 39.7306 31.1928C32.8787 31.2151 27.3212 32.1487 27.3175 33.2781C27.3137 34.4075 32.8652 35.305 39.717 35.2827Z" fill="url(#paint14_radial_234_9487)"/>
<path opacity="0.2" d="M26.4318 55.8351C27.6859 55.8308 28.7031 55.6418 28.7039 55.413C28.7047 55.1842 27.6888 55.0021 26.4347 55.0064C25.1807 55.0107 24.1634 55.1997 24.1626 55.4285C24.1618 55.6573 25.1778 55.8393 26.4318 55.8351Z" fill="url(#paint15_radial_234_9487)"/>
</g>
<path d="M27.9673 6.49124C27.9671 6.58576 26.8701 6.67171 26.6339 6.67241C26.3977 6.67311 22.883 6.60674 22.8833 6.50632C22.8835 6.4118 26.3932 6.3187 26.635 6.31798C26.8712 6.31728 27.9676 6.39082 27.9673 6.49124Z" fill="white"/>
<path d="M27.9166 6.49154C27.9164 6.58608 26.8307 6.66606 26.5945 6.66674C26.3583 6.66743 22.8771 6.60074 22.8774 6.5062C22.8777 6.41166 26.3593 6.32471 26.5955 6.32402C26.8317 6.32333 27.9169 6.39699 27.9166 6.49154Z" fill="url(#paint16_linear_234_9487)"/>
<path d="M28.1138 55.565C28.1141 55.4705 27.0177 55.391 26.7815 55.3917C26.5453 55.3924 23.03 55.4796 23.0297 55.58C23.0295 55.6746 26.5386 55.7469 26.7804 55.7461C27.0222 55.7454 28.1135 55.6595 28.1138 55.565Z" fill="white"/>
<path d="M28.069 55.5653C28.0693 55.4707 26.9841 55.3971 26.7478 55.3977C26.5116 55.3984 23.03 55.4854 23.0298 55.5799C23.0295 55.6745 26.5106 55.7412 26.7468 55.7405C26.9831 55.7398 28.0687 55.6598 28.069 55.5653Z" fill="url(#paint17_linear_234_9487)"/>
<path d="M7.48389 31.064C8.08084 30.1122 5.89015 24.3004 5.29883 21.3213C7.08968 21.3213 7.08968 21.3213 7.08968 21.3213C7.08968 21.3213 14.2869 30.8669 15.7623 31.064C7.48389 31.064 15.7567 31.064 7.48389 31.064Z" fill="white"/>
<path d="M7.46107 31.1539C8.05802 30.2022 5.91238 24.3904 5.31543 21.4113C7.10628 21.4113 7.06123 21.4113 7.06123 21.4113C7.06123 21.4113 14.2584 30.9568 15.7339 31.1539C7.46107 31.1539 15.7339 31.1539 7.46107 31.1539Z" fill="url(#paint18_linear_234_9487)"/>
<mask id="mask2_234_9487" style="mask-type:alpha" maskUnits="userSpaceOnUse" x="5" y="21" width="11" height="11">
<path d="M7.46107 31.1539C8.05802 30.2022 5.91238 24.3904 5.31543 21.4113C7.10628 21.4113 7.06123 21.4113 7.06123 21.4113C7.06123 21.4113 14.2584 30.9568 15.7339 31.1539C7.46107 31.1539 15.7339 31.1539 7.46107 31.1539Z" fill="url(#paint19_linear_234_9487)"/>
</mask>
<g mask="url(#mask2_234_9487)">
<path opacity="0.2" d="M10.1602 28.176C11.9229 27.9226 13.404 28.0803 13.466 28.5252C13.5279 28.9701 12.1538 29.5389 10.3911 29.7923C8.62845 30.0457 7.14734 29.888 7.08539 29.4431C7.01781 28.9982 8.39755 28.4294 10.1602 28.176Z" fill="url(#paint20_radial_234_9487)"/>
</g>
<path d="M7.64697 31.0133C8.24392 31.965 6.05323 37.7769 5.46191 40.756C7.25276 40.756 7.25276 40.756 7.25276 40.756C7.25276 40.756 14.4499 31.2104 15.9254 31.0133C7.64698 31.0133 15.9198 31.0133 7.64697 31.0133Z" fill="white"/>
<mask id="mask3_234_9487" style="mask-type:alpha" maskUnits="userSpaceOnUse" x="5" y="31" width="11" height="10">
<path d="M7.64697 31.0133C8.24392 31.965 6.05323 37.7769 5.46191 40.756C7.25276 40.756 7.25276 40.756 7.25276 40.756C7.25276 40.756 14.4499 31.2104 15.9254 31.0133C7.64698 31.0133 15.9198 31.0133 7.64697 31.0133Z" fill="white"/>
</mask>
<g mask="url(#mask3_234_9487)">
<path d="M7.6183 30.9232C8.21525 31.875 6.06961 37.6868 5.47266 40.6659C7.26351 40.6659 7.21845 40.6659 7.21845 40.6659C7.21845 40.6659 14.4156 31.1203 15.8911 30.9232C7.6183 30.9232 15.8911 30.9232 7.6183 30.9232Z" fill="url(#paint21_linear_234_9487)"/>
<path opacity="0.2" d="M10.406 33.8122C12.1687 34.0656 13.6498 33.9079 13.7117 33.463C13.7737 33.0181 12.3996 32.4493 10.6369 32.1959C8.87417 31.9425 7.39306 32.1002 7.33112 32.5451C7.26917 32.99 8.64328 33.5587 10.406 33.8122Z" fill="url(#paint22_radial_234_9487)"/>
</g>
<path d="M53.9839 28.3607C53.9839 28.3607 32.0995 28.3607 18.3472 28.3607C4.59479 28.3607 5.77742 30.9062 5.77742 30.9062C5.77742 30.9062 4.59479 33.4517 18.3472 33.4517C32.0995 33.4517 53.9839 33.4517 53.9839 33.4517C53.9839 33.4517 61.8569 32.8942 61.8569 30.9062C61.8569 28.9182 53.9839 28.3607 53.9839 28.3607Z" fill="white"/>
<path d="M53.9839 28.5184C53.9839 28.5184 32.0995 28.5184 18.3472 28.5184C4.59479 28.5184 5.77742 31.0639 5.77742 31.0639C5.77742 31.0639 4.59479 33.6094 18.3472 33.6094C32.0995 33.6094 53.9839 33.6094 53.9839 33.6094C53.9839 33.6094 61.8569 33.0519 61.8569 31.0639C61.8569 29.076 53.9839 28.5184 53.9839 28.5184Z" fill="url(#paint23_radial_234_9487)"/>
<path opacity="0.2" d="M13.5771 32.1676C17.8848 32.1676 21.3769 31.6785 21.3769 31.0751C21.3769 30.4717 17.8848 29.9825 13.5771 29.9825C9.26942 29.9825 5.77734 30.4717 5.77734 31.0751C5.77734 31.6785 9.26942 32.1676 13.5771 32.1676Z" fill="url(#paint24_radial_234_9487)"/>
<path d="M17.4289 31.0639C17.4289 31.3174 14.7539 31.5201 14.1682 31.5201C13.5826 31.5201 5 31.3174 5 31.0639C5 30.8105 13.5826 30.6078 14.1682 30.6078C14.7539 30.6078 17.4289 30.8105 17.4289 31.0639Z" fill="white"/>
<path d="M17.3043 31.0751C17.3043 31.3229 14.6518 31.52 14.0774 31.52C13.4973 31.52 5.00488 31.3229 5.00488 31.0751C5.00488 30.8274 13.503 30.6302 14.0774 30.6302C14.6518 30.6359 17.3043 30.833 17.3043 31.0751Z" fill="url(#paint25_linear_234_9487)"/>
<mask id="mask4_234_9487" style="mask-type:alpha" maskUnits="userSpaceOnUse" x="57" y="29" width="2" height="4">
<g opacity="0.5">
<path d="M58.7348 31.0595C58.7283 31.9211 58.0455 32.3853 57.6754 32.388C57.3053 32.3906 57.4643 31.8113 57.4699 31.0686C57.4756 30.3203 57.3367 29.6921 57.7068 29.6894C58.0769 29.6867 58.7362 30.1411 58.7348 31.0595Z" fill="url(#paint26_radial_234_9487)"/>
</g>
</mask>
<g mask="url(#mask4_234_9487)">
<path opacity="0.5" d="M58.7481 31.064C58.7481 31.92 58.0554 32.3762 57.6781 32.3762C57.3008 32.3762 57.4585 31.8018 57.4585 31.064C57.4585 30.3207 57.312 29.6956 57.6894 29.6956C58.0667 29.6956 58.7425 30.1517 58.7481 31.064Z" fill="url(#paint27_radial_234_9487)"/>
<path opacity="0.5" d="M57.0361 29.6166H57.6974C57.6974 29.6166 59.2506 30.9109 57.6974 32.4887C57.0361 32.4887 57.0361 32.4887 57.0361 32.4887C57.0361 32.4887 57.9462 30.8924 57.0361 29.6166Z" fill="white"/>
<path opacity="0.5" d="M57.0361 29.6166H57.6974C57.6974 29.6166 59.2506 30.9109 57.6974 32.4887C57.0361 32.4887 57.0361 32.4887 57.0361 32.4887C57.0361 32.4887 57.9462 30.8862 57.0361 29.6166Z" fill="url(#paint28_linear_234_9487)"/>
</g>
</g>
<defs>
<filter id="filter0_dd_234_9487" x="0" y="0.317993" width="76.8564" height="69.556" filterUnits="userSpaceOnUse" color-interpolation-filters="sRGB">
<feFlood flood-opacity="0" result="BackgroundImageFix"/>
<feColorMatrix in="SourceAlpha" type="matrix" values="0 0 0 0 0 0 0 0 0 0 0 0 0 0 0 0 0 0 127 0" result="hardAlpha"/>
<feOffset dx="3"/>
<feGaussianBlur stdDeviation="1.5"/>
<feColorMatrix type="matrix" values="0 0 0 0 0.555208 0 0 0 0 0.752283 0 0 0 0 0.8125 0 0 0 0.4 0"/>
<feBlend mode="normal" in2="BackgroundImageFix" result="effect1_dropShadow_234_9487"/>
<feColorMatrix in="SourceAlpha" type="matrix" values="0 0 0 0 0 0 0 0 0 0 0 0 0 0 0 0 0 0 127 0" result="hardAlpha"/>
<feOffset dx="5" dy="4"/>
<feGaussianBlur stdDeviation="5"/>
<feColorMatrix type="matrix" values="0 0 0 0 0.556863 0 0 0 0 0.752941 0 0 0 0 0.811765 0 0 0 0.5 0"/>
<feBlend mode="normal" in2="effect1_dropShadow_234_9487" result="effect2_dropShadow_234_9487"/>
<feBlend mode="normal" in="SourceGraphic" in2="effect2_dropShadow_234_9487" result="shape"/>
</filter>
<linearGradient id="paint0_linear_234_9487" x1="39.865" y1="20.5494" x2="41.3831" y2="20.5605" gradientUnits="userSpaceOnUse">
<stop stop-color="#EDF8FE"/>
<stop offset="1" stop-color="white"/>
</linearGradient>
<radialGradient id="paint1_radial_234_9487" cx="0" cy="0" r="1" gradientUnits="userSpaceOnUse" gradientTransform="translate(39.7518 20.5667) rotate(-0.345394) scale(0.459742 1.84637)">
<stop stop-color="#7CAEBE"/>
<stop offset="1" stop-color="#EAF7FE"/>
</radialGradient>
<linearGradient id="paint2_linear_234_9487" x1="31.7337" y1="20.5935" x2="39.854" y2="20.6544" gradientUnits="userSpaceOnUse">
<stop stop-color="white"/>
<stop offset="1" stop-color="#EAF7FE"/>
</linearGradient>
<radialGradient id="paint3_radial_234_9487" cx="0" cy="0" r="1" gradientUnits="userSpaceOnUse" gradientTransform="translate(38.3188 20.4542) rotate(-0.444228) scale(1.61897 1.92778)">
<stop stop-color="#7CAEBE"/>
<stop offset="1" stop-color="#EDF8FE"/>
</radialGradient>
<linearGradient id="paint4_linear_234_9487" x1="28.6073" y1="18.0849" x2="54.5423" y2="18.2952" gradientUnits="userSpaceOnUse">
<stop stop-color="#EFF9FE"/>
<stop offset="1" stop-color="#E1F4FD"/>
</linearGradient>
<linearGradient id="paint5_linear_234_9487" x1="28.5757" y1="18.063" x2="54.6131" y2="18.1976" gradientUnits="userSpaceOnUse">
<stop stop-color="white"/>
<stop offset="1" stop-color="#E1F4FD"/>
</linearGradient>
<radialGradient id="paint6_radial_234_9487" cx="0" cy="0" r="1" gradientUnits="userSpaceOnUse" gradientTransform="translate(26.2807 6.65074) rotate(-0.195635) scale(2.27093 0.413776)">
<stop stop-color="#7CAEBE"/>
<stop offset="1" stop-color="#EAF7FE"/>
</radialGradient>
<radialGradient id="paint7_radial_234_9487" cx="0" cy="0" r="1" gradientUnits="userSpaceOnUse" gradientTransform="translate(39.5642 28.8394) rotate(-0.186263) scale(12.4078 2.04225)">
<stop stop-color="#7CAEBE"/>
<stop offset="1" stop-color="#EAF7FE"/>
</radialGradient>
<linearGradient id="paint8_linear_234_9487" x1="40.0222" y1="41.5385" x2="41.5403" y2="41.5496" gradientUnits="userSpaceOnUse">
<stop stop-color="#EDF8FE"/>
<stop offset="1" stop-color="white"/>
</linearGradient>
<radialGradient id="paint9_radial_234_9487" cx="0" cy="0" r="1" gradientUnits="userSpaceOnUse" gradientTransform="translate(39.91 41.5163) rotate(-0.345382) scale(0.459741 1.84637)">
<stop stop-color="#7CAEBE"/>
<stop offset="1" stop-color="#EAF7FE"/>
</radialGradient>
<linearGradient id="paint10_linear_234_9487" x1="31.8978" y1="41.5486" x2="40.0181" y2="41.6095" gradientUnits="userSpaceOnUse">
<stop stop-color="white"/>
<stop offset="1" stop-color="#EAF7FE"/>
</linearGradient>
<radialGradient id="paint11_radial_234_9487" cx="0" cy="0" r="1" gradientUnits="userSpaceOnUse" gradientTransform="translate(38.4819 41.6233) rotate(-0.444226) scale(1.61897 1.92778)">
<stop stop-color="#7CAEBE"/>
<stop offset="1" stop-color="#EDF8FE"/>
</radialGradient>
<linearGradient id="paint12_linear_234_9487" x1="28.7659" y1="44.1183" x2="54.701" y2="44.3286" gradientUnits="userSpaceOnUse">
<stop stop-color="#EFF9FE"/>
<stop offset="1" stop-color="#E1F4FD"/>
</linearGradient>
<linearGradient id="paint13_linear_234_9487" x1="28.7353" y1="44.0966" x2="54.7728" y2="44.2312" gradientUnits="userSpaceOnUse">
<stop stop-color="white"/>
<stop offset="1" stop-color="#E1F4FD"/>
</linearGradient>
<radialGradient id="paint14_radial_234_9487" cx="0" cy="0" r="1" gradientUnits="userSpaceOnUse" gradientTransform="translate(39.7224 33.2379) rotate(-0.186264) scale(12.4078 2.04225)">
<stop stop-color="#7CAEBE"/>
<stop offset="1" stop-color="#EAF7FE"/>
</radialGradient>
<radialGradient id="paint15_radial_234_9487" cx="0" cy="0" r="1" gradientUnits="userSpaceOnUse" gradientTransform="translate(26.433 55.4208) rotate(-0.195586) scale(2.27091 0.413775)">
<stop stop-color="#7CAEBE"/>
<stop offset="1" stop-color="#EAF7FE"/>
</radialGradient>
<linearGradient id="paint16_linear_234_9487" x1="22.8752" y1="6.50726" x2="27.916" y2="6.52216" gradientUnits="userSpaceOnUse">
<stop stop-color="#EFF9FE"/>
<stop offset="0.1998" stop-color="white"/>
<stop offset="0.4039" stop-color="white"/>
<stop offset="0.6071" stop-color="white"/>
<stop offset="0.807" stop-color="#EEF8FE"/>
<stop offset="1" stop-color="#EEF9FE"/>
</linearGradient>
<linearGradient id="paint17_linear_234_9487" x1="23.0275" y1="55.581" x2="28.0684" y2="55.5959" gradientUnits="userSpaceOnUse">
<stop stop-color="#EFF9FE"/>
<stop offset="0.1998" stop-color="white"/>
<stop offset="0.4039" stop-color="white"/>
<stop offset="0.6071" stop-color="white"/>
<stop offset="0.807" stop-color="#EEF8FE"/>
<stop offset="1" stop-color="#EEF9FE"/>
</linearGradient>
<linearGradient id="paint18_linear_234_9487" x1="7.32359" y1="26.2816" x2="17.7411" y2="26.2816" gradientUnits="userSpaceOnUse">
<stop stop-color="#EFF9FE"/>
<stop offset="1" stop-color="#E1F4FD"/>
</linearGradient>
<linearGradient id="paint19_linear_234_9487" x1="7.32359" y1="26.2816" x2="17.7411" y2="26.2816" gradientUnits="userSpaceOnUse">
<stop stop-color="#EFF9FE"/>
<stop offset="1" stop-color="#E1F4FD"/>
</linearGradient>
<radialGradient id="paint20_radial_234_9487" cx="0" cy="0" r="1" gradientUnits="userSpaceOnUse" gradientTransform="translate(10.2752 28.9842) scale(3.19285 0.927993)">
<stop stop-color="#7CAEBE"/>
<stop offset="1" stop-color="#EAF7FE"/>
</radialGradient>
<linearGradient id="paint21_linear_234_9487" x1="7.48222" y1="35.7967" x2="17.8998" y2="35.7967" gradientUnits="userSpaceOnUse">
<stop stop-color="#EFF9FE"/>
<stop offset="1" stop-color="#E1F4FD"/>
</linearGradient>
<radialGradient id="paint22_radial_234_9487" cx="0" cy="0" r="1" gradientUnits="userSpaceOnUse" gradientTransform="translate(10.5211 33.0041) scale(3.19267 0.927993)">
<stop stop-color="#7CAEBE"/>
<stop offset="1" stop-color="#EAF7FE"/>
</radialGradient>
<radialGradient id="paint23_radial_234_9487" cx="0" cy="0" r="1" gradientUnits="userSpaceOnUse" gradientTransform="translate(22.8529 31.3033) scale(40.6237 2.78422)">
<stop stop-color="white"/>
<stop offset="1" stop-color="#E1F4FD"/>
</radialGradient>
<radialGradient id="paint24_radial_234_9487" cx="0" cy="0" r="1" gradientUnits="userSpaceOnUse" gradientTransform="translate(13.5763 31.0751) scale(7.80063 1.0911)">
<stop stop-color="#7CAEBE"/>
<stop offset="1" stop-color="#EAF7FE"/>
</radialGradient>
<linearGradient id="paint25_linear_234_9487" x1="4.99939" y1="31.0779" x2="17.303" y2="31.0779" gradientUnits="userSpaceOnUse">
<stop stop-color="#EFF9FE"/>
<stop offset="0.1998" stop-color="white"/>
<stop offset="0.4039" stop-color="white"/>
<stop offset="0.6071" stop-color="white"/>
<stop offset="0.807" stop-color="#EEF8FE"/>
<stop offset="1" stop-color="#EEF9FE"/>
</linearGradient>
<radialGradient id="paint26_radial_234_9487" cx="0" cy="0" r="1" gradientUnits="userSpaceOnUse" gradientTransform="translate(57.9951 31.0367) rotate(-0.4157) scale(0.661266 1.32665)">
<stop stop-color="white"/>
<stop offset="0.1205" stop-color="#FBFBFB"/>
<stop offset="0.2454" stop-color="#EEEEEE"/>
<stop offset="0.3724" stop-color="#DADADA"/>
<stop offset="0.5008" stop-color="#BCBCBC"/>
<stop offset="0.6304" stop-color="#979797"/>
<stop offset="0.761" stop-color="#696969"/>
<stop offset="0.8898" stop-color="#343434"/>
<stop offset="1"/>
</radialGradient>
<radialGradient id="paint27_radial_234_9487" cx="0" cy="0" r="1" gradientUnits="userSpaceOnUse" gradientTransform="translate(58.0869 31.036) scale(0.661234 1.33857)">
<stop stop-color="#7CAEBE"/>
<stop offset="1" stop-color="#EAF7FE"/>
</radialGradient>
<linearGradient id="paint28_linear_234_9487" x1="56.4611" y1="32.9804" x2="58.1741" y2="29.7232" gradientUnits="userSpaceOnUse">
<stop stop-color="#828C93"/>
<stop offset="0.0829433" stop-color="#89939A"/>
<stop offset="0.2223" stop-color="#9DA8AE"/>
<stop offset="0.4" stop-color="#BFCAD0"/>
<stop offset="0.5113" stop-color="#D8E2E7"/>
<stop offset="0.6233" stop-color="#A8B3B9"/>
<stop offset="0.7541" stop-color="#798389"/>
<stop offset="0.865" stop-color="#586066"/>
<stop offset="0.9504" stop-color="#41474C"/>
<stop offset="1" stop-color="#373D42"/>
</linearGradient>
</defs>
</svg>
