<svg width="97" height="106" viewBox="0 0 97 106" fill="none" xmlns="http://www.w3.org/2000/svg">
<g filter="url(#filter0_dd_105_1290)">
<path d="M62.3839 59.3729C62.3826 59.3278 62.3809 59.2678 62.3789 59.2003L56.7439 58.9918C56.7458 59.0593 56.7476 59.1193 56.7486 59.1569C56.7675 59.8097 57.4151 61.0779 58.1044 61.1034C58.7937 61.1289 60.6117 61.1962 61.1459 61.216C61.6802 61.2357 62.4088 60.2358 62.3839 59.3729Z" fill="white"/>
<path d="M62.3419 59.3224C62.3406 59.2774 62.3389 59.2174 62.3369 59.1498L56.7019 58.9413C56.7038 59.0089 56.7056 59.0689 56.7066 59.1064C56.7255 59.7592 57.3731 61.0275 58.0624 61.053C58.7517 61.0785 60.5698 61.1458 61.104 61.1655C61.6384 61.1928 62.3668 60.1853 62.3419 59.3224Z" fill="url(#paint0_linear_105_1290)"/>
<path opacity="0.2" d="M56.7207 58.6937C56.7287 59.0292 57.9863 59.3398 59.5296 59.3875C61.0729 59.4351 62.3175 59.2017 62.3094 58.8662C62.3014 58.5306 61.0438 58.22 59.5006 58.1724C57.9573 58.1247 56.7127 58.3581 56.7207 58.6937Z" fill="url(#paint1_radial_105_1290)"/>
<path d="M62.6204 54.1606C62.6189 54.1119 62.6176 54.0713 62.6163 54.0308C62.4948 50.2074 61.0509 47.0593 59.4033 46.9916C57.7465 46.9234 56.5087 49.9694 56.6299 53.7846C56.6315 53.8333 56.6328 53.8739 56.6341 53.9145C56.6341 53.9145 56.7509 57.5918 56.7845 58.647L62.7709 58.8932C62.7332 57.708 62.6204 54.1606 62.6204 54.1606Z" fill="white"/>
<path d="M62.5531 54.1606C62.5515 54.1119 62.5502 54.0713 62.5489 54.0307C62.4274 50.2074 60.9835 47.0593 59.3359 46.9915C57.6791 46.9234 56.4413 49.9694 56.5625 53.7846C56.5641 53.8333 56.5654 53.8739 56.5667 53.9145C56.5667 53.9145 56.6836 57.5917 56.7171 58.647L62.7035 58.8931C62.6658 57.708 62.5531 54.1606 62.5531 54.1606Z" fill="url(#paint2_linear_105_1290)"/>
<path opacity="0.2" d="M60.2275 57.2175C58.6529 58.3711 57.124 59.0493 56.8243 58.7315C56.5246 58.4136 57.5633 57.2217 59.138 56.0681C60.7126 54.9146 62.2415 54.2363 62.5412 54.5542C62.8409 54.872 61.8022 56.064 60.2275 57.2175Z" fill="url(#paint3_radial_105_1290)"/>
<path d="M45.2246 44.6163C45.4953 52.7231 45.6367 56.9551 46.1347 71.8666C48.1803 60.72 81.0635 42.6343 81.0635 42.6343L80.9072 36.3639C80.8981 36.3556 45.5367 53.9617 45.2246 44.6163Z" fill="white"/>
<path d="M44.9808 44.6194C45.2515 52.7248 45.3928 56.9561 45.8907 71.8648C47.936 60.7202 80.8137 42.6377 80.8137 42.6377L80.7227 36.4664C80.7227 36.4664 45.2928 53.9632 44.9808 44.6194Z" fill="url(#paint4_linear_105_1290)"/>
<mask id="mask0_105_1290" style="mask-type:alpha" maskUnits="userSpaceOnUse" x="45" y="35" width="36" height="38">
<path d="M45.4245 44.7245C45.6008 53.0032 45.6928 57.325 46.017 72.5527C48.1474 61.1282 80.6169 42.0839 80.6169 42.0839L80.5957 35.7786C80.5957 35.7786 45.6277 54.2682 45.4245 44.7245Z" fill="url(#paint5_linear_105_1290)"/>
</mask>
<g mask="url(#mask0_105_1290)">
<path opacity="0.2" d="M79.6011 38.6798C79.6293 40.5347 79.9496 42.0445 80.3166 42.052C80.6835 42.0595 80.9582 40.5618 80.93 38.707C80.9018 36.8521 80.5814 35.3423 80.2145 35.3348C79.8475 35.3273 79.5729 36.8249 79.6011 38.6798Z" fill="url(#paint6_radial_105_1290)"/>
<path opacity="0.2" d="M43.8887 58.4381C44.0359 68.5793 45.6286 76.8293 47.4462 76.8651C49.2638 76.9008 50.6178 68.7087 50.4706 58.5675C50.3234 48.4263 48.7307 40.1763 46.9131 40.1406C45.0956 40.1049 43.7415 48.2969 43.8887 58.4381Z" fill="url(#paint7_radial_105_1290)"/>
</g>
<path d="M25.367 59.3994C25.3657 59.3544 25.364 59.2944 25.362 59.2269L30.9971 59.4354C30.999 59.5029 31.0007 59.5629 31.0018 59.6004C31.0206 60.2533 30.4448 61.4762 29.7555 61.4507C29.0662 61.4252 27.2482 61.3579 26.714 61.3382C26.18 61.3259 25.3919 60.2624 25.367 59.3994Z" fill="white"/>
<path d="M25.409 59.3491C25.4077 59.3041 25.406 59.244 25.404 59.1765L31.0391 59.385C31.041 59.4525 31.0427 59.5126 31.0438 59.5501C31.0626 60.2029 30.4868 61.4259 29.7975 61.4004C29.1082 61.3749 27.2902 61.3076 26.756 61.2878C26.222 61.2756 25.4339 60.212 25.409 59.3491Z" fill="url(#paint8_linear_105_1290)"/>
<path opacity="0.2" d="M25.4824 58.9289C25.4904 59.2644 26.748 59.575 28.2913 59.6227C29.8346 59.6703 31.0792 59.4369 31.0712 59.1014C31.0631 58.7658 29.8056 58.4552 28.2623 58.4076C26.719 58.36 25.4744 58.5933 25.4824 58.9289Z" fill="url(#paint9_radial_105_1290)"/>
<path d="M25.2532 54.158C25.2517 54.1093 25.2504 54.0687 25.2491 54.0281C25.1276 50.2047 26.3657 47.1669 28.0224 47.235C29.6792 47.3031 31.1142 50.459 31.2355 54.2742C31.237 54.3229 31.2383 54.3635 31.2396 54.4041C31.2396 54.4041 31.3565 58.0813 31.39 59.1366L25.4036 58.8905C25.366 57.7053 25.2532 54.158 25.2532 54.158Z" fill="white"/>
<path d="M25.3206 54.158C25.3193 54.1174 25.3178 54.0687 25.3165 54.0281C25.1949 50.2048 26.4422 47.1673 28.0898 47.235C29.7466 47.3031 31.1816 50.459 31.3028 54.2742C31.3044 54.3229 31.3057 54.3635 31.307 54.4041C31.307 54.4041 31.4239 58.0814 31.4574 59.1366L25.471 58.8905C25.4333 57.7054 25.3206 54.158 25.3206 54.158Z" fill="url(#paint10_linear_105_1290)"/>
<path opacity="0.2" d="M27.6089 57.4163C29.2641 58.707 30.842 59.5173 31.1216 59.224C31.4011 58.9308 30.2809 57.6471 28.6257 56.3564C26.9706 55.0657 25.3926 54.2554 25.1131 54.5486C24.8335 54.8419 25.9538 56.1255 27.6089 57.4163Z" fill="url(#paint11_radial_105_1290)"/>
<path d="M41.9935 46.405C42.2643 54.5118 42.4057 58.7439 42.9037 73.6553C40.1065 62.2998 5.91855 41.3203 5.91855 41.3203L5.65582 35.0454C5.66469 35.0458 42.3057 55.7505 41.9935 46.405Z" fill="white"/>
<path d="M42.2256 46.4105C42.4963 54.5158 42.6377 58.7471 43.1356 73.6558C40.3389 62.3024 6.15678 41.3268 6.15678 41.3268L5.83521 35.1456C5.84408 35.1459 42.5377 55.7542 42.2256 46.4105Z" fill="url(#paint12_linear_105_1290)"/>
<mask id="mask1_105_1290" style="mask-type:alpha" maskUnits="userSpaceOnUse" x="6" y="35" width="37" height="39">
<path d="M41.9856 45.9303C42.1619 54.209 42.2539 58.5308 42.5782 73.7584C39.9584 62.2036 6.63944 41.3544 6.63944 41.3544L6.39201 35.043C6.40071 35.0432 42.1888 55.4739 41.9856 45.9303Z" fill="url(#paint13_linear_105_1290)"/>
</mask>
<g mask="url(#mask1_105_1290)">
<path opacity="0.2" d="M37.3301 58.6732C37.4773 68.8144 39.07 77.0644 40.8876 77.1002C42.7052 77.1359 44.0592 68.9438 43.912 58.8026C43.7648 48.6615 42.1721 40.4114 40.3545 40.3757C38.537 40.34 37.1829 48.532 37.3301 58.6732Z" fill="url(#paint14_radial_105_1290)"/>
<path opacity="0.2" d="M6.87845 38.9065C6.90665 40.7613 7.22697 42.2711 7.59392 42.2786C7.96087 42.2861 8.23549 40.7885 8.2073 38.9336C8.17911 37.0787 7.85878 35.569 7.49183 35.5615C7.12488 35.554 6.85026 37.0516 6.87845 38.9065Z" fill="url(#paint15_radial_105_1290)"/>
</g>
<path d="M80.5453 41.1855C80.3792 41.1821 80.2108 39.5534 80.2059 39.2032C80.2009 38.853 80.2621 33.6449 80.4385 33.6485C80.6047 33.6519 80.8237 38.8574 80.8288 39.2159C80.8337 39.566 80.7218 41.1891 80.5453 41.1855Z" fill="white"/>
<path d="M80.5437 41.1106C80.3774 41.1073 80.2198 39.4952 80.215 39.145C80.2101 38.7948 80.2734 33.6358 80.4397 33.6392C80.6061 33.6425 80.8131 38.8069 80.818 39.1571C80.8228 39.5073 80.7101 41.114 80.5437 41.1106Z" fill="url(#paint16_linear_105_1290)"/>
<path d="M7.37049 41.4038C7.5366 41.4072 7.65892 39.7843 7.65396 39.4341C7.649 39.084 7.44023 33.8703 7.26374 33.8667C7.09763 33.8634 7.02598 39.063 7.03105 39.4215C7.03613 39.78 7.20438 41.4004 7.37049 41.4038Z" fill="white"/>
<path d="M7.36895 41.3375C7.53529 41.3408 7.64804 39.7341 7.64316 39.3839C7.63829 39.0337 7.43125 33.8693 7.2649 33.866C7.09856 33.8626 7.03528 39.0216 7.04016 39.3718C7.04504 39.722 7.2026 41.3341 7.36895 41.3375Z" fill="url(#paint17_linear_105_1290)"/>
<path d="M43.8621 10.6629C45.2813 11.553 53.9474 8.28645 58.3896 7.40472C58.3896 10.0751 58.3896 10.0751 58.3896 10.0751C58.3896 10.0751 44.156 20.807 43.8621 23.0071C43.8621 10.6629 43.8621 22.9987 43.8621 10.6629Z" fill="white"/>
<path d="M43.7284 10.6293C45.1475 11.5195 53.8136 8.32006 58.2559 7.42993C58.2559 10.1003 58.2559 10.0331 58.2559 10.0331C58.2559 10.0331 44.0223 20.765 43.7284 22.9651C43.7284 10.6293 43.7284 22.9651 43.7284 10.6293Z" fill="url(#paint18_linear_105_1290)"/>
<mask id="mask2_105_1290" style="mask-type:alpha" maskUnits="userSpaceOnUse" x="43" y="7" width="16" height="16">
<path d="M43.7284 10.6293C45.1475 11.5195 53.8136 8.32006 58.2559 7.42993C58.2559 10.1003 58.2559 10.0331 58.2559 10.0331C58.2559 10.0331 44.0223 20.765 43.7284 22.9651C43.7284 10.6293 43.7284 22.9651 43.7284 10.6293Z" fill="url(#paint19_linear_105_1290)"/>
</mask>
<g mask="url(#mask2_105_1290)">
<path opacity="0.2" d="M48.1691 14.6533C48.547 17.2817 48.3118 19.4902 47.6484 19.5826C46.985 19.675 46.1369 17.626 45.759 14.9976C45.3811 12.3692 45.6163 10.1607 46.2797 10.0683C46.9431 9.96757 47.7912 12.0249 48.1691 14.6533Z" fill="url(#paint20_radial_105_1290)"/>
</g>
<path d="M43.9385 10.9064C42.5193 11.7966 33.8532 8.52998 29.411 7.64825C29.411 10.3186 29.411 10.3186 29.411 10.3186C29.411 10.3186 43.6446 21.0505 43.9385 23.2506C43.9385 10.9064 43.9385 23.2422 43.9385 10.9064Z" fill="white"/>
<mask id="mask3_105_1290" style="mask-type:alpha" maskUnits="userSpaceOnUse" x="29" y="7" width="15" height="17">
<path d="M43.9385 10.9064C42.5193 11.7966 33.8532 8.52998 29.411 7.64825C29.411 10.3186 29.411 10.3186 29.411 10.3186C29.411 10.3186 43.6446 21.0505 43.9385 23.2506C43.9385 10.9064 43.9385 23.2422 43.9385 10.9064Z" fill="white"/>
</mask>
<g mask="url(#mask3_105_1290)">
<path d="M44.0723 10.8644C42.6531 11.7546 33.987 8.55516 29.5448 7.66504C29.5448 10.3354 29.5448 10.2682 29.5448 10.2682C29.5448 10.2682 43.7784 21.0001 44.0723 23.2002C44.0723 10.8645 44.0723 23.2002 44.0723 10.8644Z" fill="url(#paint21_linear_105_1290)"/>
<path opacity="0.2" d="M39.7649 15.0212C39.387 17.6496 39.6221 19.8581 40.2855 19.9505C40.9489 20.0428 41.7971 17.9939 42.1749 15.3655C42.5528 12.7371 42.3177 10.5286 41.6543 10.4362C40.9909 10.3438 40.1428 12.3928 39.7649 15.0212Z" fill="url(#paint22_radial_105_1290)"/>
</g>
<path d="M47.8936 80.0003C47.8936 80.0003 47.8936 47.3679 47.8936 26.8615C47.8936 6.35503 44.0979 8.11848 44.0979 8.11848C44.0979 8.11848 40.3023 6.35503 40.3023 26.8615C40.3023 47.3679 40.3023 80.0003 40.3023 80.0003C40.3023 80.0003 41.1336 91.7398 44.0979 91.7398C47.0622 91.7398 47.8936 80.0003 47.8936 80.0003Z" fill="white"/>
<path d="M47.6582 80.0002C47.6582 80.0002 47.6582 47.3679 47.6582 26.8615C47.6582 6.355 43.8626 8.11845 43.8626 8.11845C43.8626 8.11845 40.067 6.355 40.067 26.8615C40.067 47.3679 40.067 80.0002 40.067 80.0002C40.067 80.0002 40.8983 91.7398 43.8626 91.7398C46.8269 91.7398 47.6582 80.0002 47.6582 80.0002Z" fill="url(#paint23_radial_105_1290)"/>
<path opacity="0.2" d="M42.2164 19.749C42.2164 26.1723 42.9458 31.3794 43.8455 31.3794C44.7452 31.3794 45.4746 26.1723 45.4746 19.749C45.4746 13.3257 44.7452 8.11856 43.8455 8.11856C42.9458 8.11856 42.2164 13.3257 42.2164 19.749Z" fill="url(#paint24_radial_105_1290)"/>
<path d="M43.8628 25.4928C43.4849 25.4928 43.1826 21.504 43.1826 20.6307C43.1826 19.7574 43.4849 6.95972 43.8628 6.95972C44.2407 6.95972 44.543 19.7574 44.543 20.6307C44.543 21.504 44.2407 25.4928 43.8628 25.4928Z" fill="white"/>
<path d="M43.8464 25.3079C43.4769 25.3079 43.183 21.3528 43.183 20.4962C43.183 19.6313 43.4769 6.96802 43.8464 6.96802C44.2159 6.96802 44.5098 19.6397 44.5098 20.4962C44.5014 21.3528 44.2075 25.3079 43.8464 25.3079Z" fill="url(#paint25_linear_105_1290)"/>
<path opacity="0.5" d="M43.8627 87.1046C42.5863 87.1046 41.9062 86.0717 41.9062 85.5091C41.9062 84.9464 42.7627 85.1815 43.8627 85.1815C44.9712 85.1815 45.9033 84.9632 45.9033 85.5258C45.9033 86.0885 45.2231 87.0962 43.8627 87.1046Z" fill="url(#paint26_radial_105_1290)"/>
<path opacity="0.5" d="M46.0205 84.5517V85.5378C46.0205 85.5378 44.0905 87.8537 41.7378 85.5378C41.7378 84.5517 41.7378 84.5517 41.7378 84.5517C41.7378 84.5517 44.1181 85.9087 46.0205 84.5517Z" fill="white"/>
<path opacity="0.5" d="M46.0205 84.5517V85.5378C46.0205 85.5378 44.0905 87.8537 41.7378 85.5378C41.7378 84.5517 41.7378 84.5517 41.7378 84.5517C41.7378 84.5517 44.1273 85.9087 46.0205 84.5517Z" fill="url(#paint27_linear_105_1290)"/>
</g>
<defs>
<filter id="filter0_dd_105_1290" x="0.65625" y="0.959717" width="95.4072" height="104.78" filterUnits="userSpaceOnUse" color-interpolation-filters="sRGB">
<feFlood flood-opacity="0" result="BackgroundImageFix"/>
<feColorMatrix in="SourceAlpha" type="matrix" values="0 0 0 0 0 0 0 0 0 0 0 0 0 0 0 0 0 0 127 0" result="hardAlpha"/>
<feOffset dx="3"/>
<feGaussianBlur stdDeviation="1.5"/>
<feColorMatrix type="matrix" values="0 0 0 0 0.555208 0 0 0 0 0.752283 0 0 0 0 0.8125 0 0 0 0.4 0"/>
<feBlend mode="normal" in2="BackgroundImageFix" result="effect1_dropShadow_105_1290"/>
<feColorMatrix in="SourceAlpha" type="matrix" values="0 0 0 0 0 0 0 0 0 0 0 0 0 0 0 0 0 0 127 0" result="hardAlpha"/>
<feOffset dx="5" dy="4"/>
<feGaussianBlur stdDeviation="5"/>
<feColorMatrix type="matrix" values="0 0 0 0 0.556863 0 0 0 0 0.752941 0 0 0 0 0.811765 0 0 0 0.5 0"/>
<feBlend mode="normal" in2="effect1_dropShadow_105_1290" result="effect2_dropShadow_105_1290"/>
<feBlend mode="normal" in="SourceGraphic" in2="effect2_dropShadow_105_1290" result="shape"/>
</filter>
<linearGradient id="paint0_linear_105_1290" x1="59.5192" y1="59.0463" x2="59.4429" y2="61.1081" gradientUnits="userSpaceOnUse">
<stop stop-color="#EDF8FE"/>
<stop offset="1" stop-color="white"/>
</linearGradient>
<radialGradient id="paint1_radial_105_1290" cx="0" cy="0" r="1" gradientUnits="userSpaceOnUse" gradientTransform="translate(59.5149 58.7798) rotate(88.6304) scale(0.607787 2.78787)">
<stop stop-color="#7CAEBE"/>
<stop offset="1" stop-color="#EAF7FE"/>
</radialGradient>
<linearGradient id="paint2_linear_105_1290" x1="59.3307" y1="46.9881" x2="58.8478" y2="58.7347" gradientUnits="userSpaceOnUse">
<stop stop-color="white"/>
<stop offset="1" stop-color="#EAF7FE"/>
</linearGradient>
<radialGradient id="paint3_radial_105_1290" cx="0" cy="0" r="1" gradientUnits="userSpaceOnUse" gradientTransform="translate(59.6826 56.6426) rotate(88.1133) scale(2.28323 2.96869)">
<stop stop-color="#7CAEBE"/>
<stop offset="1" stop-color="#EDF8FE"/>
</radialGradient>
<linearGradient id="paint4_linear_105_1290" x1="62.926" y1="42.6957" x2="61.3369" y2="79.5302" gradientUnits="userSpaceOnUse">
<stop stop-color="#EFF9FE"/>
<stop offset="1" stop-color="#E1F4FD"/>
</linearGradient>
<linearGradient id="paint5_linear_105_1290" x1="63.0592" y1="42.4503" x2="62.0251" y2="80.1467" gradientUnits="userSpaceOnUse">
<stop stop-color="white"/>
<stop offset="1" stop-color="#E1F4FD"/>
</linearGradient>
<radialGradient id="paint6_radial_105_1290" cx="0" cy="0" r="1" gradientUnits="userSpaceOnUse" gradientTransform="translate(80.2655 38.693) rotate(89.1291) scale(3.35933 0.663275)">
<stop stop-color="#7CAEBE"/>
<stop offset="1" stop-color="#EAF7FE"/>
</radialGradient>
<radialGradient id="paint7_radial_105_1290" cx="0" cy="0" r="1" gradientUnits="userSpaceOnUse" gradientTransform="translate(47.1794 58.5008) rotate(89.1684) scale(18.3662 3.2854)">
<stop stop-color="#7CAEBE"/>
<stop offset="1" stop-color="#EAF7FE"/>
</radialGradient>
<linearGradient id="paint8_linear_105_1290" x1="28.2213" y1="59.2815" x2="28.145" y2="61.3433" gradientUnits="userSpaceOnUse">
<stop stop-color="#EDF8FE"/>
<stop offset="1" stop-color="white"/>
</linearGradient>
<radialGradient id="paint9_radial_105_1290" cx="0" cy="0" r="1" gradientUnits="userSpaceOnUse" gradientTransform="translate(28.2766 59.0151) rotate(88.6304) scale(0.607787 2.78787)">
<stop stop-color="#7CAEBE"/>
<stop offset="1" stop-color="#EAF7FE"/>
</radialGradient>
<linearGradient id="paint10_linear_105_1290" x1="28.0846" y1="47.2316" x2="27.6017" y2="58.9782" gradientUnits="userSpaceOnUse">
<stop stop-color="white"/>
<stop offset="1" stop-color="#EAF7FE"/>
</linearGradient>
<radialGradient id="paint11_radial_105_1290" cx="0" cy="0" r="1" gradientUnits="userSpaceOnUse" gradientTransform="translate(28.1171 56.8861) rotate(88.1133) scale(2.28323 2.96869)">
<stop stop-color="#7CAEBE"/>
<stop offset="1" stop-color="#EDF8FE"/>
</radialGradient>
<linearGradient id="paint12_linear_105_1290" x1="24.107" y1="42.9329" x2="22.5179" y2="79.7674" gradientUnits="userSpaceOnUse">
<stop stop-color="#EFF9FE"/>
<stop offset="1" stop-color="#E1F4FD"/>
</linearGradient>
<linearGradient id="paint13_linear_105_1290" x1="24.2402" y1="42.6875" x2="23.206" y2="80.3839" gradientUnits="userSpaceOnUse">
<stop stop-color="white"/>
<stop offset="1" stop-color="#E1F4FD"/>
</linearGradient>
<radialGradient id="paint14_radial_105_1290" cx="0" cy="0" r="1" gradientUnits="userSpaceOnUse" gradientTransform="translate(40.6208 58.7359) rotate(89.1684) scale(18.3662 3.2854)">
<stop stop-color="#7CAEBE"/>
<stop offset="1" stop-color="#EAF7FE"/>
</radialGradient>
<radialGradient id="paint15_radial_105_1290" cx="0" cy="0" r="1" gradientUnits="userSpaceOnUse" gradientTransform="translate(7.54283 38.9197) rotate(89.1292) scale(3.3593 0.663273)">
<stop stop-color="#7CAEBE"/>
<stop offset="1" stop-color="#EAF7FE"/>
</radialGradient>
<linearGradient id="paint16_linear_105_1290" x1="80.4378" y1="33.6358" x2="80.288" y2="41.1047" gradientUnits="userSpaceOnUse">
<stop stop-color="#EFF9FE"/>
<stop offset="0.1998" stop-color="white"/>
<stop offset="0.4039" stop-color="white"/>
<stop offset="0.6071" stop-color="white"/>
<stop offset="0.807" stop-color="#EEF8FE"/>
<stop offset="1" stop-color="#EEF9FE"/>
</linearGradient>
<linearGradient id="paint17_linear_105_1290" x1="7.26301" y1="33.8626" x2="7.11315" y2="41.3315" gradientUnits="userSpaceOnUse">
<stop stop-color="#EFF9FE"/>
<stop offset="0.1998" stop-color="white"/>
<stop offset="0.4039" stop-color="white"/>
<stop offset="0.6071" stop-color="white"/>
<stop offset="0.807" stop-color="#EEF8FE"/>
<stop offset="1" stop-color="#EEF9FE"/>
</linearGradient>
<linearGradient id="paint18_linear_105_1290" x1="50.9935" y1="10.4243" x2="50.9935" y2="25.9581" gradientUnits="userSpaceOnUse">
<stop stop-color="#EFF9FE"/>
<stop offset="1" stop-color="#E1F4FD"/>
</linearGradient>
<linearGradient id="paint19_linear_105_1290" x1="50.9935" y1="10.4243" x2="50.9935" y2="25.9581" gradientUnits="userSpaceOnUse">
<stop stop-color="#EFF9FE"/>
<stop offset="1" stop-color="#E1F4FD"/>
</linearGradient>
<radialGradient id="paint20_radial_105_1290" cx="0" cy="0" r="1" gradientUnits="userSpaceOnUse" gradientTransform="translate(46.964 14.8247) rotate(90) scale(4.76093 1.38375)">
<stop stop-color="#7CAEBE"/>
<stop offset="1" stop-color="#EAF7FE"/>
</radialGradient>
<linearGradient id="paint21_linear_105_1290" x1="36.8053" y1="10.6615" x2="36.8053" y2="26.1954" gradientUnits="userSpaceOnUse">
<stop stop-color="#EFF9FE"/>
<stop offset="1" stop-color="#E1F4FD"/>
</linearGradient>
<radialGradient id="paint22_radial_105_1290" cx="0" cy="0" r="1" gradientUnits="userSpaceOnUse" gradientTransform="translate(40.9698 15.1928) rotate(90) scale(4.76066 1.38375)">
<stop stop-color="#7CAEBE"/>
<stop offset="1" stop-color="#EAF7FE"/>
</radialGradient>
<radialGradient id="paint23_radial_105_1290" cx="0" cy="0" r="1" gradientUnits="userSpaceOnUse" gradientTransform="translate(43.5057 33.58) rotate(90) scale(60.5749 4.15162)">
<stop stop-color="white"/>
<stop offset="1" stop-color="#E1F4FD"/>
</radialGradient>
<radialGradient id="paint24_radial_105_1290" cx="0" cy="0" r="1" gradientUnits="userSpaceOnUse" gradientTransform="translate(43.8454 19.7477) rotate(90) scale(11.6317 1.62697)">
<stop stop-color="#7CAEBE"/>
<stop offset="1" stop-color="#EAF7FE"/>
</radialGradient>
<linearGradient id="paint25_linear_105_1290" x1="43.8423" y1="6.95983" x2="43.8423" y2="25.306" gradientUnits="userSpaceOnUse">
<stop stop-color="#EFF9FE"/>
<stop offset="0.1998" stop-color="white"/>
<stop offset="0.4039" stop-color="white"/>
<stop offset="0.6071" stop-color="white"/>
<stop offset="0.807" stop-color="#EEF8FE"/>
<stop offset="1" stop-color="#EEF9FE"/>
</linearGradient>
<radialGradient id="paint26_radial_105_1290" cx="0" cy="0" r="1" gradientUnits="userSpaceOnUse" gradientTransform="translate(43.9046 86.1186) rotate(90) scale(0.985981 1.99597)">
<stop stop-color="#7CAEBE"/>
<stop offset="1" stop-color="#EAF7FE"/>
</radialGradient>
<linearGradient id="paint27_linear_105_1290" x1="41.0046" y1="83.6943" x2="45.8615" y2="86.2486" gradientUnits="userSpaceOnUse">
<stop stop-color="#828C93"/>
<stop offset="0.0829433" stop-color="#89939A"/>
<stop offset="0.2223" stop-color="#9DA8AE"/>
<stop offset="0.4" stop-color="#BFCAD0"/>
<stop offset="0.5113" stop-color="#D8E2E7"/>
<stop offset="0.6233" stop-color="#A8B3B9"/>
<stop offset="0.7541" stop-color="#798389"/>
<stop offset="0.865" stop-color="#586066"/>
<stop offset="0.9504" stop-color="#41474C"/>
<stop offset="1" stop-color="#373D42"/>
</linearGradient>
</defs>
</svg>
