<svg width="107" height="82" viewBox="0 0 107 82" fill="none" xmlns="http://www.w3.org/2000/svg">
<g filter="url(#filter0_d_105_1172)">
<path d="M42.5199 57.1504C37.8956 57.1504 33.5026 55.1851 30.3812 51.7169L30.2078 51.5435L29.9766 51.7169C27.6644 53.451 24.832 54.3758 21.9419 54.3758C14.543 54.3758 8.47363 48.3065 8.47363 40.9076C8.47363 35.0694 12.1731 29.9827 17.7222 28.133L17.9534 28.0752V27.844C17.9534 27.6128 17.9534 27.3816 17.9534 27.1504C17.9534 17.3238 25.9303 9.34686 35.7569 9.34686C41.3639 9.34686 46.5662 11.948 49.9766 16.3989L50.15 16.6301L50.3812 16.4567C52.809 14.4336 55.9303 13.3353 59.1095 13.3353C66.046 13.3353 71.8841 18.4798 72.809 25.3584V25.5319L72.9824 25.5897C78.3003 27.6706 81.7685 32.6995 81.7685 38.4799C81.7685 46.1099 75.5836 52.2949 67.9535 52.2949C64.0807 52.2949 60.3812 50.6764 57.7223 47.7862L57.4332 47.4394L57.2598 47.844C54.6009 53.451 48.8205 57.1504 42.5199 57.1504Z" fill="url(#paint0_linear_105_1172)"/>
<path d="M35.7567 9.57804C41.3058 9.57804 46.3925 12.1214 49.7451 16.5145L50.092 16.9769L50.5544 16.5723C52.9821 14.6069 55.9879 13.5087 59.1093 13.5087C65.8723 13.5087 71.6527 18.5376 72.5197 25.2428L72.5775 25.5896L72.9244 25.7052C78.1267 27.7283 81.5371 32.6995 81.5371 38.3064C81.5371 45.7631 75.4677 51.8324 68.0111 51.8324C64.196 51.8324 60.5544 50.2139 58.0111 47.4394L57.433 46.8035L57.0862 47.6128C54.485 53.2197 48.7625 56.8035 42.6353 56.8035C38.1266 56.8035 33.7914 54.8382 30.7278 51.4856L30.381 51.081L29.9763 51.37C27.6642 53.0463 24.9474 53.9712 22.115 53.9712C14.8318 53.9712 8.93583 48.0752 8.93583 40.792C8.93583 35.1272 12.5775 30.0983 17.9532 28.3064L18.3578 28.1908V27.7283C18.3578 27.4971 18.3578 27.2659 18.3578 27.0347C18.2422 17.4393 26.1035 9.57804 35.7567 9.57804ZM35.7567 9C25.7567 9 17.6642 17.0925 17.6642 27.0925C17.6642 27.3237 17.6642 27.5549 17.6642 27.7862C12.1728 29.5781 8.24219 34.7804 8.24219 40.8498C8.24219 48.422 14.4272 54.607 21.9994 54.607C25.063 54.607 27.8954 53.5665 30.2075 51.8902C33.2133 55.3006 37.6642 57.3816 42.5197 57.3816C49.1671 57.3816 54.8318 53.5087 57.4908 47.844C60.092 50.6764 63.7914 52.4683 67.8955 52.4683C75.6989 52.4683 81.9995 46.1677 81.9995 38.3642C81.9995 32.4104 78.3001 27.2659 73.04 25.2428C72.1151 18.3064 66.2192 12.9884 59.0515 12.9884C55.6989 12.9884 52.5775 14.2023 50.1498 16.1676C46.855 11.8324 41.6526 9 35.7567 9Z" fill="url(#paint1_linear_105_1172)"/>
</g>
<defs>
<filter id="filter0_d_105_1172" x="0.234164" y="0.991977" width="105.79" height="80.4137" filterUnits="userSpaceOnUse" color-interpolation-filters="sRGB">
<feFlood flood-opacity="0" result="BackgroundImageFix"/>
<feColorMatrix in="SourceAlpha" type="matrix" values="0 0 0 0 0 0 0 0 0 0 0 0 0 0 0 0 0 0 127 0" result="hardAlpha"/>
<feOffset dx="8.00802" dy="8.00802"/>
<feGaussianBlur stdDeviation="8.00802"/>
<feColorMatrix type="matrix" values="0 0 0 0 0.555208 0 0 0 0 0.752283 0 0 0 0 0.8125 0 0 0 0.5 0"/>
<feBlend mode="normal" in2="BackgroundImageFix" result="effect1_dropShadow_105_1172"/>
<feBlend mode="normal" in="SourceGraphic" in2="effect1_dropShadow_105_1172" result="shape"/>
</filter>
<linearGradient id="paint0_linear_105_1172" x1="22.3715" y1="33.2455" x2="95.6703" y2="33.2455" gradientUnits="userSpaceOnUse">
<stop stop-color="white"/>
<stop offset="1" stop-color="#E1F4FD"/>
</linearGradient>
<linearGradient id="paint1_linear_105_1172" x1="22.2277" y1="33.1876" x2="95.989" y2="33.1876" gradientUnits="userSpaceOnUse">
<stop stop-color="white"/>
<stop offset="1" stop-color="#E1F4FD"/>
</linearGradient>
</defs>
</svg>
