<svg width="31" height="31" viewBox="0 0 31 31" fill="none" xmlns="http://www.w3.org/2000/svg">
<path d="M15.5 31C24.0604 31 31 24.0604 31 15.5C31 6.93959 24.0604 0 15.5 0C6.93959 0 0 6.93959 0 15.5C0 24.0604 6.93959 31 15.5 31Z" fill="#039BE5"/>
<path d="M7.09227 15.1642L22.0369 9.40203C22.7305 9.15145 23.3363 9.57124 23.1115 10.6201L23.1128 10.6188L20.5682 22.6067C20.3796 23.4567 19.8746 23.6633 19.1681 23.2629L15.2931 20.407L13.424 22.2076C13.2174 22.4143 13.043 22.5887 12.6426 22.5887L12.9177 18.6452L20.0994 12.1572C20.4119 11.882 20.0296 11.727 19.6176 12.0009L10.7425 17.5886L6.9166 16.3951C6.08606 16.1316 6.06798 15.5646 7.09227 15.1642Z" fill="white"/>
</svg>
