<svg width="1920" height="4695" viewBox="0 0 1920 4695" fill="none" xmlns="http://www.w3.org/2000/svg">
<g clip-path="url(#clip0_105_1104)">
<rect width="1920" height="4695" fill="white"/>
<path d="M890.025 4367.09C796.659 4444.38 913.368 4639.71 1035.45 4632.09C1118.8 4626.89 1048.96 4502.49 984.256 4529.44C939.718 4547.99 928.774 4617.93 964.435 4694.75" stroke="url(#paint0_linear_105_1104)" stroke-width="2" stroke-miterlimit="10" stroke-dasharray="8.16 8.16"/>
<ellipse rx="3.07995" ry="5.81438" transform="matrix(-1.29472 -0.258663 0.174106 0.72292 921.609 4374.75)" fill="#CAEAF4"/>
<path d="M845.421 2867.74C817.808 2972.05 636.907 3106.19 514.855 2915.96C392.803 2725.73 185.924 2832.64 336.559 3011.01C471.351 3127.81 598.996 3015.52 590.014 3219.26C587.947 3266.17 605.19 3421.66 720.263 3433.01C835.335 3444.36 756.651 3266.65 653.444 3304.79C389.384 3402.39 420.503 3572.13 567.601 3617.42C651.234 3643.17 653.313 3592.19 696.18 3583.96C728.71 3577.72 805.064 3595.28 840.915 3694.44C924.009 3924.3 566.205 3873.15 588.126 3745.59C610.046 3618.03 877.233 3859.74 581.639 3926.48C383.943 3971.11 526.234 4149.36 636.415 4080.96C746.596 4012.56 823.913 4058.74 889.586 4109.08C915.112 4128.64 948.898 4158.25 965.803 4182.2" stroke="url(#paint1_linear_105_1104)" stroke-width="2" stroke-miterlimit="10" stroke-dasharray="8.16 8.16"/>
<ellipse rx="3.21013" ry="6.93624" transform="matrix(-1.3427 -0.150874 0.0994436 0.651026 945.364 2839.76)" fill="#CAEAF4"/>
<ellipse rx="3.21013" ry="6.93624" transform="matrix(-1.3427 -0.150874 0.0994436 0.651026 629.364 3224.76)" fill="#CAEAF4"/>
<path d="M627.294 3211.21C620.154 3210.41 615.291 3215.82 616.433 3223.3C617.576 3230.78 624.292 3237.5 631.433 3238.3C638.573 3239.1 643.436 3233.69 642.294 3226.21C641.151 3218.73 634.435 3212.01 627.294 3211.21Z" fill="#CAEAF4"/>
<ellipse rx="4.81497" ry="10.4039" transform="matrix(-1.3427 -0.150874 0.0994436 0.651026 629.364 3224.76)" fill="white"/>
<ellipse rx="3.21013" ry="6.93624" transform="matrix(-1.3427 -0.150874 0.0994436 0.651026 792.364 3369.76)" fill="#CAEAF4"/>
<path d="M790.294 3356.21C783.154 3355.41 778.291 3360.82 779.433 3368.3C780.576 3375.78 787.292 3382.5 794.433 3383.3C801.573 3384.1 806.436 3378.69 805.294 3371.21C804.151 3363.73 797.435 3357.01 790.294 3356.21Z" fill="#CAEAF4"/>
<ellipse rx="4.81497" ry="10.4039" transform="matrix(-1.3427 -0.150874 0.0994436 0.651026 792.364 3369.76)" fill="white"/>
<ellipse rx="3.21013" ry="6.93624" transform="matrix(-1.3427 -0.150874 0.0994436 0.651026 451.364 3504.76)" fill="#CAEAF4"/>
<path d="M449.294 3491.21C442.154 3490.41 437.291 3495.82 438.433 3503.3C439.576 3510.78 446.292 3517.5 453.433 3518.3C460.573 3519.1 465.436 3513.69 464.294 3506.21C463.151 3498.73 456.435 3492.01 449.294 3491.21Z" fill="#CAEAF4"/>
<ellipse rx="4.81497" ry="10.4039" transform="matrix(-1.3427 -0.150874 0.0994436 0.651026 451.364 3504.76)" fill="white"/>
<ellipse rx="3.21013" ry="6.93624" transform="matrix(-1.3427 -0.150874 0.0994436 0.651026 796.364 3647.76)" fill="#CAEAF4"/>
<path d="M794.294 3634.21C787.154 3633.41 782.291 3638.82 783.433 3646.3C784.576 3653.78 791.292 3660.5 798.433 3661.3C805.573 3662.1 810.436 3656.69 809.294 3649.21C808.151 3641.73 801.435 3635.01 794.294 3634.21Z" fill="#CAEAF4"/>
<ellipse rx="4.81497" ry="10.4039" transform="matrix(-1.3427 -0.150874 0.0994436 0.651026 796.364 3647.76)" fill="white"/>
<ellipse rx="3.21013" ry="6.93624" transform="matrix(-1.3427 -0.150874 0.0994436 0.651026 538.364 3792.76)" fill="#CAEAF4"/>
<path d="M536.294 3779.21C529.154 3778.41 524.291 3783.82 525.433 3791.3C526.576 3798.78 533.292 3805.5 540.433 3806.3C547.573 3807.1 552.436 3801.69 551.294 3794.21C550.151 3786.73 543.435 3780.01 536.294 3779.21Z" fill="#CAEAF4"/>
<ellipse rx="4.81497" ry="10.4039" transform="matrix(-1.3427 -0.150874 0.0994436 0.651026 538.364 3792.76)" fill="white"/>
<ellipse rx="3.21013" ry="6.93624" transform="matrix(-1.3427 -0.150874 0.0994436 0.651026 536.364 3932.76)" fill="#CAEAF4"/>
<path d="M534.294 3919.21C527.154 3918.41 522.291 3923.82 523.433 3931.3C524.576 3938.78 531.292 3945.5 538.433 3946.3C545.573 3947.1 550.436 3941.69 549.294 3934.21C548.151 3926.73 541.435 3920.01 534.294 3919.21Z" fill="#CAEAF4"/>
<ellipse rx="4.81497" ry="10.4039" transform="matrix(-1.3427 -0.150874 0.0994436 0.651026 536.364 3932.76)" fill="white"/>
<ellipse rx="3.21013" ry="6.93624" transform="matrix(-1.3427 -0.150874 0.0994436 0.651026 563.364 4077.76)" fill="#CAEAF4"/>
<path d="M561.294 4064.21C554.154 4063.41 549.291 4068.82 550.433 4076.3C551.576 4083.78 558.292 4090.5 565.433 4091.3C572.573 4092.1 577.436 4086.69 576.294 4079.21C575.151 4071.73 568.435 4065.01 561.294 4064.21Z" fill="#CAEAF4"/>
<ellipse rx="4.81497" ry="10.4039" transform="matrix(-1.3427 -0.150874 0.0994436 0.651026 563.364 4077.76)" fill="white"/>
<ellipse rx="3.21013" ry="6.93624" transform="matrix(-1.3427 -0.150874 0.0994436 0.651026 854.364 4162.76)" fill="#CAEAF4"/>
<path d="M982.851 1813.42C841.612 1913.81 952.918 2143.15 1077.14 2135.52C1202.38 2127.86 1112.81 1995.11 1024.96 2031.49C979.654 2050.25 971.614 2134.57 1007.96 2212.42" stroke="url(#paint2_linear_105_1104)" stroke-width="2" stroke-miterlimit="10" stroke-dasharray="8.16 8.16"/>
<ellipse rx="3.07186" ry="5.82993" transform="matrix(-1.29722 -0.260081 0.174123 0.720603 957.936 2212.42)" fill="#CAEAF4"/>
<ellipse rx="3.07186" ry="5.82993" transform="matrix(-1.29722 -0.260081 0.174123 0.720603 1031.94 1814.42)" fill="#CAEAF4"/>
<path d="M247.819 963.429C338.117 1028.49 326.894 1114.94 291.384 1188.69C203.868 1369.71 63.9109 1275.7 102.507 1199.91C132.676 1141.2 286.576 1137.73 403.673 1211.07" stroke="url(#paint3_linear_105_1104)" stroke-width="2" stroke-miterlimit="10" stroke-dasharray="8.16 8.16"/>
<ellipse rx="3.90996" ry="5.87928" transform="matrix(-1.12586 0.0660926 0.101698 0.80649 378.74 1215.84)" fill="#CAEAF4"/>
<path d="M1665.3 404.588C1665.3 404.588 1663.6 405.738 1660.03 407.62" stroke="#BCE2EE" stroke-width="2" stroke-miterlimit="10"/>
<path d="M1586.13 299.898C1428.33 151.278 1459.51 423.678 1361.02 326.216C1199.52 181.149 1278.6 64.2412 1342.45 135.411C1406.29 206.581 1142.87 441.766 938.378 305.966C733.885 170.165 710.008 19.5723 456.272 136.769C387.047 168.799 335.309 211.135 298.594 257.291M247.659 963.484C-25.9609 715.177 197.737 442.795 329.965 469.459C481.357 499.97 415.642 650.338 298.964 597.57C233.882 568.136 206.132 467.139 241.288 361.834" stroke="url(#paint4_linear_105_1104)" stroke-width="2" stroke-miterlimit="10" stroke-dasharray="8.16 8.16"/>
<ellipse rx="3.67516" ry="7.10044" transform="matrix(1.26171 -0.0332004 0.0511266 0.686998 1584 321)" fill="#B0E2F2"/>
<ellipse rx="3.67516" ry="7.10044" transform="matrix(-1.26171 0.0332005 0.0511267 0.686998 1584 321)" fill="#B0E2F2"/>
<path d="M701.29 961.977C703.162 963.05 704.767 963.97 706.517 965.314" stroke="#BCE2EE" stroke-width="2" stroke-miterlimit="10"/>
<g filter="url(#filter0_dd_105_1104)">
<path d="M136.561 705.724C136.559 705.674 136.557 705.608 136.555 705.533L131.113 705.397C131.116 705.472 131.118 705.538 131.119 705.579C131.143 706.299 131.78 707.687 132.445 707.704C133.111 707.721 134.867 707.765 135.383 707.778C135.898 707.79 136.593 706.675 136.561 705.724Z" fill="white"/>
<path d="M136.519 705.673C136.517 705.623 136.515 705.557 136.513 705.483L131.071 705.347C131.074 705.421 131.076 705.487 131.077 705.529C131.101 706.249 131.738 707.637 132.403 707.653C133.069 707.67 134.825 707.714 135.341 707.727C135.857 707.748 136.551 706.625 136.519 705.673Z" fill="url(#paint5_linear_105_1104)"/>
<path opacity="0.2" d="M131.072 705.193C131.084 705.568 132.316 705.9 133.823 705.935C135.331 705.969 136.542 705.692 136.53 705.317C136.517 704.941 135.285 704.609 133.778 704.575C132.271 704.541 131.059 704.817 131.072 705.193Z" fill="url(#paint6_radial_105_1104)"/>
<path d="M136.679 700.618C136.678 700.567 136.677 700.525 136.676 700.482C136.569 696.495 135.246 693.244 133.731 693.214C132.208 693.183 131.065 696.393 131.171 700.372C131.172 700.423 131.173 700.465 131.174 700.508C131.174 700.508 131.277 704.343 131.306 705.443L136.811 705.554C136.778 704.317 136.679 700.618 136.679 700.618Z" fill="white"/>
<path d="M136.612 700.617C136.61 700.567 136.609 700.524 136.608 700.482C136.502 696.494 135.179 693.244 133.664 693.213C132.14 693.183 130.997 696.393 131.103 700.372C131.105 700.423 131.106 700.465 131.107 700.507C131.107 700.507 131.209 704.343 131.239 705.443L136.743 705.553C136.71 704.317 136.612 700.617 136.612 700.617Z" fill="url(#paint7_linear_105_1104)"/>
<path opacity="0.2" d="M134.492 703.725C133.005 705.001 131.561 705.765 131.277 705.429C130.992 705.093 131.972 703.788 133.458 702.512C134.945 701.236 136.389 700.472 136.674 700.808C136.958 701.144 135.978 702.449 134.492 703.725Z" fill="url(#paint8_radial_105_1104)"/>
<path d="M120.662 690.903C120.922 699.535 121.057 704.042 121.535 719.92C123.445 707.995 154.258 687.964 154.258 687.964L154.106 681.286C154.098 681.278 120.961 700.854 120.662 690.903Z" fill="white"/>
<path d="M120.417 690.901C120.677 699.533 120.813 704.04 121.292 719.917C123.201 707.993 154.012 687.963 154.012 687.963L153.922 681.388C153.922 681.388 120.717 700.852 120.417 690.901Z" fill="url(#paint9_linear_105_1104)"/>
<mask id="mask0_105_1104" style="mask-type:alpha" maskUnits="userSpaceOnUse" x="122" y="678" width="31" height="45">
<path d="M122.405 690.591C122.479 700.035 122.517 704.965 122.651 722.335C124.58 709.208 152.522 686.167 152.522 686.167L152.562 678.97C152.562 678.97 122.49 701.478 122.405 690.591Z" fill="url(#paint10_linear_105_1104)"/>
</mask>
<g mask="url(#mask0_105_1104)">
<path opacity="0.2" d="M118.906 704.986C118.954 715.531 120.139 724.059 121.553 724.032C122.967 724.006 124.075 715.436 124.027 704.89C123.978 694.345 122.793 685.818 121.379 685.845C119.965 685.871 118.858 694.441 118.906 704.986Z" fill="url(#paint11_radial_105_1104)"/>
</g>
<path d="M99.7375 705.723C99.7359 705.673 99.7337 705.607 99.7312 705.532L105.173 705.668C105.175 705.743 105.178 705.809 105.179 705.85C105.203 706.57 104.658 707.929 103.992 707.912C103.327 707.896 101.571 707.852 101.055 707.839C100.54 707.834 99.7693 706.674 99.7375 705.723Z" fill="white"/>
<path d="M99.7796 705.672C99.7779 705.623 99.7757 705.556 99.7732 705.482L105.215 705.618C105.217 705.692 105.22 705.759 105.221 705.8C105.245 706.52 104.7 707.878 104.034 707.862C103.369 707.845 101.613 707.801 101.097 707.788C100.582 707.784 99.8113 706.624 99.7796 705.672Z" fill="url(#paint12_linear_105_1104)"/>
<path opacity="0.2" d="M99.8322 705.328C99.8448 705.704 101.077 706.036 102.584 706.07C104.091 706.104 105.303 705.828 105.29 705.452C105.278 705.077 104.046 704.745 102.538 704.711C101.031 704.676 99.8196 704.953 99.8322 705.328Z" fill="url(#paint13_radial_105_1104)"/>
<path d="M99.7926 700.651C99.7912 700.6 99.7901 700.558 99.789 700.515C99.6827 696.528 100.826 693.326 102.349 693.357C103.873 693.387 105.188 696.646 105.294 700.625C105.295 700.676 105.296 700.719 105.297 700.761C105.297 700.761 105.4 704.596 105.429 705.697L99.9241 705.587C99.8912 704.351 99.7926 700.651 99.7926 700.651Z" fill="white"/>
<path d="M99.86 700.651C99.8588 700.609 99.8575 700.558 99.8564 700.515C99.7501 696.528 100.901 693.327 102.417 693.357C103.94 693.388 105.255 696.646 105.361 700.626C105.362 700.676 105.364 700.719 105.365 700.761C105.365 700.761 105.467 704.596 105.496 705.697L99.9915 705.587C99.9586 704.351 99.86 700.651 99.86 700.651Z" fill="url(#paint14_linear_105_1104)"/>
<path opacity="0.2" d="M101.929 703.843C103.498 705.196 104.993 706.034 105.256 705.712C105.52 705.39 104.457 704.033 102.888 702.68C101.319 701.326 99.8247 700.488 99.561 700.81C99.2973 701.132 100.36 702.489 101.929 703.843Z" fill="url(#paint15_radial_105_1104)"/>
<path d="M115.18 691.838C115.44 700.47 115.575 704.976 116.053 720.854C113.423 708.819 81.3572 687.252 81.3572 687.252L81.1062 680.571C81.1145 680.572 115.479 701.789 115.18 691.838Z" fill="white"/>
<path d="M115.411 691.839C115.671 700.471 115.807 704.978 116.285 720.855C113.654 708.82 81.5898 687.253 81.5898 687.253L81.2836 680.673C81.2919 680.673 115.711 701.79 115.411 691.839Z" fill="url(#paint16_linear_105_1104)"/>
<mask id="mask1_105_1104" style="mask-type:alpha" maskUnits="userSpaceOnUse" x="83" y="679" width="32" height="44">
<path d="M113.828 690.393C113.901 699.837 113.939 704.767 114.073 722.137C111.942 709.052 83.6481 686.586 83.6481 686.586L83.4957 679.391C83.5031 679.39 113.912 701.28 113.828 690.393Z" fill="url(#paint17_linear_105_1104)"/>
</mask>
<g mask="url(#mask1_105_1104)">
<path opacity="0.2" d="M112.346 705.201C112.394 715.746 113.58 724.273 114.994 724.246C116.408 724.22 117.515 715.65 117.467 705.105C117.419 694.56 116.234 686.032 114.819 686.059C113.405 686.085 112.298 694.655 112.346 705.201Z" fill="url(#paint18_radial_105_1104)"/>
</g>
<path d="M154.883 687.763C154.736 687.764 154.59 686.123 154.586 685.77C154.583 685.416 154.65 680.156 154.807 680.155C154.955 680.155 155.137 685.405 155.141 685.767C155.144 686.121 155.041 687.762 154.883 687.763Z" fill="white"/>
<path d="M154.882 687.687C154.734 687.688 154.598 686.064 154.594 685.711C154.591 685.357 154.66 680.148 154.808 680.147C154.956 680.146 155.128 685.355 155.131 685.708C155.135 686.062 155.03 687.686 154.882 687.687Z" fill="url(#paint19_linear_105_1104)"/>
<path d="M81.7086 687.747C81.8565 687.747 81.9694 686.105 81.9658 685.752C81.9622 685.398 81.789 680.139 81.6319 680.14C81.4841 680.141 81.4076 685.392 81.4113 685.754C81.4149 686.116 81.5608 687.748 81.7086 687.747Z" fill="white"/>
<path d="M81.7074 687.68C81.8554 687.679 81.9597 686.055 81.9562 685.701C81.9527 685.348 81.7811 680.139 81.633 680.14C81.485 680.141 81.416 685.35 81.4195 685.704C81.423 686.057 81.5593 687.681 81.7074 687.68Z" fill="url(#paint20_linear_105_1104)"/>
<path d="M119.747 656.656C120.881 657.635 127.894 653.269 131.48 651.974C131.453 655.149 131.453 655.149 131.453 655.149C131.453 655.149 119.88 668.702 119.62 671.335C119.747 656.656 119.62 671.325 119.747 656.656Z" fill="white"/>
<path d="M119.611 656.614C120.745 657.594 127.76 653.307 131.348 652.001C131.32 655.178 131.321 655.098 131.321 655.098C131.321 655.098 119.744 668.656 119.484 671.29C119.611 656.614 119.484 671.29 119.611 656.614Z" fill="url(#paint21_linear_105_1104)"/>
<mask id="mask2_105_1104" style="mask-type:alpha" maskUnits="userSpaceOnUse" x="119" y="651" width="13" height="21">
<path d="M119.63 656.606C120.761 657.588 127.757 653.291 131.335 651.983C131.306 655.166 131.307 655.086 131.307 655.086C131.307 655.086 119.757 668.67 119.497 671.308C119.63 656.606 119.497 671.308 119.63 656.606Z" fill="url(#paint22_linear_105_1104)"/>
</mask>
<g mask="url(#mask2_105_1104)">
<path opacity="0.2" d="M122.27 661.011C122.511 663.829 122.31 666.226 121.825 666.361C121.339 666.496 120.748 664.328 120.507 661.51C120.267 658.692 120.468 656.295 120.953 656.16C121.438 656.016 122.029 658.193 122.27 661.011Z" fill="url(#paint23_radial_105_1104)"/>
</g>
<path d="M116.995 656.046C115.843 657.183 108.897 653.78 105.329 652.978C105.301 656.154 105.301 656.154 105.301 656.154C105.301 656.154 116.654 668.125 116.868 670.725C116.995 656.046 116.868 670.715 116.995 656.046Z" fill="white"/>
<mask id="mask3_105_1104" style="mask-type:alpha" maskUnits="userSpaceOnUse" x="105" y="652" width="12" height="19">
<path d="M116.979 656.035C115.83 657.174 108.907 653.766 105.35 652.963C105.321 656.144 105.321 656.144 105.321 656.144C105.321 656.144 116.633 668.136 116.845 670.741C116.979 656.035 116.845 670.731 116.979 656.035Z" fill="white"/>
</mask>
<g mask="url(#mask3_105_1104)">
<path d="M117.116 655.986C115.966 657.126 109.039 653.796 105.48 652.982C105.452 656.165 105.452 656.085 105.452 656.085C105.452 656.085 116.77 668.083 116.983 670.688C117.116 655.986 116.983 670.688 117.116 655.986Z" fill="url(#paint24_linear_105_1104)"/>
<path opacity="0.2" d="M114.517 661.487C114.206 664.345 114.348 666.717 114.831 666.782C115.314 666.847 115.96 664.589 116.27 661.731C116.581 658.874 116.439 656.501 115.956 656.437C115.474 656.372 114.827 658.629 114.517 661.487Z" fill="url(#paint25_radial_105_1104)"/>
</g>
<path d="M120.814 727.078C120.814 727.078 121.07 693.544 121.231 672.471C121.391 651.398 118.738 653.39 118.738 653.39C118.738 653.39 116.113 651.757 115.952 672.83C115.791 693.903 115.536 727.437 115.536 727.437C115.536 727.437 116.022 739.461 118.083 739.321C120.144 739.181 120.814 727.078 120.814 727.078Z" fill="white"/>
<path d="M120.58 727.077C120.58 727.077 120.836 693.543 120.996 672.47C121.157 651.397 118.504 653.389 118.504 653.389C118.504 653.389 115.878 651.756 115.718 672.829C115.557 693.902 115.301 727.436 115.301 727.436C115.301 727.436 115.787 739.461 117.849 739.32C119.91 739.18 120.58 727.077 120.58 727.077Z" fill="url(#paint26_radial_105_1104)"/>
<path opacity="0.2" d="M117.106 666.254C117.044 672.943 117.509 678.33 118.143 678.286C118.778 678.242 119.343 672.783 119.405 666.094C119.467 659.405 119.003 654.018 118.368 654.062C117.733 654.107 117.168 659.565 117.106 666.254Z" fill="url(#paint27_radial_105_1104)"/>
<path d="M118.217 672.127C117.956 672.145 117.775 668.08 117.782 667.187C117.788 666.294 118.088 653.193 118.349 653.176C118.61 653.158 118.729 666.231 118.722 667.124C118.716 668.017 118.479 672.11 118.217 672.127Z" fill="white"/>
<path d="M118.202 671.937C117.947 671.955 117.771 667.925 117.777 667.049C117.784 666.165 118.076 653.206 118.331 653.189C118.587 653.172 118.701 666.112 118.695 666.988C118.683 667.864 118.452 671.921 118.202 671.937Z" fill="url(#paint28_linear_105_1104)"/>
<mask id="mask4_105_1104" style="mask-type:alpha" maskUnits="userSpaceOnUse" x="116" y="731" width="5" height="3">
<g opacity="0.5">
<path d="M118.093 733.518C116.829 733.486 116.121 732.447 116.103 731.89C116.084 731.333 116.94 731.588 118.03 731.615C119.128 731.643 120.044 731.451 120.063 732.008C120.081 732.564 119.44 733.544 118.093 733.518Z" fill="url(#paint29_radial_105_1104)"/>
</g>
</mask>
<g mask="url(#mask4_105_1104)">
<path opacity="0.5" d="M118.072 733.819C116.968 733.881 116.372 732.579 116.368 731.853C116.364 731.126 117.107 731.388 118.059 731.335C119.019 731.282 119.824 730.955 119.828 731.682C119.832 732.408 119.25 733.743 118.072 733.819Z" fill="url(#paint30_radial_105_1104)"/>
<path opacity="0.5" d="M119.932 730.575L119.94 731.855C119.94 731.855 118.282 734.952 116.218 732.058C116.209 730.778 116.209 730.778 116.209 730.778C116.209 730.778 118.29 732.426 119.932 730.575Z" fill="white"/>
<path opacity="0.5" d="M119.932 730.575L119.94 731.855C119.94 731.855 118.282 734.952 116.218 732.058C116.209 730.778 116.209 730.778 116.209 730.778C116.209 730.778 118.298 732.426 119.932 730.575Z" fill="url(#paint31_linear_105_1104)"/>
</g>
</g>
</g>
<defs>
<filter id="filter0_dd_105_1104" x="76.1064" y="645.974" width="94.0342" height="107.349" filterUnits="userSpaceOnUse" color-interpolation-filters="sRGB">
<feFlood flood-opacity="0" result="BackgroundImageFix"/>
<feColorMatrix in="SourceAlpha" type="matrix" values="0 0 0 0 0 0 0 0 0 0 0 0 0 0 0 0 0 0 127 0" result="hardAlpha"/>
<feOffset dx="3"/>
<feGaussianBlur stdDeviation="1.5"/>
<feColorMatrix type="matrix" values="0 0 0 0 0.555208 0 0 0 0 0.752283 0 0 0 0 0.8125 0 0 0 0.4 0"/>
<feBlend mode="normal" in2="BackgroundImageFix" result="effect1_dropShadow_105_1104"/>
<feColorMatrix in="SourceAlpha" type="matrix" values="0 0 0 0 0 0 0 0 0 0 0 0 0 0 0 0 0 0 127 0" result="hardAlpha"/>
<feOffset dx="5" dy="4"/>
<feGaussianBlur stdDeviation="5"/>
<feColorMatrix type="matrix" values="0 0 0 0 0.556863 0 0 0 0 0.752941 0 0 0 0 0.811765 0 0 0 0.5 0"/>
<feBlend mode="normal" in2="effect1_dropShadow_105_1104" result="effect2_dropShadow_105_1104"/>
<feBlend mode="normal" in="SourceGraphic" in2="effect2_dropShadow_105_1104" result="shape"/>
</filter>
<linearGradient id="paint0_linear_105_1104" x1="823.129" y1="4503.97" x2="1084.69" y2="4471.1" gradientUnits="userSpaceOnUse">
<stop stop-color="#CBEAF4"/>
<stop offset="1" stop-color="#B0E2F2"/>
</linearGradient>
<linearGradient id="paint1_linear_105_1104" x1="-33.6477" y1="3362.82" x2="1312.63" y2="3261.5" gradientUnits="userSpaceOnUse">
<stop stop-color="#CBEAF4"/>
<stop offset="1" stop-color="#B0E2F2"/>
</linearGradient>
<linearGradient id="paint2_linear_105_1104" x1="845.328" y1="1936.11" x2="1111.37" y2="1902.31" gradientUnits="userSpaceOnUse">
<stop stop-color="#CBEAF4"/>
<stop offset="1" stop-color="#B0E2F2"/>
</linearGradient>
<linearGradient id="paint3_linear_105_1104" x1="368.522" y1="1307.04" x2="164.455" y2="993.473" gradientUnits="userSpaceOnUse">
<stop stop-color="#CBEAF4"/>
<stop offset="1" stop-color="#B0E2F2"/>
</linearGradient>
<linearGradient id="paint4_linear_105_1104" x1="154.341" y1="743.2" x2="1423.89" y2="463.953" gradientUnits="userSpaceOnUse">
<stop stop-color="#CBEAF4"/>
<stop offset="1" stop-color="#B0E2F2"/>
</linearGradient>
<linearGradient id="paint5_linear_105_1104" x1="133.792" y1="705.416" x2="133.735" y2="707.691" gradientUnits="userSpaceOnUse">
<stop stop-color="#EDF8FE"/>
<stop offset="1" stop-color="white"/>
</linearGradient>
<radialGradient id="paint6_radial_105_1104" cx="0" cy="0" r="1" gradientUnits="userSpaceOnUse" gradientTransform="translate(133.8 705.255) rotate(88.075) scale(0.680266 2.72191)">
<stop stop-color="#7CAEBE"/>
<stop offset="1" stop-color="#EAF7FE"/>
</radialGradient>
<linearGradient id="paint7_linear_105_1104" x1="133.659" y1="693.21" x2="133.413" y2="705.487" gradientUnits="userSpaceOnUse">
<stop stop-color="white"/>
<stop offset="1" stop-color="#EAF7FE"/>
</linearGradient>
<radialGradient id="paint8_radial_105_1104" cx="0" cy="0" r="1" gradientUnits="userSpaceOnUse" gradientTransform="translate(133.975 703.118) rotate(88.2058) scale(2.45608 2.81029)">
<stop stop-color="#7CAEBE"/>
<stop offset="1" stop-color="#EDF8FE"/>
</radialGradient>
<linearGradient id="paint9_linear_105_1104" x1="137.241" y1="688.437" x2="136.28" y2="727.743" gradientUnits="userSpaceOnUse">
<stop stop-color="#EFF9FE"/>
<stop offset="1" stop-color="#E1F4FD"/>
</linearGradient>
<linearGradient id="paint10_linear_105_1104" x1="137.505" y1="687.289" x2="137.946" y2="730.346" gradientUnits="userSpaceOnUse">
<stop stop-color="white"/>
<stop offset="1" stop-color="#E1F4FD"/>
</linearGradient>
<radialGradient id="paint11_radial_105_1104" cx="0" cy="0" r="1" gradientUnits="userSpaceOnUse" gradientTransform="translate(121.466 704.936) rotate(89.7384) scale(19.096 2.55731)">
<stop stop-color="#7CAEBE"/>
<stop offset="1" stop-color="#EAF7FE"/>
</radialGradient>
<linearGradient id="paint12_linear_105_1104" x1="102.494" y1="705.551" x2="102.437" y2="707.826" gradientUnits="userSpaceOnUse">
<stop stop-color="#EDF8FE"/>
<stop offset="1" stop-color="white"/>
</linearGradient>
<radialGradient id="paint13_radial_105_1104" cx="0" cy="0" r="1" gradientUnits="userSpaceOnUse" gradientTransform="translate(102.561 705.39) rotate(88.0743) scale(0.680278 2.72193)">
<stop stop-color="#7CAEBE"/>
<stop offset="1" stop-color="#EAF7FE"/>
</radialGradient>
<linearGradient id="paint14_linear_105_1104" x1="102.412" y1="693.354" x2="102.166" y2="705.63" gradientUnits="userSpaceOnUse">
<stop stop-color="white"/>
<stop offset="1" stop-color="#EAF7FE"/>
</linearGradient>
<radialGradient id="paint15_radial_105_1104" cx="0" cy="0" r="1" gradientUnits="userSpaceOnUse" gradientTransform="translate(102.409 703.261) rotate(88.2058) scale(2.45608 2.81029)">
<stop stop-color="#7CAEBE"/>
<stop offset="1" stop-color="#EDF8FE"/>
</radialGradient>
<linearGradient id="paint16_linear_105_1104" x1="98.4208" y1="688.551" x2="97.4598" y2="727.856" gradientUnits="userSpaceOnUse">
<stop stop-color="#EFF9FE"/>
<stop offset="1" stop-color="#E1F4FD"/>
</linearGradient>
<linearGradient id="paint17_linear_105_1104" x1="98.685" y1="687.402" x2="99.1252" y2="730.459" gradientUnits="userSpaceOnUse">
<stop stop-color="white"/>
<stop offset="1" stop-color="#E1F4FD"/>
</linearGradient>
<radialGradient id="paint18_radial_105_1104" cx="0" cy="0" r="1" gradientUnits="userSpaceOnUse" gradientTransform="translate(114.906 705.151) rotate(89.7384) scale(19.096 2.55731)">
<stop stop-color="#7CAEBE"/>
<stop offset="1" stop-color="#EAF7FE"/>
</radialGradient>
<linearGradient id="paint19_linear_105_1104" x1="154.806" y1="680.144" x2="154.843" y2="687.686" gradientUnits="userSpaceOnUse">
<stop stop-color="#EFF9FE"/>
<stop offset="0.1998" stop-color="white"/>
<stop offset="0.4039" stop-color="white"/>
<stop offset="0.6071" stop-color="white"/>
<stop offset="0.807" stop-color="#EEF8FE"/>
<stop offset="1" stop-color="#EEF9FE"/>
</linearGradient>
<linearGradient id="paint20_linear_105_1104" x1="81.6313" y1="680.137" x2="81.6684" y2="687.679" gradientUnits="userSpaceOnUse">
<stop stop-color="#EFF9FE"/>
<stop offset="0.1998" stop-color="white"/>
<stop offset="0.4039" stop-color="white"/>
<stop offset="0.6071" stop-color="white"/>
<stop offset="0.807" stop-color="#EEF8FE"/>
<stop offset="1" stop-color="#EEF9FE"/>
</linearGradient>
<linearGradient id="paint21_linear_105_1104" x1="125.466" y1="655.967" x2="126.734" y2="674.349" gradientUnits="userSpaceOnUse">
<stop stop-color="#EFF9FE"/>
<stop offset="1" stop-color="#E1F4FD"/>
</linearGradient>
<linearGradient id="paint22_linear_105_1104" x1="125.469" y1="655.957" x2="126.746" y2="674.37" gradientUnits="userSpaceOnUse">
<stop stop-color="#EFF9FE"/>
<stop offset="1" stop-color="#E1F4FD"/>
</linearGradient>
<radialGradient id="paint23_radial_105_1104" cx="0" cy="0" r="1" gradientUnits="userSpaceOnUse" gradientTransform="translate(121.389 661.26) rotate(90.7071) scale(5.14099 1.00851)">
<stop stop-color="#7CAEBE"/>
<stop offset="1" stop-color="#EAF7FE"/>
</radialGradient>
<linearGradient id="paint24_linear_105_1104" x1="111.28" y1="656.149" x2="112.558" y2="674.563" gradientUnits="userSpaceOnUse">
<stop stop-color="#EFF9FE"/>
<stop offset="1" stop-color="#E1F4FD"/>
</linearGradient>
<radialGradient id="paint25_radial_105_1104" cx="0" cy="0" r="1" gradientUnits="userSpaceOnUse" gradientTransform="translate(115.393 661.609) rotate(90.7073) scale(5.14072 1.00848)">
<stop stop-color="#7CAEBE"/>
<stop offset="1" stop-color="#EAF7FE"/>
</radialGradient>
<radialGradient id="paint26_radial_105_1104" cx="0" cy="0" r="1" gradientUnits="userSpaceOnUse" gradientTransform="translate(118.056 679.571) rotate(90.4369) scale(62.2501 2.88537)">
<stop stop-color="white"/>
<stop offset="1" stop-color="#E1F4FD"/>
</radialGradient>
<radialGradient id="paint27_radial_105_1104" cx="0" cy="0" r="1" gradientUnits="userSpaceOnUse" gradientTransform="translate(118.256 666.173) rotate(90.5315) scale(12.1135 1.14712)">
<stop stop-color="#7CAEBE"/>
<stop offset="1" stop-color="#EAF7FE"/>
</radialGradient>
<linearGradient id="paint28_linear_105_1104" x1="118.329" y1="653.181" x2="119.585" y2="671.842" gradientUnits="userSpaceOnUse">
<stop stop-color="#EFF9FE"/>
<stop offset="0.1998" stop-color="white"/>
<stop offset="0.4039" stop-color="white"/>
<stop offset="0.6071" stop-color="white"/>
<stop offset="0.807" stop-color="#EEF8FE"/>
<stop offset="1" stop-color="#EEF9FE"/>
</linearGradient>
<radialGradient id="paint29_radial_105_1104" cx="0" cy="0" r="1" gradientUnits="userSpaceOnUse" gradientTransform="translate(118.098 732.406) rotate(88.1033) scale(0.995287 1.94403)">
<stop stop-color="white"/>
<stop offset="0.1205" stop-color="#FBFBFB"/>
<stop offset="0.2454" stop-color="#EEEEEE"/>
<stop offset="0.3724" stop-color="#DADADA"/>
<stop offset="0.5008" stop-color="#BCBCBC"/>
<stop offset="0.6304" stop-color="#979797"/>
<stop offset="0.761" stop-color="#696969"/>
<stop offset="0.8898" stop-color="#343434"/>
<stop offset="1"/>
</radialGradient>
<radialGradient id="paint30_radial_105_1104" cx="0" cy="0" r="1" gradientUnits="userSpaceOnUse" gradientTransform="translate(118.102 732.544) rotate(89.6958) scale(1.27346 1.72814)">
<stop stop-color="#7CAEBE"/>
<stop offset="1" stop-color="#EAF7FE"/>
</radialGradient>
<linearGradient id="paint31_linear_105_1104" x1="115.565" y1="729.7" x2="120.308" y2="731.309" gradientUnits="userSpaceOnUse">
<stop stop-color="#828C93"/>
<stop offset="0.0829433" stop-color="#89939A"/>
<stop offset="0.2223" stop-color="#9DA8AE"/>
<stop offset="0.4" stop-color="#BFCAD0"/>
<stop offset="0.5113" stop-color="#D8E2E7"/>
<stop offset="0.6233" stop-color="#A8B3B9"/>
<stop offset="0.7541" stop-color="#798389"/>
<stop offset="0.865" stop-color="#586066"/>
<stop offset="0.9504" stop-color="#41474C"/>
<stop offset="1" stop-color="#373D42"/>
</linearGradient>
<clipPath id="clip0_105_1104">
<rect width="1920" height="4695" fill="white"/>
</clipPath>
</defs>
</svg>
