<svg width="30" height="31" viewBox="0 0 30 31" fill="none" xmlns="http://www.w3.org/2000/svg">
<path d="M28.9085 17.9451C29.8334 10.1603 28.4642 5.24546 25.9945 3.0225L25.9958 3.02121C22.0097 -0.774999 8.54798 -1.33688 3.77915 3.19171C1.63756 5.40692 0.88323 8.65805 0.800564 12.6829C0.717897 16.709 0.61973 24.2511 7.64769 26.2971H7.65415L7.64769 29.4216C7.64769 29.4216 7.5999 30.6874 8.40848 30.9419C9.33331 31.2416 9.75181 30.6539 12.6284 27.218C17.4385 27.6352 21.1327 26.6794 21.5525 26.5399C22.5238 26.2144 28.0199 25.4872 28.9085 17.9451ZM13.1024 25.0196C13.1024 25.0196 10.0579 28.8158 9.11115 29.8014C8.80115 30.1217 8.46144 30.092 8.46661 29.4565C8.46661 29.0393 8.48986 24.2691 8.48986 24.2691C2.5314 22.5616 2.88273 16.1394 2.94731 12.7798C3.0119 9.41884 3.62673 6.6663 5.44023 4.81276C9.62394 0.889961 21.4259 1.767 24.4329 4.59317C28.109 7.85205 26.8005 17.0591 26.8083 17.3729C26.0527 23.6685 21.599 24.0676 20.7801 24.3402C20.43 24.4564 17.1815 25.2922 13.1024 25.0196Z" fill="#7D3DAF"/>
<path d="M28.9085 17.9451C29.8334 10.1603 28.4642 5.24546 25.9945 3.0225L25.9958 3.02121C22.0097 -0.774999 8.54798 -1.33688 3.77915 3.19171C1.63756 5.40692 0.88323 8.65805 0.800564 12.6829C0.717897 16.709 0.619731 24.2511 7.64769 26.2971H7.65415L7.64769 29.4216C7.64769 29.4216 7.5999 30.6874 8.40848 30.9419C9.33331 31.2416 9.75181 30.6539 12.6284 27.218C17.4385 27.6352 21.1327 26.6794 21.5525 26.5399C22.5238 26.2144 28.0199 25.4872 28.9085 17.9451Z" fill="#7D3DAF"/>
<path d="M14.787 5.55029C14.2897 5.55029 14.2897 6.32529 14.787 6.33175C18.6452 6.36146 21.8227 9.05071 21.8576 13.9836C21.8576 14.5041 22.6197 14.4977 22.6132 13.9771H22.6119C22.5706 8.66192 19.1012 5.58 14.787 5.55029Z" fill="white"/>
<path d="M19.862 13.166C19.8504 13.6801 20.6112 13.7046 20.6177 13.1841C20.681 10.2533 18.8739 7.83914 15.4781 7.58468C14.9808 7.54852 14.9292 8.32997 15.4252 8.36614C18.3702 8.5896 19.9215 10.5994 19.862 13.166Z" fill="white"/>
<path d="M19.0477 16.4998C18.4096 16.1303 17.7599 16.3603 17.4912 16.7232L16.9294 17.4504C16.6439 17.8198 16.1104 17.7708 16.1104 17.7708C12.2174 16.7413 11.1763 12.6674 11.1763 12.6674C11.1763 12.6674 11.1285 12.1158 11.485 11.82L12.1877 11.2388C12.539 10.9598 12.7612 10.2881 12.4034 9.62809C11.4475 7.90113 10.8056 7.30567 10.4788 6.84842C10.1352 6.41829 9.61854 6.32142 9.0812 6.61204H9.06958C7.95229 7.26563 6.72908 8.48884 7.12046 9.74821C7.78825 11.076 9.01533 15.3088 12.9265 18.507C14.7645 20.0195 17.6734 21.5695 18.9082 21.9273L18.9198 21.9454C20.1366 22.351 21.3197 21.08 21.9514 19.9291V19.9201C22.2316 19.3634 22.1386 18.8364 21.7292 18.4915C21.0033 17.7837 19.9079 17.0022 19.0477 16.4998Z" fill="white"/>
<path d="M16.0102 10.4677C17.2515 10.54 17.8535 11.1884 17.918 12.5201C17.9413 13.0407 18.6969 13.0045 18.6737 12.484C18.591 10.7454 17.6842 9.77664 16.0516 9.68622C15.5543 9.65651 15.5078 10.438 16.0102 10.4677Z" fill="white"/>
</svg>
