<svg width="28" height="28" viewBox="0 0 28 28" fill="none" xmlns="http://www.w3.org/2000/svg">
<path fill-rule="evenodd" clip-rule="evenodd" d="M14 28C21.732 28 28 21.732 28 14C28 6.26801 21.732 0 14 0C6.26801 0 0 6.26801 0 14C0 21.732 6.26801 28 14 28Z" fill="#5181B8"/>
<path d="M20.9023 10.9766C20.9844 10.6484 20.9023 10.375 20.4102 10.375H18.7969C18.3867 10.375 18.1953 10.5938 18.0859 10.8398C18.0859 10.8398 17.2656 12.8359 16.1172 14.1484C15.7344 14.5039 15.5703 14.6406 15.3516 14.6406C15.2695 14.6406 15.1055 14.5039 15.1055 14.1758V10.9766C15.1055 10.5664 14.9961 10.375 14.6406 10.375H12.125C11.8516 10.375 11.7148 10.5664 11.7148 10.7578C11.7148 11.1406 12.2891 11.2227 12.3438 12.3164V14.6953C12.3438 15.2148 12.2617 15.3242 12.043 15.3242C11.4961 15.3242 10.1836 13.3008 9.39062 11.0039C9.22656 10.5664 9.0625 10.375 8.65234 10.375H7.03906C6.60156 10.375 6.49219 10.5938 6.49219 10.8398C6.49219 11.2773 7.03906 13.3828 9.03516 16.1992C10.375 18.1133 12.2617 19.125 13.957 19.125C14.9688 19.125 15.1055 18.9062 15.1055 18.5234C15.1055 16.6914 15.0234 16.5 15.5156 16.5C15.7617 16.5 16.1719 16.6367 17.1289 17.5664C18.2227 18.6602 18.4141 19.125 19.0156 19.125H20.6289C21.0938 19.125 21.3125 18.9062 21.1758 18.4414C20.875 17.5117 18.8242 15.543 18.7148 15.4062C18.4688 15.1055 18.5508 14.9688 18.7148 14.6953C18.7148 14.6953 20.6836 11.9062 20.9023 10.9766Z" fill="white"/>
</svg>
