<svg width="30" height="30" viewBox="0 0 30 30" fill="none" xmlns="http://www.w3.org/2000/svg">
<g clip-path="url(#clip0_3103_1740)">
<path d="M25.65 4.31125C22.8 1.55625 19.05 0 15.0562 0C3.59375 0 -3.60375 12.4187 2.12 22.2975L0 30L7.91875 27.935C11.3687 29.7987 14.195 29.6338 15.0637 29.7437C28.355 29.7437 34.9712 13.6637 25.6312 4.36L25.65 4.31125Z" fill="#4CAF50"/>
<path d="M15.0834 27.1887L15.0759 27.1875H15.0559C11.0784 27.1875 8.53711 25.3037 8.28711 25.195L3.59961 26.4137L4.85586 21.8575L4.55711 21.3887C3.31961 19.4187 2.66211 17.15 2.66211 14.8137C2.66211 3.82249 16.0934 -1.67376 23.8659 6.09499C31.6196 13.7825 26.1759 27.1887 15.0834 27.1887Z" fill="#4CAF50"/>
<path d="M21.8839 17.8837L21.8727 17.9775C21.4964 17.79 19.6639 16.8937 19.3227 16.77C18.5564 16.4862 18.7727 16.725 17.3014 18.41C17.0827 18.6537 16.8652 18.6725 16.4939 18.5037C16.1189 18.3162 14.9152 17.9225 13.4902 16.6475C12.3802 15.6537 11.6352 14.435 11.4152 14.06C11.0489 13.4275 11.8152 13.3375 12.5127 12.0175C12.6377 11.755 12.5739 11.5487 12.4814 11.3625C12.3877 11.175 11.6414 9.3375 11.3289 8.605C11.0289 7.875 10.7202 7.9675 10.4889 7.9675C9.76892 7.905 9.24267 7.915 8.77892 8.3975C6.76142 10.615 7.27017 12.9025 8.99642 15.335C12.3889 19.775 14.1964 20.5925 17.5014 21.7275C18.3939 22.0112 19.2077 21.9712 19.8514 21.8787C20.5689 21.765 22.0602 20.9775 22.3714 20.0962C22.6902 19.215 22.6902 18.4837 22.5964 18.315C22.5039 18.1462 22.2589 18.0525 21.8839 17.8837Z" fill="#FAFAFA"/>
</g>
<defs>
<clipPath id="clip0_3103_1740">
<rect width="30" height="30" fill="white"/>
</clipPath>
</defs>
</svg>
